<ttFont>
    <TTGlyph name="A" xMin="-53" yMin="0" xMax="578" yMax="710">
      <contour>
        <pt x="352" y="710" on="1"/>
        <pt x="475" y="710" on="1"/>
        <pt x="578" y="0" on="1"/>
        <pt x="436" y="0" on="1"/>
        <pt x="414" y="177" on="1"/>
        <pt x="185" y="177" on="1"/>
        <pt x="89" y="0" on="1"/>
        <pt x="-53" y="0" on="1"/>
      </contour>
      <contour>
        <pt x="411" y="274" on="1"/>
        <pt x="380" y="553" on="1"/>
        <pt x="228" y="274" on="1"/>
      </contour>
    </TTGlyph>
    <TTGlyph name="A.sc" xMin="-55" yMin="0" xMax="505" yMax="559">
      <contour>
        <pt x="295" y="559" on="1"/>
        <pt x="394" y="559" on="1"/>
        <pt x="505" y="0" on="1"/>
        <pt x="378" y="0" on="1"/>
        <pt x="354" y="131" on="1"/>
        <pt x="153" y="131" on="1"/>
        <pt x="74" y="0" on="1"/>
        <pt x="-55" y="0" on="1"/>
      </contour>
      <contour>
        <pt x="348" y="236" on="1"/>
        <pt x="313" y="412" on="1"/>
        <pt x="202" y="236" on="1"/>
      </contour>
    </TTGlyph>
    <TTGlyph name="AE" xMin="-80" yMin="0" xMax="974" yMax="710">
      <contour>
        <pt x="490" y="710" on="1"/>
        <pt x="974" y="710" on="1"/>
        <pt x="948" y="589" on="1"/>
        <pt x="637" y="589" on="1"/>
        <pt x="602" y="422" on="1"/>
        <pt x="861" y="422" on="1"/>
        <pt x="835" y="301" on="1"/>
        <pt x="576" y="301" on="1"/>
        <pt x="538" y="121" on="1"/>
        <pt x="856" y="121" on="1"/>
        <pt x="831" y="0" on="1"/>
        <pt x="375" y="0" on="1"/>
        <pt x="413" y="177" on="1"/>
        <pt x="200" y="177" on="1"/>
        <pt x="67" y="0" on="1"/>
        <pt x="-80" y="0" on="1"/>
      </contour>
      <contour>
        <pt x="428" y="297" on="1"/>
        <pt x="483" y="555" on="1"/>
        <pt x="285" y="297" on="1"/>
      </contour>
    </TTGlyph>
    <TTGlyph name="AEacute" xMin="-80" yMin="0" xMax="974" yMax="916">
      <contour>
        <pt x="620" y="780" on="1"/>
        <pt x="533" y="797" on="1"/>
        <pt x="609" y="916" on="1"/>
        <pt x="733" y="916" on="1"/>
      </contour>
      <contour>
        <pt x="490" y="710" on="1"/>
        <pt x="974" y="710" on="1"/>
        <pt x="948" y="589" on="1"/>
        <pt x="637" y="589" on="1"/>
        <pt x="602" y="422" on="1"/>
        <pt x="861" y="422" on="1"/>
        <pt x="835" y="301" on="1"/>
        <pt x="576" y="301" on="1"/>
        <pt x="538" y="121" on="1"/>
        <pt x="856" y="121" on="1"/>
        <pt x="831" y="0" on="1"/>
        <pt x="375" y="0" on="1"/>
        <pt x="413" y="177" on="1"/>
        <pt x="200" y="177" on="1"/>
        <pt x="67" y="0" on="1"/>
        <pt x="-80" y="0" on="1"/>
      </contour>
      <contour>
        <pt x="428" y="297" on="1"/>
        <pt x="483" y="555" on="1"/>
        <pt x="285" y="297" on="1"/>
      </contour>
    </TTGlyph>
    <TTGlyph name="Aacute" xMin="-53" yMin="0" xMax="578" yMax="916">
      <contour>
        <pt x="352" y="710" on="1"/>
        <pt x="475" y="710" on="1"/>
        <pt x="578" y="0" on="1"/>
        <pt x="436" y="0" on="1"/>
        <pt x="414" y="177" on="1"/>
        <pt x="185" y="177" on="1"/>
        <pt x="89" y="0" on="1"/>
        <pt x="-53" y="0" on="1"/>
      </contour>
      <contour>
        <pt x="411" y="274" on="1"/>
        <pt x="380" y="553" on="1"/>
        <pt x="228" y="274" on="1"/>
      </contour>
      <contour>
        <pt x="445" y="780" on="1"/>
        <pt x="358" y="797" on="1"/>
        <pt x="434" y="916" on="1"/>
        <pt x="558" y="916" on="1"/>
      </contour>
    </TTGlyph>
    <TTGlyph name="Abreve" xMin="-53" yMin="0" xMax="578" yMax="916">
      <contour>
        <pt x="352" y="710" on="1"/>
        <pt x="475" y="710" on="1"/>
        <pt x="578" y="0" on="1"/>
        <pt x="436" y="0" on="1"/>
        <pt x="414" y="177" on="1"/>
        <pt x="185" y="177" on="1"/>
        <pt x="89" y="0" on="1"/>
        <pt x="-53" y="0" on="1"/>
      </contour>
      <contour>
        <pt x="411" y="274" on="1"/>
        <pt x="380" y="553" on="1"/>
        <pt x="228" y="274" on="1"/>
      </contour>
      <contour>
        <pt x="431" y="842" on="1"/>
        <pt x="452" y="842" on="0"/>
        <pt x="493" y="884" on="0"/>
        <pt x="503" y="916" on="1"/>
        <pt x="575" y="916" on="1"/>
        <pt x="569" y="887" on="0"/>
        <pt x="539" y="838" on="0"/>
        <pt x="498" y="802" on="0"/>
        <pt x="447" y="782" on="0"/>
        <pt x="419" y="782" on="1"/>
        <pt x="370" y="782" on="0"/>
        <pt x="315" y="838" on="0"/>
        <pt x="315" y="883" on="1"/>
        <pt x="315" y="901" on="0"/>
        <pt x="319" y="916" on="1"/>
        <pt x="391" y="916" on="1"/>
        <pt x="388" y="905" on="0"/>
        <pt x="388" y="896" on="1"/>
        <pt x="388" y="873" on="0"/>
        <pt x="412" y="842" on="0"/>
      </contour>
    </TTGlyph>
    <TTGlyph name="Acircumflex" xMin="-53" yMin="0" xMax="586" yMax="916">
      <contour>
        <pt x="352" y="710" on="1"/>
        <pt x="475" y="710" on="1"/>
        <pt x="578" y="0" on="1"/>
        <pt x="436" y="0" on="1"/>
        <pt x="414" y="177" on="1"/>
        <pt x="185" y="177" on="1"/>
        <pt x="89" y="0" on="1"/>
        <pt x="-53" y="0" on="1"/>
      </contour>
      <contour>
        <pt x="411" y="274" on="1"/>
        <pt x="380" y="553" on="1"/>
        <pt x="228" y="274" on="1"/>
      </contour>
      <contour>
        <pt x="286" y="815" on="1"/>
        <pt x="409" y="916" on="1"/>
        <pt x="506" y="916" on="1"/>
        <pt x="586" y="815" on="1"/>
        <pt x="509" y="783" on="1"/>
        <pt x="442" y="846" on="1"/>
        <pt x="348" y="783" on="1"/>
      </contour>
    </TTGlyph>
    <TTGlyph name="Adblgrave" xMin="-53" yMin="0" xMax="578" yMax="918">
      <contour>
        <pt x="352" y="710" on="1"/>
        <pt x="475" y="710" on="1"/>
        <pt x="578" y="0" on="1"/>
        <pt x="436" y="0" on="1"/>
        <pt x="414" y="177" on="1"/>
        <pt x="185" y="177" on="1"/>
        <pt x="89" y="0" on="1"/>
        <pt x="-53" y="0" on="1"/>
      </contour>
      <contour>
        <pt x="411" y="274" on="1"/>
        <pt x="380" y="553" on="1"/>
        <pt x="228" y="274" on="1"/>
      </contour>
      <contour>
        <pt x="433" y="918" on="1"/>
        <pt x="535" y="918" on="1"/>
        <pt x="555" y="799" on="1"/>
        <pt x="482" y="781" on="1"/>
      </contour>
      <contour>
        <pt x="276" y="918" on="1"/>
        <pt x="380" y="918" on="1"/>
        <pt x="398" y="799" on="1"/>
        <pt x="326" y="781" on="1"/>
      </contour>
    </TTGlyph>
    <TTGlyph name="Adieresis" xMin="-53" yMin="0" xMax="595" yMax="910">
      <contour>
        <pt x="352" y="710" on="1"/>
        <pt x="475" y="710" on="1"/>
        <pt x="578" y="0" on="1"/>
        <pt x="436" y="0" on="1"/>
        <pt x="414" y="177" on="1"/>
        <pt x="185" y="177" on="1"/>
        <pt x="89" y="0" on="1"/>
        <pt x="-53" y="0" on="1"/>
      </contour>
      <contour>
        <pt x="411" y="274" on="1"/>
        <pt x="380" y="553" on="1"/>
        <pt x="228" y="274" on="1"/>
      </contour>
      <contour>
        <pt x="272" y="791" on="1"/>
        <pt x="298" y="910" on="1"/>
        <pt x="409" y="910" on="1"/>
        <pt x="383" y="791" on="1"/>
      </contour>
      <contour>
        <pt x="460" y="791" on="1"/>
        <pt x="485" y="910" on="1"/>
        <pt x="595" y="910" on="1"/>
        <pt x="571" y="791" on="1"/>
      </contour>
    </TTGlyph>
    <TTGlyph name="Agrave" xMin="-53" yMin="0" xMax="578" yMax="917">
      <contour>
        <pt x="352" y="710" on="1"/>
        <pt x="475" y="710" on="1"/>
        <pt x="578" y="0" on="1"/>
        <pt x="436" y="0" on="1"/>
        <pt x="414" y="177" on="1"/>
        <pt x="185" y="177" on="1"/>
        <pt x="89" y="0" on="1"/>
        <pt x="-53" y="0" on="1"/>
      </contour>
      <contour>
        <pt x="411" y="274" on="1"/>
        <pt x="380" y="553" on="1"/>
        <pt x="228" y="274" on="1"/>
      </contour>
      <contour>
        <pt x="323" y="917" on="1"/>
        <pt x="446" y="917" on="1"/>
        <pt x="472" y="798" on="1"/>
        <pt x="379" y="780" on="1"/>
      </contour>
    </TTGlyph>
    <TTGlyph name="Ainvertedbreve" xMin="-53" yMin="0" xMax="578" yMax="916">
      <contour>
        <pt x="352" y="710" on="1"/>
        <pt x="475" y="710" on="1"/>
        <pt x="578" y="0" on="1"/>
        <pt x="436" y="0" on="1"/>
        <pt x="414" y="177" on="1"/>
        <pt x="185" y="177" on="1"/>
        <pt x="89" y="0" on="1"/>
        <pt x="-53" y="0" on="1"/>
      </contour>
      <contour>
        <pt x="411" y="274" on="1"/>
        <pt x="380" y="553" on="1"/>
        <pt x="228" y="274" on="1"/>
      </contour>
      <contour>
        <pt x="301" y="782" on="1"/>
        <pt x="307" y="811" on="0"/>
        <pt x="336" y="860" on="0"/>
        <pt x="378" y="896" on="0"/>
        <pt x="429" y="916" on="0"/>
        <pt x="456" y="916" on="1"/>
        <pt x="505" y="916" on="0"/>
        <pt x="559" y="856" on="0"/>
        <pt x="559" y="812" on="1"/>
        <pt x="559" y="797" on="0"/>
        <pt x="556" y="782" on="1"/>
        <pt x="485" y="782" on="1"/>
        <pt x="486" y="790" on="0"/>
        <pt x="487" y="804" on="0"/>
        <pt x="487" y="810" on="1"/>
        <pt x="487" y="856" on="0"/>
        <pt x="445" y="856" on="1"/>
        <pt x="387" y="856" on="0"/>
        <pt x="372" y="782" on="1"/>
      </contour>
    </TTGlyph>
    <TTGlyph name="Amacron" xMin="-53" yMin="0" xMax="593" yMax="901">
      <contour>
        <pt x="352" y="710" on="1"/>
        <pt x="475" y="710" on="1"/>
        <pt x="578" y="0" on="1"/>
        <pt x="436" y="0" on="1"/>
        <pt x="414" y="177" on="1"/>
        <pt x="185" y="177" on="1"/>
        <pt x="89" y="0" on="1"/>
        <pt x="-53" y="0" on="1"/>
      </contour>
      <contour>
        <pt x="411" y="274" on="1"/>
        <pt x="380" y="553" on="1"/>
        <pt x="228" y="274" on="1"/>
      </contour>
      <contour>
        <pt x="289" y="818" on="1"/>
        <pt x="307" y="901" on="1"/>
        <pt x="593" y="901" on="1"/>
        <pt x="575" y="818" on="1"/>
      </contour>
    </TTGlyph>
    <TTGlyph name="Aogonek" xMin="-53" yMin="-196" xMax="578" yMax="710">
      <contour>
        <pt x="496" y="-196" on="1"/>
        <pt x="446" y="-188" on="0"/>
        <pt x="399" y="-147" on="0"/>
        <pt x="399" y="-120" on="1"/>
        <pt x="399" y="-58" on="0"/>
        <pt x="502" y="0" on="1"/>
        <pt x="436" y="0" on="1"/>
        <pt x="414" y="177" on="1"/>
        <pt x="185" y="177" on="1"/>
        <pt x="89" y="0" on="1"/>
        <pt x="-53" y="0" on="1"/>
        <pt x="352" y="710" on="1"/>
        <pt x="475" y="710" on="1"/>
        <pt x="578" y="0" on="1"/>
        <pt x="486" y="-53" on="0"/>
        <pt x="486" y="-91" on="1"/>
        <pt x="486" y="-123" on="0"/>
        <pt x="538" y="-126" on="1"/>
      </contour>
      <contour>
        <pt x="411" y="274" on="1"/>
        <pt x="380" y="553" on="1"/>
        <pt x="228" y="274" on="1"/>
      </contour>
    </TTGlyph>
    <TTGlyph name="Aring" xMin="-53" yMin="0" xMax="578" yMax="916">
      <contour>
        <pt x="352" y="710" on="1"/>
        <pt x="475" y="710" on="1"/>
        <pt x="578" y="0" on="1"/>
        <pt x="436" y="0" on="1"/>
        <pt x="414" y="177" on="1"/>
        <pt x="185" y="177" on="1"/>
        <pt x="89" y="0" on="1"/>
        <pt x="-53" y="0" on="1"/>
      </contour>
      <contour>
        <pt x="411" y="274" on="1"/>
        <pt x="380" y="553" on="1"/>
        <pt x="228" y="274" on="1"/>
      </contour>
      <contour>
        <pt x="340" y="824" on="1"/>
        <pt x="340" y="868" on="0"/>
        <pt x="404" y="916" on="0"/>
        <pt x="453" y="916" on="1"/>
        <pt x="491" y="916" on="0"/>
        <pt x="533" y="883" on="0"/>
        <pt x="533" y="854" on="1"/>
        <pt x="533" y="811" on="0"/>
        <pt x="470" y="762" on="0"/>
        <pt x="420" y="762" on="1"/>
        <pt x="383" y="762" on="0"/>
        <pt x="340" y="795" on="0"/>
      </contour>
      <contour>
        <pt x="444" y="875" on="1"/>
        <pt x="425" y="875" on="0"/>
        <pt x="398" y="851" on="0"/>
        <pt x="398" y="833" on="1"/>
        <pt x="398" y="820" on="0"/>
        <pt x="415" y="803" on="0"/>
        <pt x="429" y="803" on="1"/>
        <pt x="446" y="803" on="0"/>
        <pt x="476" y="827" on="0"/>
        <pt x="476" y="845" on="1"/>
        <pt x="476" y="859" on="0"/>
        <pt x="458" y="875" on="0"/>
      </contour>
    </TTGlyph>
    <TTGlyph name="Aringacute" xMin="-53" yMin="0" xMax="591" yMax="922">
      <contour>
        <pt x="491" y="807" on="1"/>
        <pt x="515" y="791" on="0"/>
        <pt x="515" y="760" on="1"/>
        <pt x="515" y="737" on="0"/>
        <pt x="495" y="700" on="0"/>
        <pt x="478" y="688" on="1"/>
        <pt x="578" y="0" on="1"/>
        <pt x="436" y="0" on="1"/>
        <pt x="414" y="177" on="1"/>
        <pt x="185" y="177" on="1"/>
        <pt x="89" y="0" on="1"/>
        <pt x="-53" y="0" on="1"/>
        <pt x="339" y="687" on="1"/>
        <pt x="322" y="704" on="0"/>
        <pt x="322" y="730" on="1"/>
        <pt x="322" y="765" on="0"/>
        <pt x="363" y="809" on="0"/>
        <pt x="397" y="817" on="1"/>
        <pt x="467" y="922" on="1"/>
        <pt x="591" y="922" on="1"/>
      </contour>
      <contour>
        <pt x="411" y="274" on="1"/>
        <pt x="380" y="553" on="1"/>
        <pt x="228" y="274" on="1"/>
      </contour>
      <contour>
        <pt x="426" y="781" on="1"/>
        <pt x="407" y="781" on="0"/>
        <pt x="380" y="757" on="0"/>
        <pt x="380" y="739" on="1"/>
        <pt x="380" y="726" on="0"/>
        <pt x="397" y="709" on="0"/>
        <pt x="411" y="709" on="1"/>
        <pt x="428" y="709" on="0"/>
        <pt x="458" y="733" on="0"/>
        <pt x="458" y="751" on="1"/>
        <pt x="458" y="765" on="0"/>
        <pt x="440" y="781" on="0"/>
      </contour>
    </TTGlyph>
    <TTGlyph name="Atilde" xMin="-53" yMin="0" xMax="634" yMax="916">
      <contour>
        <pt x="352" y="710" on="1"/>
        <pt x="475" y="710" on="1"/>
        <pt x="578" y="0" on="1"/>
        <pt x="436" y="0" on="1"/>
        <pt x="414" y="177" on="1"/>
        <pt x="185" y="177" on="1"/>
        <pt x="89" y="0" on="1"/>
        <pt x="-53" y="0" on="1"/>
      </contour>
      <contour>
        <pt x="411" y="274" on="1"/>
        <pt x="380" y="553" on="1"/>
        <pt x="228" y="274" on="1"/>
      </contour>
      <contour>
        <pt x="488" y="788" on="1"/>
        <pt x="467" y="788" on="0"/>
        <pt x="437" y="802" on="0"/>
        <pt x="412" y="819" on="0"/>
        <pt x="388" y="833" on="0"/>
        <pt x="372" y="833" on="1"/>
        <pt x="356" y="833" on="0"/>
        <pt x="335" y="819" on="0"/>
        <pt x="323" y="801" on="0"/>
        <pt x="318" y="786" on="0"/>
        <pt x="318" y="785" on="1"/>
        <pt x="244" y="785" on="1"/>
        <pt x="246" y="794" on="0"/>
        <pt x="266" y="837" on="0"/>
        <pt x="302" y="880" on="0"/>
        <pt x="353" y="913" on="0"/>
        <pt x="385" y="913" on="1"/>
        <pt x="407" y="913" on="0"/>
        <pt x="435" y="898" on="0"/>
        <pt x="459" y="881" on="0"/>
        <pt x="483" y="866" on="0"/>
        <pt x="500" y="866" on="1"/>
        <pt x="517" y="866" on="0"/>
        <pt x="540" y="880" on="0"/>
        <pt x="554" y="898" on="0"/>
        <pt x="561" y="914" on="0"/>
        <pt x="561" y="916" on="1"/>
        <pt x="634" y="916" on="1"/>
        <pt x="632" y="909" on="0"/>
        <pt x="612" y="867" on="0"/>
        <pt x="575" y="823" on="0"/>
        <pt x="522" y="788" on="0"/>
      </contour>
    </TTGlyph>
    <TTGlyph name="B" xMin="10" yMin="0" xMax="645" yMax="710">
      <contour>
        <pt x="161" y="710" on="1"/>
        <pt x="525" y="710" on="1"/>
        <pt x="555" y="710" on="0"/>
        <pt x="600" y="685" on="0"/>
        <pt x="630" y="645" on="0"/>
        <pt x="645" y="593" on="0"/>
        <pt x="645" y="565" on="1"/>
        <pt x="645" y="534" on="0"/>
        <pt x="626" y="474" on="0"/>
        <pt x="590" y="420" on="0"/>
        <pt x="539" y="377" on="0"/>
        <pt x="508" y="364" on="1"/>
        <pt x="553" y="349" on="0"/>
        <pt x="601" y="276" on="0"/>
        <pt x="601" y="223" on="1"/>
        <pt x="601" y="169" on="0"/>
        <pt x="557" y="86" on="0"/>
        <pt x="483" y="29" on="0"/>
        <pt x="387" y="0" on="0"/>
        <pt x="336" y="0" on="1"/>
        <pt x="10" y="0" on="1"/>
      </contour>
      <contour>
        <pt x="361" y="117" on="1"/>
        <pt x="380" y="117" on="0"/>
        <pt x="418" y="135" on="0"/>
        <pt x="447" y="166" on="0"/>
        <pt x="465" y="207" on="0"/>
        <pt x="465" y="230" on="1"/>
        <pt x="465" y="261" on="0"/>
        <pt x="434" y="304" on="0"/>
        <pt x="407" y="304" on="1"/>
        <pt x="211" y="304" on="1"/>
        <pt x="172" y="117" on="1"/>
      </contour>
      <contour>
        <pt x="404" y="413" on="1"/>
        <pt x="422" y="413" on="0"/>
        <pt x="457" y="429" on="0"/>
        <pt x="485" y="458" on="0"/>
        <pt x="502" y="499" on="0"/>
        <pt x="502" y="524" on="1"/>
        <pt x="502" y="555" on="0"/>
        <pt x="472" y="592" on="0"/>
        <pt x="447" y="592" on="1"/>
        <pt x="273" y="592" on="1"/>
        <pt x="235" y="413" on="1"/>
      </contour>
    </TTGlyph>
    <TTGlyph name="B.sc" xMin="4" yMin="0" xMax="544" yMax="559">
      <contour>
        <pt x="122" y="559" on="1"/>
        <pt x="438" y="559" on="1"/>
        <pt x="464" y="559" on="0"/>
        <pt x="504" y="539" on="0"/>
        <pt x="531" y="506" on="0"/>
        <pt x="544" y="463" on="0"/>
        <pt x="544" y="441" on="1"/>
        <pt x="544" y="417" on="0"/>
        <pt x="528" y="371" on="0"/>
        <pt x="498" y="330" on="0"/>
        <pt x="456" y="297" on="0"/>
        <pt x="430" y="287" on="1"/>
        <pt x="469" y="275" on="0"/>
        <pt x="512" y="217" on="0"/>
        <pt x="512" y="174" on="1"/>
        <pt x="512" y="130" on="0"/>
        <pt x="475" y="65" on="0"/>
        <pt x="412" y="22" on="0"/>
        <pt x="330" y="0" on="0"/>
        <pt x="286" y="0" on="1"/>
        <pt x="4" y="0" on="1"/>
      </contour>
      <contour>
        <pt x="307" y="102" on="1"/>
        <pt x="340" y="102" on="0"/>
        <pt x="392" y="147" on="0"/>
        <pt x="392" y="180" on="1"/>
        <pt x="392" y="203" on="0"/>
        <pt x="364" y="235" on="0"/>
        <pt x="341" y="235" on="1"/>
        <pt x="174" y="235" on="1"/>
        <pt x="146" y="102" on="1"/>
      </contour>
      <contour>
        <pt x="339" y="330" on="1"/>
        <pt x="370" y="330" on="0"/>
        <pt x="418" y="368" on="0"/>
        <pt x="418" y="406" on="1"/>
        <pt x="418" y="429" on="0"/>
        <pt x="391" y="455" on="0"/>
        <pt x="370" y="455" on="1"/>
        <pt x="221" y="455" on="1"/>
        <pt x="194" y="330" on="1"/>
      </contour>
    </TTGlyph>
    <TTGlyph name="C" xMin="37" yMin="-6" xMax="685" yMax="714">
      <contour>
        <pt x="296" y="-6" on="1"/>
        <pt x="234" y="-6" on="0"/>
        <pt x="138" y="45" on="0"/>
        <pt x="72" y="129" on="0"/>
        <pt x="37" y="238" on="0"/>
        <pt x="37" y="296" on="1"/>
        <pt x="37" y="345" on="0"/>
        <pt x="65" y="445" on="0"/>
        <pt x="118" y="538" on="0"/>
        <pt x="193" y="619" on="0"/>
        <pt x="286" y="679" on="0"/>
        <pt x="394" y="714" on="0"/>
        <pt x="454" y="714" on="1"/>
        <pt x="548" y="714" on="0"/>
        <pt x="667" y="628" on="0"/>
        <pt x="685" y="559" on="1"/>
        <pt x="564" y="486" on="1"/>
        <pt x="558" y="516" on="0"/>
        <pt x="530" y="557" on="0"/>
        <pt x="491" y="581" on="0"/>
        <pt x="446" y="592" on="0"/>
        <pt x="424" y="592" on="1"/>
        <pt x="368" y="592" on="0"/>
        <pt x="276" y="538" on="0"/>
        <pt x="212" y="454" on="0"/>
        <pt x="177" y="352" on="0"/>
        <pt x="177" y="304" on="1"/>
        <pt x="177" y="266" on="0"/>
        <pt x="197" y="198" on="0"/>
        <pt x="235" y="146" on="0"/>
        <pt x="290" y="116" on="0"/>
        <pt x="326" y="116" on="1"/>
        <pt x="348" y="116" on="0"/>
        <pt x="399" y="128" on="0"/>
        <pt x="448" y="154" on="0"/>
        <pt x="493" y="195" on="0"/>
        <pt x="511" y="224" on="1"/>
        <pt x="610" y="159" on="1"/>
        <pt x="586" y="119" on="0"/>
        <pt x="513" y="58" on="0"/>
        <pt x="428" y="16" on="0"/>
        <pt x="337" y="-6" on="0"/>
      </contour>
    </TTGlyph>
    <TTGlyph name="C.sc" xMin="23" yMin="-5" xMax="569" yMax="562">
      <contour>
        <pt x="247" y="-5" on="1"/>
        <pt x="194" y="-5" on="0"/>
        <pt x="110" y="36" on="0"/>
        <pt x="53" y="103" on="0"/>
        <pt x="23" y="190" on="0"/>
        <pt x="23" y="236" on="1"/>
        <pt x="23" y="293" on="0"/>
        <pt x="75" y="410" on="0"/>
        <pt x="168" y="503" on="0"/>
        <pt x="296" y="562" on="0"/>
        <pt x="372" y="562" on="1"/>
        <pt x="451" y="562" on="0"/>
        <pt x="553" y="495" on="0"/>
        <pt x="569" y="440" on="1"/>
        <pt x="463" y="375" on="1"/>
        <pt x="458" y="398" on="0"/>
        <pt x="433" y="428" on="0"/>
        <pt x="401" y="446" on="0"/>
        <pt x="364" y="454" on="0"/>
        <pt x="346" y="454" on="1"/>
        <pt x="300" y="454" on="0"/>
        <pt x="227" y="415" on="0"/>
        <pt x="175" y="355" on="0"/>
        <pt x="147" y="281" on="0"/>
        <pt x="147" y="245" on="1"/>
        <pt x="147" y="216" on="0"/>
        <pt x="164" y="165" on="0"/>
        <pt x="196" y="126" on="0"/>
        <pt x="243" y="103" on="0"/>
        <pt x="274" y="103" on="1"/>
        <pt x="311" y="103" on="0"/>
        <pt x="396" y="140" on="0"/>
        <pt x="424" y="184" on="1"/>
        <pt x="511" y="125" on="1"/>
        <pt x="491" y="94" on="0"/>
        <pt x="429" y="45" on="0"/>
        <pt x="358" y="12" on="0"/>
        <pt x="282" y="-5" on="0"/>
      </contour>
    </TTGlyph>
    <TTGlyph name="Cacute" xMin="37" yMin="-6" xMax="685" yMax="916">
      <contour>
        <pt x="498" y="780" on="1"/>
        <pt x="411" y="797" on="1"/>
        <pt x="487" y="916" on="1"/>
        <pt x="611" y="916" on="1"/>
      </contour>
      <contour>
        <pt x="296" y="-6" on="1"/>
        <pt x="234" y="-6" on="0"/>
        <pt x="138" y="45" on="0"/>
        <pt x="72" y="129" on="0"/>
        <pt x="37" y="238" on="0"/>
        <pt x="37" y="296" on="1"/>
        <pt x="37" y="345" on="0"/>
        <pt x="65" y="445" on="0"/>
        <pt x="118" y="538" on="0"/>
        <pt x="193" y="619" on="0"/>
        <pt x="286" y="679" on="0"/>
        <pt x="394" y="714" on="0"/>
        <pt x="454" y="714" on="1"/>
        <pt x="548" y="714" on="0"/>
        <pt x="667" y="628" on="0"/>
        <pt x="685" y="559" on="1"/>
        <pt x="564" y="486" on="1"/>
        <pt x="558" y="516" on="0"/>
        <pt x="530" y="557" on="0"/>
        <pt x="491" y="581" on="0"/>
        <pt x="446" y="592" on="0"/>
        <pt x="424" y="592" on="1"/>
        <pt x="368" y="592" on="0"/>
        <pt x="276" y="538" on="0"/>
        <pt x="212" y="454" on="0"/>
        <pt x="177" y="352" on="0"/>
        <pt x="177" y="304" on="1"/>
        <pt x="177" y="266" on="0"/>
        <pt x="197" y="198" on="0"/>
        <pt x="235" y="146" on="0"/>
        <pt x="290" y="116" on="0"/>
        <pt x="326" y="116" on="1"/>
        <pt x="348" y="116" on="0"/>
        <pt x="399" y="128" on="0"/>
        <pt x="448" y="154" on="0"/>
        <pt x="493" y="195" on="0"/>
        <pt x="511" y="224" on="1"/>
        <pt x="610" y="159" on="1"/>
        <pt x="586" y="119" on="0"/>
        <pt x="513" y="58" on="0"/>
        <pt x="428" y="16" on="0"/>
        <pt x="337" y="-6" on="0"/>
      </contour>
    </TTGlyph>
    <TTGlyph name="Ccaron" xMin="37" yMin="-6" xMax="685" yMax="916">
      <contour>
        <pt x="341" y="884" on="1"/>
        <pt x="418" y="916" on="1"/>
        <pt x="485" y="853" on="1"/>
        <pt x="579" y="916" on="1"/>
        <pt x="642" y="884" on="1"/>
        <pt x="518" y="783" on="1"/>
        <pt x="421" y="783" on="1"/>
      </contour>
      <contour>
        <pt x="296" y="-6" on="1"/>
        <pt x="234" y="-6" on="0"/>
        <pt x="138" y="45" on="0"/>
        <pt x="72" y="129" on="0"/>
        <pt x="37" y="238" on="0"/>
        <pt x="37" y="296" on="1"/>
        <pt x="37" y="345" on="0"/>
        <pt x="65" y="445" on="0"/>
        <pt x="118" y="538" on="0"/>
        <pt x="193" y="619" on="0"/>
        <pt x="286" y="679" on="0"/>
        <pt x="394" y="714" on="0"/>
        <pt x="454" y="714" on="1"/>
        <pt x="548" y="714" on="0"/>
        <pt x="667" y="628" on="0"/>
        <pt x="685" y="559" on="1"/>
        <pt x="564" y="486" on="1"/>
        <pt x="558" y="516" on="0"/>
        <pt x="530" y="557" on="0"/>
        <pt x="491" y="581" on="0"/>
        <pt x="446" y="592" on="0"/>
        <pt x="424" y="592" on="1"/>
        <pt x="368" y="592" on="0"/>
        <pt x="276" y="538" on="0"/>
        <pt x="212" y="454" on="0"/>
        <pt x="177" y="352" on="0"/>
        <pt x="177" y="304" on="1"/>
        <pt x="177" y="266" on="0"/>
        <pt x="197" y="198" on="0"/>
        <pt x="235" y="146" on="0"/>
        <pt x="290" y="116" on="0"/>
        <pt x="326" y="116" on="1"/>
        <pt x="348" y="116" on="0"/>
        <pt x="399" y="128" on="0"/>
        <pt x="448" y="154" on="0"/>
        <pt x="493" y="195" on="0"/>
        <pt x="511" y="224" on="1"/>
        <pt x="610" y="159" on="1"/>
        <pt x="586" y="119" on="0"/>
        <pt x="513" y="58" on="0"/>
        <pt x="428" y="16" on="0"/>
        <pt x="337" y="-6" on="0"/>
      </contour>
    </TTGlyph>
    <TTGlyph name="Ccedilla" xMin="35" yMin="-196" xMax="683" yMax="714">
      <contour>
        <pt x="185" y="-127" on="1"/>
        <pt x="195" y="-134" on="0"/>
        <pt x="240" y="-146" on="0"/>
        <pt x="266" y="-146" on="1"/>
        <pt x="293" y="-146" on="0"/>
        <pt x="327" y="-128" on="0"/>
        <pt x="327" y="-107" on="1"/>
        <pt x="327" y="-92" on="0"/>
        <pt x="303" y="-80" on="0"/>
        <pt x="283" y="-80" on="1"/>
        <pt x="263" y="-80" on="0"/>
        <pt x="217" y="-89" on="0"/>
        <pt x="205" y="-92" on="1"/>
        <pt x="265" y="-4" on="1"/>
        <pt x="210" y="2" on="0"/>
        <pt x="124" y="56" on="0"/>
        <pt x="66" y="138" on="0"/>
        <pt x="35" y="241" on="0"/>
        <pt x="35" y="296" on="1"/>
        <pt x="35" y="345" on="0"/>
        <pt x="63" y="445" on="0"/>
        <pt x="116" y="538" on="0"/>
        <pt x="191" y="619" on="0"/>
        <pt x="284" y="679" on="0"/>
        <pt x="392" y="714" on="0"/>
        <pt x="452" y="714" on="1"/>
        <pt x="546" y="714" on="0"/>
        <pt x="665" y="628" on="0"/>
        <pt x="683" y="559" on="1"/>
        <pt x="562" y="486" on="1"/>
        <pt x="556" y="516" on="0"/>
        <pt x="528" y="557" on="0"/>
        <pt x="489" y="581" on="0"/>
        <pt x="444" y="592" on="0"/>
        <pt x="422" y="592" on="1"/>
        <pt x="366" y="592" on="0"/>
        <pt x="274" y="538" on="0"/>
        <pt x="210" y="454" on="0"/>
        <pt x="175" y="352" on="0"/>
        <pt x="175" y="304" on="1"/>
        <pt x="175" y="266" on="0"/>
        <pt x="195" y="198" on="0"/>
        <pt x="233" y="146" on="0"/>
        <pt x="288" y="116" on="0"/>
        <pt x="324" y="116" on="1"/>
        <pt x="346" y="116" on="0"/>
        <pt x="397" y="128" on="0"/>
        <pt x="446" y="154" on="0"/>
        <pt x="491" y="195" on="0"/>
        <pt x="509" y="224" on="1"/>
        <pt x="608" y="159" on="1"/>
        <pt x="586" y="123" on="0"/>
        <pt x="521" y="65" on="0"/>
        <pt x="444" y="23" on="0"/>
        <pt x="362" y="-1" on="0"/>
        <pt x="323" y="-4" on="1"/>
        <pt x="292" y="-42" on="1"/>
        <pt x="299" y="-40" on="0"/>
        <pt x="315" y="-38" on="0"/>
        <pt x="323" y="-38" on="1"/>
        <pt x="352" y="-38" on="0"/>
        <pt x="391" y="-65" on="0"/>
        <pt x="391" y="-94" on="1"/>
        <pt x="391" y="-137" on="0"/>
        <pt x="319" y="-196" on="0"/>
        <pt x="246" y="-196" on="1"/>
        <pt x="214" y="-196" on="0"/>
        <pt x="165" y="-184" on="0"/>
        <pt x="148" y="-176" on="1"/>
      </contour>
    </TTGlyph>
    <TTGlyph name="Ccircumflex" xMin="37" yMin="-6" xMax="685" yMax="916">
      <contour>
        <pt x="331" y="815" on="1"/>
        <pt x="454" y="916" on="1"/>
        <pt x="551" y="916" on="1"/>
        <pt x="631" y="815" on="1"/>
        <pt x="554" y="783" on="1"/>
        <pt x="487" y="846" on="1"/>
        <pt x="393" y="783" on="1"/>
      </contour>
      <contour>
        <pt x="296" y="-6" on="1"/>
        <pt x="234" y="-6" on="0"/>
        <pt x="138" y="45" on="0"/>
        <pt x="72" y="129" on="0"/>
        <pt x="37" y="238" on="0"/>
        <pt x="37" y="296" on="1"/>
        <pt x="37" y="345" on="0"/>
        <pt x="65" y="445" on="0"/>
        <pt x="118" y="538" on="0"/>
        <pt x="193" y="619" on="0"/>
        <pt x="286" y="679" on="0"/>
        <pt x="394" y="714" on="0"/>
        <pt x="454" y="714" on="1"/>
        <pt x="548" y="714" on="0"/>
        <pt x="667" y="628" on="0"/>
        <pt x="685" y="559" on="1"/>
        <pt x="564" y="486" on="1"/>
        <pt x="558" y="516" on="0"/>
        <pt x="530" y="557" on="0"/>
        <pt x="491" y="581" on="0"/>
        <pt x="446" y="592" on="0"/>
        <pt x="424" y="592" on="1"/>
        <pt x="368" y="592" on="0"/>
        <pt x="276" y="538" on="0"/>
        <pt x="212" y="454" on="0"/>
        <pt x="177" y="352" on="0"/>
        <pt x="177" y="304" on="1"/>
        <pt x="177" y="266" on="0"/>
        <pt x="197" y="198" on="0"/>
        <pt x="235" y="146" on="0"/>
        <pt x="290" y="116" on="0"/>
        <pt x="326" y="116" on="1"/>
        <pt x="348" y="116" on="0"/>
        <pt x="399" y="128" on="0"/>
        <pt x="448" y="154" on="0"/>
        <pt x="493" y="195" on="0"/>
        <pt x="511" y="224" on="1"/>
        <pt x="610" y="159" on="1"/>
        <pt x="586" y="119" on="0"/>
        <pt x="513" y="58" on="0"/>
        <pt x="428" y="16" on="0"/>
        <pt x="337" y="-6" on="0"/>
      </contour>
    </TTGlyph>
    <TTGlyph name="Cdotaccent" xMin="37" yMin="-6" xMax="685" yMax="916">
      <contour>
        <pt x="296" y="-6" on="1"/>
        <pt x="234" y="-6" on="0"/>
        <pt x="138" y="45" on="0"/>
        <pt x="72" y="129" on="0"/>
        <pt x="37" y="238" on="0"/>
        <pt x="37" y="296" on="1"/>
        <pt x="37" y="345" on="0"/>
        <pt x="65" y="445" on="0"/>
        <pt x="118" y="538" on="0"/>
        <pt x="193" y="619" on="0"/>
        <pt x="286" y="679" on="0"/>
        <pt x="394" y="714" on="0"/>
        <pt x="454" y="714" on="1"/>
        <pt x="548" y="714" on="0"/>
        <pt x="667" y="628" on="0"/>
        <pt x="685" y="559" on="1"/>
        <pt x="564" y="486" on="1"/>
        <pt x="558" y="516" on="0"/>
        <pt x="530" y="557" on="0"/>
        <pt x="491" y="581" on="0"/>
        <pt x="446" y="592" on="0"/>
        <pt x="424" y="592" on="1"/>
        <pt x="368" y="592" on="0"/>
        <pt x="276" y="538" on="0"/>
        <pt x="212" y="454" on="0"/>
        <pt x="177" y="352" on="0"/>
        <pt x="177" y="304" on="1"/>
        <pt x="177" y="266" on="0"/>
        <pt x="197" y="198" on="0"/>
        <pt x="235" y="146" on="0"/>
        <pt x="290" y="116" on="0"/>
        <pt x="326" y="116" on="1"/>
        <pt x="348" y="116" on="0"/>
        <pt x="399" y="128" on="0"/>
        <pt x="448" y="154" on="0"/>
        <pt x="493" y="195" on="0"/>
        <pt x="511" y="224" on="1"/>
        <pt x="610" y="159" on="1"/>
        <pt x="586" y="119" on="0"/>
        <pt x="513" y="58" on="0"/>
        <pt x="428" y="16" on="0"/>
        <pt x="337" y="-6" on="0"/>
      </contour>
      <contour>
        <pt x="416" y="790" on="1"/>
        <pt x="443" y="916" on="1"/>
        <pt x="563" y="916" on="1"/>
        <pt x="537" y="790" on="1"/>
      </contour>
    </TTGlyph>
    <TTGlyph name="D" xMin="10" yMin="0" xMax="676" yMax="710">
      <contour>
        <pt x="161" y="710" on="1"/>
        <pt x="408" y="710" on="1"/>
        <pt x="477" y="710" on="0"/>
        <pt x="578" y="667" on="0"/>
        <pt x="644" y="593" on="0"/>
        <pt x="676" y="493" on="0"/>
        <pt x="676" y="435" on="1"/>
        <pt x="676" y="341" on="0"/>
        <pt x="613" y="182" on="0"/>
        <pt x="500" y="66" on="0"/>
        <pt x="347" y="0" on="0"/>
        <pt x="257" y="0" on="1"/>
        <pt x="10" y="0" on="1"/>
      </contour>
      <contour>
        <pt x="282" y="121" on="1"/>
        <pt x="339" y="121" on="0"/>
        <pt x="432" y="169" on="0"/>
        <pt x="498" y="250" on="0"/>
        <pt x="534" y="356" on="0"/>
        <pt x="534" y="415" on="1"/>
        <pt x="534" y="493" on="0"/>
        <pt x="457" y="589" on="0"/>
        <pt x="382" y="589" on="1"/>
        <pt x="272" y="589" on="1"/>
        <pt x="173" y="121" on="1"/>
      </contour>
    </TTGlyph>
    <TTGlyph name="D.sc" xMin="4" yMin="0" xMax="580" yMax="559">
      <contour>
        <pt x="122" y="559" on="1"/>
        <pt x="339" y="559" on="1"/>
        <pt x="400" y="559" on="0"/>
        <pt x="491" y="524" on="0"/>
        <pt x="551" y="464" on="0"/>
        <pt x="580" y="383" on="0"/>
        <pt x="580" y="337" on="1"/>
        <pt x="580" y="263" on="0"/>
        <pt x="525" y="140" on="0"/>
        <pt x="429" y="50" on="0"/>
        <pt x="298" y="0" on="0"/>
        <pt x="221" y="0" on="1"/>
        <pt x="4" y="0" on="1"/>
      </contour>
      <contour>
        <pt x="243" y="106" on="1"/>
        <pt x="292" y="106" on="0"/>
        <pt x="370" y="140" on="0"/>
        <pt x="425" y="198" on="0"/>
        <pt x="455" y="275" on="0"/>
        <pt x="455" y="318" on="1"/>
        <pt x="455" y="378" on="0"/>
        <pt x="385" y="453" on="0"/>
        <pt x="317" y="453" on="1"/>
        <pt x="220" y="453" on="1"/>
        <pt x="146" y="106" on="1"/>
      </contour>
    </TTGlyph>
    <TTGlyph name="Dcaron" xMin="10" yMin="0" xMax="676" yMax="916">
      <contour>
        <pt x="283" y="884" on="1"/>
        <pt x="360" y="916" on="1"/>
        <pt x="427" y="853" on="1"/>
        <pt x="521" y="916" on="1"/>
        <pt x="584" y="884" on="1"/>
        <pt x="460" y="783" on="1"/>
        <pt x="363" y="783" on="1"/>
      </contour>
      <contour>
        <pt x="161" y="710" on="1"/>
        <pt x="408" y="710" on="1"/>
        <pt x="477" y="710" on="0"/>
        <pt x="578" y="667" on="0"/>
        <pt x="644" y="593" on="0"/>
        <pt x="676" y="493" on="0"/>
        <pt x="676" y="435" on="1"/>
        <pt x="676" y="341" on="0"/>
        <pt x="613" y="182" on="0"/>
        <pt x="500" y="66" on="0"/>
        <pt x="347" y="0" on="0"/>
        <pt x="257" y="0" on="1"/>
        <pt x="10" y="0" on="1"/>
      </contour>
      <contour>
        <pt x="282" y="121" on="1"/>
        <pt x="339" y="121" on="0"/>
        <pt x="432" y="169" on="0"/>
        <pt x="498" y="250" on="0"/>
        <pt x="534" y="356" on="0"/>
        <pt x="534" y="415" on="1"/>
        <pt x="534" y="493" on="0"/>
        <pt x="457" y="589" on="0"/>
        <pt x="382" y="589" on="1"/>
        <pt x="272" y="589" on="1"/>
        <pt x="173" y="121" on="1"/>
      </contour>
    </TTGlyph>
    <TTGlyph name="Dcroat" xMin="15" yMin="0" xMax="681" yMax="710">
      <contour>
        <pt x="57" y="407" on="1"/>
        <pt x="101" y="407" on="1"/>
        <pt x="166" y="710" on="1"/>
        <pt x="413" y="710" on="1"/>
        <pt x="482" y="710" on="0"/>
        <pt x="583" y="667" on="0"/>
        <pt x="649" y="593" on="0"/>
        <pt x="681" y="493" on="0"/>
        <pt x="681" y="435" on="1"/>
        <pt x="681" y="341" on="0"/>
        <pt x="618" y="182" on="0"/>
        <pt x="505" y="66" on="0"/>
        <pt x="352" y="0" on="0"/>
        <pt x="262" y="0" on="1"/>
        <pt x="15" y="0" on="1"/>
        <pt x="80" y="307" on="1"/>
        <pt x="36" y="307" on="1"/>
      </contour>
      <contour>
        <pt x="288" y="121" on="1"/>
        <pt x="345" y="121" on="0"/>
        <pt x="438" y="169" on="0"/>
        <pt x="504" y="250" on="0"/>
        <pt x="540" y="356" on="0"/>
        <pt x="540" y="415" on="1"/>
        <pt x="540" y="454" on="0"/>
        <pt x="520" y="518" on="0"/>
        <pt x="482" y="564" on="0"/>
        <pt x="424" y="589" on="0"/>
        <pt x="387" y="589" on="1"/>
        <pt x="278" y="589" on="1"/>
        <pt x="239" y="407" on="1"/>
        <pt x="369" y="407" on="1"/>
        <pt x="347" y="307" on="1"/>
        <pt x="217" y="307" on="1"/>
        <pt x="178" y="121" on="1"/>
      </contour>
    </TTGlyph>
    <TTGlyph name="Ddotbelow" xMin="10" yMin="-196" xMax="676" yMax="710">
      <contour>
        <pt x="166" y="-196" on="1"/>
        <pt x="193" y="-70" on="1"/>
        <pt x="313" y="-70" on="1"/>
        <pt x="286" y="-196" on="1"/>
      </contour>
      <contour>
        <pt x="161" y="710" on="1"/>
        <pt x="408" y="710" on="1"/>
        <pt x="477" y="710" on="0"/>
        <pt x="578" y="667" on="0"/>
        <pt x="644" y="593" on="0"/>
        <pt x="676" y="493" on="0"/>
        <pt x="676" y="435" on="1"/>
        <pt x="676" y="341" on="0"/>
        <pt x="613" y="182" on="0"/>
        <pt x="500" y="66" on="0"/>
        <pt x="347" y="0" on="0"/>
        <pt x="257" y="0" on="1"/>
        <pt x="10" y="0" on="1"/>
      </contour>
      <contour>
        <pt x="282" y="121" on="1"/>
        <pt x="339" y="121" on="0"/>
        <pt x="432" y="169" on="0"/>
        <pt x="498" y="250" on="0"/>
        <pt x="534" y="356" on="0"/>
        <pt x="534" y="415" on="1"/>
        <pt x="534" y="493" on="0"/>
        <pt x="457" y="589" on="0"/>
        <pt x="382" y="589" on="1"/>
        <pt x="272" y="589" on="1"/>
        <pt x="173" y="121" on="1"/>
      </contour>
    </TTGlyph>
    <TTGlyph name="Delta" xMin="0" yMin="0" xMax="615" yMax="710">
      <contour>
        <pt x="615" y="104" on="1"/>
        <pt x="615" y="0" on="1"/>
        <pt x="0" y="0" on="1"/>
        <pt x="0" y="104" on="1"/>
        <pt x="252" y="710" on="1"/>
        <pt x="364" y="710" on="1"/>
      </contour>
      <contour>
        <pt x="478" y="121" on="1"/>
        <pt x="308" y="557" on="1"/>
        <pt x="140" y="121" on="1"/>
      </contour>
    </TTGlyph>
    <TTGlyph name="E" xMin="10" yMin="0" xMax="621" yMax="710">
      <contour>
        <pt x="161" y="710" on="1"/>
        <pt x="621" y="710" on="1"/>
        <pt x="596" y="589" on="1"/>
        <pt x="272" y="589" on="1"/>
        <pt x="236" y="418" on="1"/>
        <pt x="515" y="418" on="1"/>
        <pt x="491" y="306" on="1"/>
        <pt x="212" y="306" on="1"/>
        <pt x="173" y="121" on="1"/>
        <pt x="505" y="121" on="1"/>
        <pt x="479" y="0" on="1"/>
        <pt x="10" y="0" on="1"/>
      </contour>
    </TTGlyph>
    <TTGlyph name="E.sc" xMin="4" yMin="0" xMax="527" yMax="559">
      <contour>
        <pt x="122" y="559" on="1"/>
        <pt x="527" y="559" on="1"/>
        <pt x="505" y="453" on="1"/>
        <pt x="220" y="453" on="1"/>
        <pt x="195" y="334" on="1"/>
        <pt x="441" y="334" on="1"/>
        <pt x="420" y="235" on="1"/>
        <pt x="175" y="235" on="1"/>
        <pt x="146" y="106" on="1"/>
        <pt x="438" y="106" on="1"/>
        <pt x="416" y="0" on="1"/>
        <pt x="4" y="0" on="1"/>
      </contour>
    </TTGlyph>
    <TTGlyph name="Eacute" xMin="10" yMin="0" xMax="621" yMax="916">
      <contour>
        <pt x="431" y="780" on="1"/>
        <pt x="344" y="797" on="1"/>
        <pt x="420" y="916" on="1"/>
        <pt x="544" y="916" on="1"/>
      </contour>
      <contour>
        <pt x="161" y="710" on="1"/>
        <pt x="621" y="710" on="1"/>
        <pt x="596" y="589" on="1"/>
        <pt x="272" y="589" on="1"/>
        <pt x="236" y="418" on="1"/>
        <pt x="515" y="418" on="1"/>
        <pt x="491" y="306" on="1"/>
        <pt x="212" y="306" on="1"/>
        <pt x="173" y="121" on="1"/>
        <pt x="505" y="121" on="1"/>
        <pt x="479" y="0" on="1"/>
        <pt x="10" y="0" on="1"/>
      </contour>
    </TTGlyph>
    <TTGlyph name="Ebreve" xMin="10" yMin="0" xMax="621" yMax="916">
      <contour>
        <pt x="161" y="710" on="1"/>
        <pt x="621" y="710" on="1"/>
        <pt x="596" y="589" on="1"/>
        <pt x="272" y="589" on="1"/>
        <pt x="236" y="418" on="1"/>
        <pt x="515" y="418" on="1"/>
        <pt x="491" y="306" on="1"/>
        <pt x="212" y="306" on="1"/>
        <pt x="173" y="121" on="1"/>
        <pt x="505" y="121" on="1"/>
        <pt x="479" y="0" on="1"/>
        <pt x="10" y="0" on="1"/>
      </contour>
      <contour>
        <pt x="409" y="842" on="1"/>
        <pt x="430" y="842" on="0"/>
        <pt x="471" y="884" on="0"/>
        <pt x="481" y="916" on="1"/>
        <pt x="553" y="916" on="1"/>
        <pt x="547" y="887" on="0"/>
        <pt x="517" y="838" on="0"/>
        <pt x="476" y="802" on="0"/>
        <pt x="425" y="782" on="0"/>
        <pt x="397" y="782" on="1"/>
        <pt x="348" y="782" on="0"/>
        <pt x="293" y="838" on="0"/>
        <pt x="293" y="883" on="1"/>
        <pt x="293" y="901" on="0"/>
        <pt x="297" y="916" on="1"/>
        <pt x="369" y="916" on="1"/>
        <pt x="366" y="905" on="0"/>
        <pt x="366" y="896" on="1"/>
        <pt x="366" y="873" on="0"/>
        <pt x="390" y="842" on="0"/>
      </contour>
    </TTGlyph>
    <TTGlyph name="Ecaron" xMin="10" yMin="0" xMax="621" yMax="916">
      <contour>
        <pt x="271" y="884" on="1"/>
        <pt x="348" y="916" on="1"/>
        <pt x="415" y="853" on="1"/>
        <pt x="509" y="916" on="1"/>
        <pt x="572" y="884" on="1"/>
        <pt x="448" y="783" on="1"/>
        <pt x="351" y="783" on="1"/>
      </contour>
      <contour>
        <pt x="161" y="710" on="1"/>
        <pt x="621" y="710" on="1"/>
        <pt x="596" y="589" on="1"/>
        <pt x="272" y="589" on="1"/>
        <pt x="236" y="418" on="1"/>
        <pt x="515" y="418" on="1"/>
        <pt x="491" y="306" on="1"/>
        <pt x="212" y="306" on="1"/>
        <pt x="173" y="121" on="1"/>
        <pt x="505" y="121" on="1"/>
        <pt x="479" y="0" on="1"/>
        <pt x="10" y="0" on="1"/>
      </contour>
    </TTGlyph>
    <TTGlyph name="Ecircumflex" xMin="10" yMin="0" xMax="621" yMax="916">
      <contour>
        <pt x="264" y="815" on="1"/>
        <pt x="387" y="916" on="1"/>
        <pt x="484" y="916" on="1"/>
        <pt x="564" y="815" on="1"/>
        <pt x="487" y="783" on="1"/>
        <pt x="420" y="846" on="1"/>
        <pt x="326" y="783" on="1"/>
      </contour>
      <contour>
        <pt x="161" y="710" on="1"/>
        <pt x="621" y="710" on="1"/>
        <pt x="596" y="589" on="1"/>
        <pt x="272" y="589" on="1"/>
        <pt x="236" y="418" on="1"/>
        <pt x="515" y="418" on="1"/>
        <pt x="491" y="306" on="1"/>
        <pt x="212" y="306" on="1"/>
        <pt x="173" y="121" on="1"/>
        <pt x="505" y="121" on="1"/>
        <pt x="479" y="0" on="1"/>
        <pt x="10" y="0" on="1"/>
      </contour>
    </TTGlyph>
    <TTGlyph name="Edblgrave" xMin="10" yMin="0" xMax="621" yMax="918">
      <contour>
        <pt x="422" y="918" on="1"/>
        <pt x="524" y="918" on="1"/>
        <pt x="544" y="799" on="1"/>
        <pt x="471" y="781" on="1"/>
      </contour>
      <contour>
        <pt x="265" y="918" on="1"/>
        <pt x="369" y="918" on="1"/>
        <pt x="387" y="799" on="1"/>
        <pt x="315" y="781" on="1"/>
      </contour>
      <contour>
        <pt x="161" y="710" on="1"/>
        <pt x="621" y="710" on="1"/>
        <pt x="596" y="589" on="1"/>
        <pt x="272" y="589" on="1"/>
        <pt x="236" y="418" on="1"/>
        <pt x="515" y="418" on="1"/>
        <pt x="491" y="306" on="1"/>
        <pt x="212" y="306" on="1"/>
        <pt x="173" y="121" on="1"/>
        <pt x="505" y="121" on="1"/>
        <pt x="479" y="0" on="1"/>
        <pt x="10" y="0" on="1"/>
      </contour>
    </TTGlyph>
    <TTGlyph name="Edieresis" xMin="10" yMin="0" xMax="621" yMax="910">
      <contour>
        <pt x="258" y="791" on="1"/>
        <pt x="284" y="910" on="1"/>
        <pt x="395" y="910" on="1"/>
        <pt x="369" y="791" on="1"/>
      </contour>
      <contour>
        <pt x="446" y="791" on="1"/>
        <pt x="471" y="910" on="1"/>
        <pt x="581" y="910" on="1"/>
        <pt x="557" y="791" on="1"/>
      </contour>
      <contour>
        <pt x="161" y="710" on="1"/>
        <pt x="621" y="710" on="1"/>
        <pt x="596" y="589" on="1"/>
        <pt x="272" y="589" on="1"/>
        <pt x="236" y="418" on="1"/>
        <pt x="515" y="418" on="1"/>
        <pt x="491" y="306" on="1"/>
        <pt x="212" y="306" on="1"/>
        <pt x="173" y="121" on="1"/>
        <pt x="505" y="121" on="1"/>
        <pt x="479" y="0" on="1"/>
        <pt x="10" y="0" on="1"/>
      </contour>
    </TTGlyph>
    <TTGlyph name="Edotaccent" xMin="10" yMin="0" xMax="621" yMax="916">
      <contour>
        <pt x="161" y="710" on="1"/>
        <pt x="621" y="710" on="1"/>
        <pt x="596" y="589" on="1"/>
        <pt x="272" y="589" on="1"/>
        <pt x="236" y="418" on="1"/>
        <pt x="515" y="418" on="1"/>
        <pt x="491" y="306" on="1"/>
        <pt x="212" y="306" on="1"/>
        <pt x="173" y="121" on="1"/>
        <pt x="505" y="121" on="1"/>
        <pt x="479" y="0" on="1"/>
        <pt x="10" y="0" on="1"/>
      </contour>
      <contour>
        <pt x="346" y="790" on="1"/>
        <pt x="373" y="916" on="1"/>
        <pt x="493" y="916" on="1"/>
        <pt x="467" y="790" on="1"/>
      </contour>
    </TTGlyph>
    <TTGlyph name="Edotbelow" xMin="10" yMin="-196" xMax="621" yMax="710">
      <contour>
        <pt x="161" y="710" on="1"/>
        <pt x="621" y="710" on="1"/>
        <pt x="596" y="589" on="1"/>
        <pt x="272" y="589" on="1"/>
        <pt x="236" y="418" on="1"/>
        <pt x="515" y="418" on="1"/>
        <pt x="491" y="306" on="1"/>
        <pt x="212" y="306" on="1"/>
        <pt x="173" y="121" on="1"/>
        <pt x="505" y="121" on="1"/>
        <pt x="479" y="0" on="1"/>
        <pt x="10" y="0" on="1"/>
      </contour>
      <contour>
        <pt x="137" y="-196" on="1"/>
        <pt x="164" y="-70" on="1"/>
        <pt x="284" y="-70" on="1"/>
        <pt x="257" y="-196" on="1"/>
      </contour>
    </TTGlyph>
    <TTGlyph name="Egrave" xMin="10" yMin="0" xMax="621" yMax="917">
      <contour>
        <pt x="161" y="710" on="1"/>
        <pt x="621" y="710" on="1"/>
        <pt x="596" y="589" on="1"/>
        <pt x="272" y="589" on="1"/>
        <pt x="236" y="418" on="1"/>
        <pt x="515" y="418" on="1"/>
        <pt x="491" y="306" on="1"/>
        <pt x="212" y="306" on="1"/>
        <pt x="173" y="121" on="1"/>
        <pt x="505" y="121" on="1"/>
        <pt x="479" y="0" on="1"/>
        <pt x="10" y="0" on="1"/>
      </contour>
      <contour>
        <pt x="325" y="917" on="1"/>
        <pt x="448" y="917" on="1"/>
        <pt x="474" y="798" on="1"/>
        <pt x="381" y="780" on="1"/>
      </contour>
    </TTGlyph>
    <TTGlyph name="Einvertedbreve" xMin="10" yMin="0" xMax="621" yMax="916">
      <contour>
        <pt x="281" y="782" on="1"/>
        <pt x="287" y="811" on="0"/>
        <pt x="316" y="860" on="0"/>
        <pt x="358" y="896" on="0"/>
        <pt x="409" y="916" on="0"/>
        <pt x="436" y="916" on="1"/>
        <pt x="485" y="916" on="0"/>
        <pt x="539" y="856" on="0"/>
        <pt x="539" y="812" on="1"/>
        <pt x="539" y="797" on="0"/>
        <pt x="536" y="782" on="1"/>
        <pt x="465" y="782" on="1"/>
        <pt x="466" y="790" on="0"/>
        <pt x="467" y="804" on="0"/>
        <pt x="467" y="810" on="1"/>
        <pt x="467" y="856" on="0"/>
        <pt x="425" y="856" on="1"/>
        <pt x="367" y="856" on="0"/>
        <pt x="352" y="782" on="1"/>
      </contour>
      <contour>
        <pt x="161" y="710" on="1"/>
        <pt x="621" y="710" on="1"/>
        <pt x="596" y="589" on="1"/>
        <pt x="272" y="589" on="1"/>
        <pt x="236" y="418" on="1"/>
        <pt x="515" y="418" on="1"/>
        <pt x="491" y="306" on="1"/>
        <pt x="212" y="306" on="1"/>
        <pt x="173" y="121" on="1"/>
        <pt x="505" y="121" on="1"/>
        <pt x="479" y="0" on="1"/>
        <pt x="10" y="0" on="1"/>
      </contour>
    </TTGlyph>
    <TTGlyph name="Emacron" xMin="10" yMin="0" xMax="621" yMax="901">
      <contour>
        <pt x="161" y="710" on="1"/>
        <pt x="621" y="710" on="1"/>
        <pt x="596" y="589" on="1"/>
        <pt x="272" y="589" on="1"/>
        <pt x="236" y="418" on="1"/>
        <pt x="515" y="418" on="1"/>
        <pt x="491" y="306" on="1"/>
        <pt x="212" y="306" on="1"/>
        <pt x="173" y="121" on="1"/>
        <pt x="505" y="121" on="1"/>
        <pt x="479" y="0" on="1"/>
        <pt x="10" y="0" on="1"/>
      </contour>
      <contour>
        <pt x="269" y="818" on="1"/>
        <pt x="287" y="901" on="1"/>
        <pt x="573" y="901" on="1"/>
        <pt x="555" y="818" on="1"/>
      </contour>
    </TTGlyph>
    <TTGlyph name="Eng" xMin="10" yMin="-196" xMax="733" yMax="710">
      <contour>
        <pt x="364" y="-196" on="1"/>
        <pt x="328" y="-196" on="0"/>
        <pt x="267" y="-173" on="0"/>
        <pt x="246" y="-149" on="1"/>
        <pt x="323" y="-58" on="1"/>
        <pt x="331" y="-69" on="0"/>
        <pt x="358" y="-80" on="0"/>
        <pt x="372" y="-80" on="1"/>
        <pt x="397" y="-80" on="0"/>
        <pt x="439" y="-43" on="0"/>
        <pt x="445" y="-14" on="1"/>
        <pt x="454" y="28" on="1"/>
        <pt x="243" y="451" on="1"/>
        <pt x="147" y="0" on="1"/>
        <pt x="10" y="0" on="1"/>
        <pt x="161" y="710" on="1"/>
        <pt x="266" y="710" on="1"/>
        <pt x="498" y="250" on="1"/>
        <pt x="595" y="709" on="1"/>
        <pt x="733" y="709" on="1"/>
        <pt x="580" y="-9" on="1"/>
        <pt x="571" y="-51" on="0"/>
        <pt x="528" y="-120" on="0"/>
        <pt x="470" y="-169" on="0"/>
        <pt x="400" y="-196" on="0"/>
      </contour>
    </TTGlyph>
    <TTGlyph name="Eogonek" xMin="10" yMin="-196" xMax="621" yMax="710">
      <contour>
        <pt x="161" y="710" on="1"/>
        <pt x="621" y="710" on="1"/>
        <pt x="596" y="589" on="1"/>
        <pt x="272" y="589" on="1"/>
        <pt x="236" y="418" on="1"/>
        <pt x="515" y="418" on="1"/>
        <pt x="491" y="306" on="1"/>
        <pt x="212" y="306" on="1"/>
        <pt x="173" y="121" on="1"/>
        <pt x="505" y="121" on="1"/>
        <pt x="479" y="0" on="1"/>
        <pt x="290" y="0" on="1"/>
        <pt x="198" y="-53" on="0"/>
        <pt x="198" y="-91" on="1"/>
        <pt x="198" y="-123" on="0"/>
        <pt x="250" y="-126" on="1"/>
        <pt x="208" y="-196" on="1"/>
        <pt x="158" y="-188" on="0"/>
        <pt x="111" y="-147" on="0"/>
        <pt x="111" y="-120" on="1"/>
        <pt x="111" y="-58" on="0"/>
        <pt x="214" y="0" on="1"/>
        <pt x="10" y="0" on="1"/>
      </contour>
    </TTGlyph>
    <TTGlyph name="Eth" xMin="15" yMin="0" xMax="681" yMax="710">
      <contour>
        <pt x="57" y="407" on="1"/>
        <pt x="101" y="407" on="1"/>
        <pt x="166" y="710" on="1"/>
        <pt x="413" y="710" on="1"/>
        <pt x="482" y="710" on="0"/>
        <pt x="583" y="667" on="0"/>
        <pt x="649" y="593" on="0"/>
        <pt x="681" y="493" on="0"/>
        <pt x="681" y="435" on="1"/>
        <pt x="681" y="341" on="0"/>
        <pt x="618" y="182" on="0"/>
        <pt x="505" y="66" on="0"/>
        <pt x="352" y="0" on="0"/>
        <pt x="262" y="0" on="1"/>
        <pt x="15" y="0" on="1"/>
        <pt x="80" y="307" on="1"/>
        <pt x="36" y="307" on="1"/>
      </contour>
      <contour>
        <pt x="288" y="121" on="1"/>
        <pt x="345" y="121" on="0"/>
        <pt x="438" y="169" on="0"/>
        <pt x="504" y="250" on="0"/>
        <pt x="540" y="356" on="0"/>
        <pt x="540" y="415" on="1"/>
        <pt x="540" y="454" on="0"/>
        <pt x="520" y="518" on="0"/>
        <pt x="482" y="564" on="0"/>
        <pt x="424" y="589" on="0"/>
        <pt x="387" y="589" on="1"/>
        <pt x="278" y="589" on="1"/>
        <pt x="239" y="407" on="1"/>
        <pt x="369" y="407" on="1"/>
        <pt x="347" y="307" on="1"/>
        <pt x="217" y="307" on="1"/>
        <pt x="178" y="121" on="1"/>
      </contour>
    </TTGlyph>
    <TTGlyph name="Etilde" xMin="10" yMin="0" xMax="621" yMax="916">
      <contour>
        <pt x="161" y="710" on="1"/>
        <pt x="621" y="710" on="1"/>
        <pt x="596" y="589" on="1"/>
        <pt x="272" y="589" on="1"/>
        <pt x="236" y="418" on="1"/>
        <pt x="515" y="418" on="1"/>
        <pt x="491" y="306" on="1"/>
        <pt x="212" y="306" on="1"/>
        <pt x="173" y="121" on="1"/>
        <pt x="505" y="121" on="1"/>
        <pt x="479" y="0" on="1"/>
        <pt x="10" y="0" on="1"/>
      </contour>
      <contour>
        <pt x="463" y="788" on="1"/>
        <pt x="442" y="788" on="0"/>
        <pt x="412" y="802" on="0"/>
        <pt x="387" y="819" on="0"/>
        <pt x="363" y="833" on="0"/>
        <pt x="347" y="833" on="1"/>
        <pt x="331" y="833" on="0"/>
        <pt x="310" y="819" on="0"/>
        <pt x="298" y="801" on="0"/>
        <pt x="293" y="786" on="0"/>
        <pt x="293" y="785" on="1"/>
        <pt x="219" y="785" on="1"/>
        <pt x="221" y="794" on="0"/>
        <pt x="241" y="837" on="0"/>
        <pt x="277" y="880" on="0"/>
        <pt x="328" y="913" on="0"/>
        <pt x="360" y="913" on="1"/>
        <pt x="382" y="913" on="0"/>
        <pt x="410" y="898" on="0"/>
        <pt x="434" y="881" on="0"/>
        <pt x="458" y="866" on="0"/>
        <pt x="475" y="866" on="1"/>
        <pt x="492" y="866" on="0"/>
        <pt x="515" y="880" on="0"/>
        <pt x="529" y="898" on="0"/>
        <pt x="536" y="914" on="0"/>
        <pt x="536" y="916" on="1"/>
        <pt x="609" y="916" on="1"/>
        <pt x="607" y="909" on="0"/>
        <pt x="587" y="867" on="0"/>
        <pt x="550" y="823" on="0"/>
        <pt x="497" y="788" on="0"/>
      </contour>
    </TTGlyph>
    <TTGlyph name="Euro" xMin="22" yMin="-6" xMax="765" yMax="714">
      <contour>
        <pt x="147" y="441" on="1"/>
        <pt x="170" y="496" on="0"/>
        <pt x="246" y="595" on="0"/>
        <pt x="345" y="670" on="0"/>
        <pt x="466" y="714" on="0"/>
        <pt x="534" y="714" on="1"/>
        <pt x="628" y="714" on="0"/>
        <pt x="746" y="628" on="0"/>
        <pt x="765" y="559" on="1"/>
        <pt x="643" y="486" on="1"/>
        <pt x="637" y="516" on="0"/>
        <pt x="609" y="557" on="0"/>
        <pt x="571" y="581" on="0"/>
        <pt x="526" y="592" on="0"/>
        <pt x="504" y="592" on="1"/>
        <pt x="467" y="592" on="0"/>
        <pt x="402" y="568" on="0"/>
        <pt x="348" y="527" on="0"/>
        <pt x="305" y="472" on="0"/>
        <pt x="290" y="441" on="1"/>
        <pt x="530" y="441" on="1"/>
        <pt x="485" y="367" on="1"/>
        <pt x="264" y="367" on="1"/>
        <pt x="261" y="354" on="0"/>
        <pt x="258" y="328" on="0"/>
        <pt x="257" y="316" on="1"/>
        <pt x="473" y="316" on="1"/>
        <pt x="428" y="242" on="1"/>
        <pt x="264" y="242" on="1"/>
        <pt x="278" y="188" on="0"/>
        <pt x="348" y="116" on="0"/>
        <pt x="405" y="116" on="1"/>
        <pt x="427" y="116" on="0"/>
        <pt x="478" y="128" on="0"/>
        <pt x="527" y="154" on="0"/>
        <pt x="572" y="195" on="0"/>
        <pt x="590" y="224" on="1"/>
        <pt x="689" y="159" on="1"/>
        <pt x="665" y="119" on="0"/>
        <pt x="592" y="58" on="0"/>
        <pt x="507" y="16" on="0"/>
        <pt x="416" y="-6" on="0"/>
        <pt x="375" y="-6" on="1"/>
        <pt x="320" y="-6" on="0"/>
        <pt x="233" y="34" on="0"/>
        <pt x="168" y="102" on="0"/>
        <pt x="128" y="192" on="0"/>
        <pt x="121" y="242" on="1"/>
        <pt x="22" y="242" on="1"/>
        <pt x="67" y="316" on="1"/>
        <pt x="118" y="316" on="1"/>
        <pt x="119" y="341" on="0"/>
        <pt x="124" y="367" on="1"/>
        <pt x="59" y="367" on="1"/>
        <pt x="105" y="441" on="1"/>
      </contour>
    </TTGlyph>
    <TTGlyph name="F" xMin="10" yMin="0" xMax="615" yMax="710">
      <contour>
        <pt x="161" y="710" on="1"/>
        <pt x="615" y="710" on="1"/>
        <pt x="589" y="589" on="1"/>
        <pt x="272" y="589" on="1"/>
        <pt x="234" y="406" on="1"/>
        <pt x="496" y="406" on="1"/>
        <pt x="472" y="294" on="1"/>
        <pt x="210" y="294" on="1"/>
        <pt x="147" y="0" on="1"/>
        <pt x="10" y="0" on="1"/>
      </contour>
    </TTGlyph>
    <TTGlyph name="F.sc" xMin="4" yMin="0" xMax="521" yMax="559">
      <contour>
        <pt x="122" y="559" on="1"/>
        <pt x="521" y="559" on="1"/>
        <pt x="498" y="453" on="1"/>
        <pt x="220" y="453" on="1"/>
        <pt x="193" y="323" on="1"/>
        <pt x="424" y="323" on="1"/>
        <pt x="403" y="224" on="1"/>
        <pt x="172" y="224" on="1"/>
        <pt x="124" y="0" on="1"/>
        <pt x="4" y="0" on="1"/>
      </contour>
    </TTGlyph>
    <TTGlyph name="G" xMin="37" yMin="-5" xMax="687" yMax="715">
      <contour>
        <pt x="494" y="80" on="1"/>
        <pt x="443" y="36" on="0"/>
        <pt x="344" y="-5" on="0"/>
        <pt x="291" y="-5" on="1"/>
        <pt x="234" y="-5" on="0"/>
        <pt x="141" y="40" on="0"/>
        <pt x="74" y="118" on="0"/>
        <pt x="37" y="225" on="0"/>
        <pt x="37" y="287" on="1"/>
        <pt x="37" y="373" on="0"/>
        <pt x="107" y="528" on="0"/>
        <pt x="223" y="646" on="0"/>
        <pt x="373" y="715" on="0"/>
        <pt x="453" y="715" on="1"/>
        <pt x="548" y="715" on="0"/>
        <pt x="667" y="631" on="0"/>
        <pt x="687" y="560" on="1"/>
        <pt x="568" y="484" on="1"/>
        <pt x="554" y="537" on="0"/>
        <pt x="477" y="593" on="0"/>
        <pt x="423" y="593" on="1"/>
        <pt x="373" y="593" on="0"/>
        <pt x="285" y="544" on="0"/>
        <pt x="217" y="463" on="0"/>
        <pt x="178" y="358" on="0"/>
        <pt x="178" y="302" on="1"/>
        <pt x="178" y="263" on="0"/>
        <pt x="199" y="195" on="0"/>
        <pt x="238" y="145" on="0"/>
        <pt x="294" y="117" on="0"/>
        <pt x="329" y="117" on="1"/>
        <pt x="425" y="117" on="0"/>
        <pt x="522" y="214" on="1"/>
        <pt x="533" y="264" on="1"/>
        <pt x="398" y="264" on="1"/>
        <pt x="420" y="365" on="1"/>
        <pt x="669" y="365" on="1"/>
        <pt x="591" y="0" on="1"/>
        <pt x="477" y="0" on="1"/>
      </contour>
    </TTGlyph>
    <TTGlyph name="G.alt" xMin="38" yMin="-5" xMax="685" yMax="715">
      <contour>
        <pt x="302" y="-5" on="1"/>
        <pt x="239" y="-5" on="0"/>
        <pt x="141" y="44" on="0"/>
        <pt x="73" y="126" on="0"/>
        <pt x="38" y="234" on="0"/>
        <pt x="38" y="293" on="1"/>
        <pt x="38" y="371" on="0"/>
        <pt x="102" y="522" on="0"/>
        <pt x="214" y="641" on="0"/>
        <pt x="364" y="715" on="0"/>
        <pt x="451" y="715" on="1"/>
        <pt x="537" y="715" on="0"/>
        <pt x="653" y="636" on="0"/>
        <pt x="677" y="566" on="1"/>
        <pt x="549" y="480" on="1"/>
        <pt x="545" y="495" on="0"/>
        <pt x="528" y="534" on="0"/>
        <pt x="497" y="569" on="0"/>
        <pt x="450" y="593" on="0"/>
        <pt x="416" y="593" on="1"/>
        <pt x="364" y="593" on="0"/>
        <pt x="277" y="539" on="0"/>
        <pt x="213" y="454" on="0"/>
        <pt x="177" y="349" on="0"/>
        <pt x="177" y="298" on="1"/>
        <pt x="177" y="264" on="0"/>
        <pt x="193" y="199" on="0"/>
        <pt x="227" y="148" on="0"/>
        <pt x="279" y="117" on="0"/>
        <pt x="315" y="117" on="1"/>
        <pt x="346" y="117" on="0"/>
        <pt x="406" y="140" on="0"/>
        <pt x="457" y="179" on="0"/>
        <pt x="498" y="228" on="0"/>
        <pt x="510" y="255" on="1"/>
        <pt x="368" y="255" on="1"/>
        <pt x="393" y="375" on="1"/>
        <pt x="685" y="375" on="1"/>
        <pt x="669" y="308" on="1"/>
        <pt x="654" y="245" on="0"/>
        <pt x="585" y="131" on="0"/>
        <pt x="488" y="45" on="0"/>
        <pt x="368" y="-5" on="0"/>
      </contour>
    </TTGlyph>
    <TTGlyph name="G.sc" xMin="24" yMin="-4" xMax="565" yMax="563">
      <contour>
        <pt x="403" y="58" on="1"/>
        <pt x="363" y="26" on="0"/>
        <pt x="282" y="-4" on="0"/>
        <pt x="240" y="-4" on="1"/>
        <pt x="191" y="-4" on="0"/>
        <pt x="112" y="35" on="0"/>
        <pt x="55" y="100" on="0"/>
        <pt x="24" y="186" on="0"/>
        <pt x="24" y="234" on="1"/>
        <pt x="24" y="300" on="0"/>
        <pt x="81" y="419" on="0"/>
        <pt x="177" y="510" on="0"/>
        <pt x="301" y="563" on="0"/>
        <pt x="369" y="563" on="1"/>
        <pt x="447" y="563" on="0"/>
        <pt x="548" y="497" on="0"/>
        <pt x="565" y="441" on="1"/>
        <pt x="459" y="373" on="1"/>
        <pt x="448" y="412" on="0"/>
        <pt x="384" y="455" on="0"/>
        <pt x="341" y="455" on="1"/>
        <pt x="301" y="455" on="0"/>
        <pt x="231" y="420" on="0"/>
        <pt x="178" y="361" on="0"/>
        <pt x="147" y="284" on="0"/>
        <pt x="147" y="242" on="1"/>
        <pt x="147" y="212" on="0"/>
        <pt x="164" y="162" on="0"/>
        <pt x="197" y="125" on="0"/>
        <pt x="244" y="104" on="0"/>
        <pt x="273" y="104" on="1"/>
        <pt x="311" y="104" on="0"/>
        <pt x="390" y="140" on="0"/>
        <pt x="428" y="175" on="1"/>
        <pt x="434" y="202" on="1"/>
        <pt x="317" y="202" on="1"/>
        <pt x="336" y="290" on="1"/>
        <pt x="553" y="290" on="1"/>
        <pt x="491" y="0" on="1"/>
        <pt x="391" y="0" on="1"/>
      </contour>
    </TTGlyph>
    <TTGlyph name="Gacute" xMin="37" yMin="-5" xMax="687" yMax="916">
      <contour>
        <pt x="487" y="780" on="1"/>
        <pt x="400" y="797" on="1"/>
        <pt x="476" y="916" on="1"/>
        <pt x="600" y="916" on="1"/>
      </contour>
      <contour>
        <pt x="494" y="80" on="1"/>
        <pt x="443" y="36" on="0"/>
        <pt x="344" y="-5" on="0"/>
        <pt x="291" y="-5" on="1"/>
        <pt x="234" y="-5" on="0"/>
        <pt x="141" y="40" on="0"/>
        <pt x="74" y="118" on="0"/>
        <pt x="37" y="225" on="0"/>
        <pt x="37" y="287" on="1"/>
        <pt x="37" y="373" on="0"/>
        <pt x="107" y="528" on="0"/>
        <pt x="223" y="646" on="0"/>
        <pt x="373" y="715" on="0"/>
        <pt x="453" y="715" on="1"/>
        <pt x="548" y="715" on="0"/>
        <pt x="667" y="631" on="0"/>
        <pt x="687" y="560" on="1"/>
        <pt x="568" y="484" on="1"/>
        <pt x="554" y="537" on="0"/>
        <pt x="477" y="593" on="0"/>
        <pt x="423" y="593" on="1"/>
        <pt x="373" y="593" on="0"/>
        <pt x="285" y="544" on="0"/>
        <pt x="217" y="463" on="0"/>
        <pt x="178" y="358" on="0"/>
        <pt x="178" y="302" on="1"/>
        <pt x="178" y="263" on="0"/>
        <pt x="199" y="195" on="0"/>
        <pt x="238" y="145" on="0"/>
        <pt x="294" y="117" on="0"/>
        <pt x="329" y="117" on="1"/>
        <pt x="425" y="117" on="0"/>
        <pt x="522" y="214" on="1"/>
        <pt x="533" y="264" on="1"/>
        <pt x="398" y="264" on="1"/>
        <pt x="420" y="365" on="1"/>
        <pt x="669" y="365" on="1"/>
        <pt x="591" y="0" on="1"/>
        <pt x="477" y="0" on="1"/>
      </contour>
    </TTGlyph>
    <TTGlyph name="Gbreve" xMin="37" yMin="-5" xMax="687" yMax="916">
      <contour>
        <pt x="494" y="80" on="1"/>
        <pt x="443" y="36" on="0"/>
        <pt x="344" y="-5" on="0"/>
        <pt x="291" y="-5" on="1"/>
        <pt x="234" y="-5" on="0"/>
        <pt x="141" y="40" on="0"/>
        <pt x="74" y="118" on="0"/>
        <pt x="37" y="225" on="0"/>
        <pt x="37" y="287" on="1"/>
        <pt x="37" y="373" on="0"/>
        <pt x="107" y="528" on="0"/>
        <pt x="223" y="646" on="0"/>
        <pt x="373" y="715" on="0"/>
        <pt x="453" y="715" on="1"/>
        <pt x="548" y="715" on="0"/>
        <pt x="667" y="631" on="0"/>
        <pt x="687" y="560" on="1"/>
        <pt x="568" y="484" on="1"/>
        <pt x="554" y="537" on="0"/>
        <pt x="477" y="593" on="0"/>
        <pt x="423" y="593" on="1"/>
        <pt x="373" y="593" on="0"/>
        <pt x="285" y="544" on="0"/>
        <pt x="217" y="463" on="0"/>
        <pt x="178" y="358" on="0"/>
        <pt x="178" y="302" on="1"/>
        <pt x="178" y="263" on="0"/>
        <pt x="199" y="195" on="0"/>
        <pt x="238" y="145" on="0"/>
        <pt x="294" y="117" on="0"/>
        <pt x="329" y="117" on="1"/>
        <pt x="425" y="117" on="0"/>
        <pt x="522" y="214" on="1"/>
        <pt x="533" y="264" on="1"/>
        <pt x="398" y="264" on="1"/>
        <pt x="420" y="365" on="1"/>
        <pt x="669" y="365" on="1"/>
        <pt x="591" y="0" on="1"/>
        <pt x="477" y="0" on="1"/>
      </contour>
      <contour>
        <pt x="473" y="842" on="1"/>
        <pt x="494" y="842" on="0"/>
        <pt x="535" y="884" on="0"/>
        <pt x="545" y="916" on="1"/>
        <pt x="617" y="916" on="1"/>
        <pt x="611" y="887" on="0"/>
        <pt x="581" y="838" on="0"/>
        <pt x="540" y="802" on="0"/>
        <pt x="489" y="782" on="0"/>
        <pt x="461" y="782" on="1"/>
        <pt x="412" y="782" on="0"/>
        <pt x="357" y="838" on="0"/>
        <pt x="357" y="883" on="1"/>
        <pt x="357" y="901" on="0"/>
        <pt x="361" y="916" on="1"/>
        <pt x="433" y="916" on="1"/>
        <pt x="430" y="905" on="0"/>
        <pt x="430" y="896" on="1"/>
        <pt x="430" y="873" on="0"/>
        <pt x="454" y="842" on="0"/>
      </contour>
    </TTGlyph>
    <TTGlyph name="Gcircumflex" xMin="37" yMin="-5" xMax="687" yMax="916">
      <contour>
        <pt x="325" y="815" on="1"/>
        <pt x="448" y="916" on="1"/>
        <pt x="545" y="916" on="1"/>
        <pt x="625" y="815" on="1"/>
        <pt x="548" y="783" on="1"/>
        <pt x="481" y="846" on="1"/>
        <pt x="387" y="783" on="1"/>
      </contour>
      <contour>
        <pt x="494" y="80" on="1"/>
        <pt x="443" y="36" on="0"/>
        <pt x="344" y="-5" on="0"/>
        <pt x="291" y="-5" on="1"/>
        <pt x="234" y="-5" on="0"/>
        <pt x="141" y="40" on="0"/>
        <pt x="74" y="118" on="0"/>
        <pt x="37" y="225" on="0"/>
        <pt x="37" y="287" on="1"/>
        <pt x="37" y="373" on="0"/>
        <pt x="107" y="528" on="0"/>
        <pt x="223" y="646" on="0"/>
        <pt x="373" y="715" on="0"/>
        <pt x="453" y="715" on="1"/>
        <pt x="548" y="715" on="0"/>
        <pt x="667" y="631" on="0"/>
        <pt x="687" y="560" on="1"/>
        <pt x="568" y="484" on="1"/>
        <pt x="554" y="537" on="0"/>
        <pt x="477" y="593" on="0"/>
        <pt x="423" y="593" on="1"/>
        <pt x="373" y="593" on="0"/>
        <pt x="285" y="544" on="0"/>
        <pt x="217" y="463" on="0"/>
        <pt x="178" y="358" on="0"/>
        <pt x="178" y="302" on="1"/>
        <pt x="178" y="263" on="0"/>
        <pt x="199" y="195" on="0"/>
        <pt x="238" y="145" on="0"/>
        <pt x="294" y="117" on="0"/>
        <pt x="329" y="117" on="1"/>
        <pt x="425" y="117" on="0"/>
        <pt x="522" y="214" on="1"/>
        <pt x="533" y="264" on="1"/>
        <pt x="398" y="264" on="1"/>
        <pt x="420" y="365" on="1"/>
        <pt x="669" y="365" on="1"/>
        <pt x="591" y="0" on="1"/>
        <pt x="477" y="0" on="1"/>
      </contour>
    </TTGlyph>
    <TTGlyph name="Gcommaaccent" xMin="37" yMin="-213" xMax="687" yMax="715">
      <contour>
        <pt x="211" y="-213" on="1"/>
        <pt x="254" y="-141" on="1"/>
        <pt x="214" y="-141" on="1"/>
        <pt x="235" y="-47" on="1"/>
        <pt x="347" y="-47" on="1"/>
        <pt x="328" y="-141" on="1"/>
        <pt x="272" y="-213" on="1"/>
      </contour>
      <contour>
        <pt x="494" y="80" on="1"/>
        <pt x="443" y="36" on="0"/>
        <pt x="344" y="-5" on="0"/>
        <pt x="291" y="-5" on="1"/>
        <pt x="234" y="-5" on="0"/>
        <pt x="141" y="40" on="0"/>
        <pt x="74" y="118" on="0"/>
        <pt x="37" y="225" on="0"/>
        <pt x="37" y="287" on="1"/>
        <pt x="37" y="373" on="0"/>
        <pt x="107" y="528" on="0"/>
        <pt x="223" y="646" on="0"/>
        <pt x="373" y="715" on="0"/>
        <pt x="453" y="715" on="1"/>
        <pt x="548" y="715" on="0"/>
        <pt x="667" y="631" on="0"/>
        <pt x="687" y="560" on="1"/>
        <pt x="568" y="484" on="1"/>
        <pt x="554" y="537" on="0"/>
        <pt x="477" y="593" on="0"/>
        <pt x="423" y="593" on="1"/>
        <pt x="373" y="593" on="0"/>
        <pt x="285" y="544" on="0"/>
        <pt x="217" y="463" on="0"/>
        <pt x="178" y="358" on="0"/>
        <pt x="178" y="302" on="1"/>
        <pt x="178" y="263" on="0"/>
        <pt x="199" y="195" on="0"/>
        <pt x="238" y="145" on="0"/>
        <pt x="294" y="117" on="0"/>
        <pt x="329" y="117" on="1"/>
        <pt x="425" y="117" on="0"/>
        <pt x="522" y="214" on="1"/>
        <pt x="533" y="264" on="1"/>
        <pt x="398" y="264" on="1"/>
        <pt x="420" y="365" on="1"/>
        <pt x="669" y="365" on="1"/>
        <pt x="591" y="0" on="1"/>
        <pt x="477" y="0" on="1"/>
      </contour>
    </TTGlyph>
    <TTGlyph name="Gdotaccent" xMin="37" yMin="-5" xMax="687" yMax="916">
      <contour>
        <pt x="494" y="80" on="1"/>
        <pt x="443" y="36" on="0"/>
        <pt x="344" y="-5" on="0"/>
        <pt x="291" y="-5" on="1"/>
        <pt x="234" y="-5" on="0"/>
        <pt x="141" y="40" on="0"/>
        <pt x="74" y="118" on="0"/>
        <pt x="37" y="225" on="0"/>
        <pt x="37" y="287" on="1"/>
        <pt x="37" y="373" on="0"/>
        <pt x="107" y="528" on="0"/>
        <pt x="223" y="646" on="0"/>
        <pt x="373" y="715" on="0"/>
        <pt x="453" y="715" on="1"/>
        <pt x="548" y="715" on="0"/>
        <pt x="667" y="631" on="0"/>
        <pt x="687" y="560" on="1"/>
        <pt x="568" y="484" on="1"/>
        <pt x="554" y="537" on="0"/>
        <pt x="477" y="593" on="0"/>
        <pt x="423" y="593" on="1"/>
        <pt x="373" y="593" on="0"/>
        <pt x="285" y="544" on="0"/>
        <pt x="217" y="463" on="0"/>
        <pt x="178" y="358" on="0"/>
        <pt x="178" y="302" on="1"/>
        <pt x="178" y="263" on="0"/>
        <pt x="199" y="195" on="0"/>
        <pt x="238" y="145" on="0"/>
        <pt x="294" y="117" on="0"/>
        <pt x="329" y="117" on="1"/>
        <pt x="425" y="117" on="0"/>
        <pt x="522" y="214" on="1"/>
        <pt x="533" y="264" on="1"/>
        <pt x="398" y="264" on="1"/>
        <pt x="420" y="365" on="1"/>
        <pt x="669" y="365" on="1"/>
        <pt x="591" y="0" on="1"/>
        <pt x="477" y="0" on="1"/>
      </contour>
      <contour>
        <pt x="411" y="790" on="1"/>
        <pt x="438" y="916" on="1"/>
        <pt x="558" y="916" on="1"/>
        <pt x="532" y="790" on="1"/>
      </contour>
    </TTGlyph>
    <TTGlyph name="H" xMin="10" yMin="0" xMax="731" yMax="710">
      <contour>
        <pt x="161" y="710" on="1"/>
        <pt x="298" y="710" on="1"/>
        <pt x="237" y="423" on="1"/>
        <pt x="533" y="423" on="1"/>
        <pt x="594" y="710" on="1"/>
        <pt x="731" y="710" on="1"/>
        <pt x="580" y="0" on="1"/>
        <pt x="443" y="0" on="1"/>
        <pt x="507" y="303" on="1"/>
        <pt x="211" y="303" on="1"/>
        <pt x="147" y="0" on="1"/>
        <pt x="10" y="0" on="1"/>
      </contour>
    </TTGlyph>
    <TTGlyph name="H.sc" xMin="4" yMin="0" xMax="623" yMax="559">
      <contour>
        <pt x="122" y="559" on="1"/>
        <pt x="243" y="559" on="1"/>
        <pt x="196" y="339" on="1"/>
        <pt x="455" y="339" on="1"/>
        <pt x="502" y="559" on="1"/>
        <pt x="623" y="559" on="1"/>
        <pt x="504" y="0" on="1"/>
        <pt x="383" y="0" on="1"/>
        <pt x="433" y="232" on="1"/>
        <pt x="174" y="232" on="1"/>
        <pt x="124" y="0" on="1"/>
        <pt x="4" y="0" on="1"/>
      </contour>
    </TTGlyph>
    <TTGlyph name="Hbar" xMin="14" yMin="0" xMax="762" yMax="710">
      <contour>
        <pt x="96" y="609" on="1"/>
        <pt x="143" y="609" on="1"/>
        <pt x="165" y="710" on="1"/>
        <pt x="303" y="710" on="1"/>
        <pt x="281" y="609" on="1"/>
        <pt x="577" y="609" on="1"/>
        <pt x="599" y="710" on="1"/>
        <pt x="736" y="710" on="1"/>
        <pt x="714" y="609" on="1"/>
        <pt x="762" y="609" on="1"/>
        <pt x="748" y="543" on="1"/>
        <pt x="700" y="543" on="1"/>
        <pt x="585" y="0" on="1"/>
        <pt x="448" y="0" on="1"/>
        <pt x="512" y="303" on="1"/>
        <pt x="216" y="303" on="1"/>
        <pt x="152" y="0" on="1"/>
        <pt x="14" y="0" on="1"/>
        <pt x="129" y="543" on="1"/>
        <pt x="82" y="543" on="1"/>
      </contour>
      <contour>
        <pt x="538" y="423" on="1"/>
        <pt x="563" y="543" on="1"/>
        <pt x="267" y="543" on="1"/>
        <pt x="242" y="423" on="1"/>
      </contour>
    </TTGlyph>
    <TTGlyph name="Hcircumflex" xMin="10" yMin="0" xMax="731" yMax="916">
      <contour>
        <pt x="317" y="815" on="1"/>
        <pt x="440" y="916" on="1"/>
        <pt x="537" y="916" on="1"/>
        <pt x="617" y="815" on="1"/>
        <pt x="540" y="783" on="1"/>
        <pt x="473" y="846" on="1"/>
        <pt x="379" y="783" on="1"/>
      </contour>
      <contour>
        <pt x="161" y="710" on="1"/>
        <pt x="298" y="710" on="1"/>
        <pt x="237" y="423" on="1"/>
        <pt x="533" y="423" on="1"/>
        <pt x="594" y="710" on="1"/>
        <pt x="731" y="710" on="1"/>
        <pt x="580" y="0" on="1"/>
        <pt x="443" y="0" on="1"/>
        <pt x="507" y="303" on="1"/>
        <pt x="211" y="303" on="1"/>
        <pt x="147" y="0" on="1"/>
        <pt x="10" y="0" on="1"/>
      </contour>
    </TTGlyph>
    <TTGlyph name="Hdotbelow" xMin="10" yMin="-196" xMax="731" yMax="710">
      <contour>
        <pt x="161" y="710" on="1"/>
        <pt x="298" y="710" on="1"/>
        <pt x="237" y="423" on="1"/>
        <pt x="533" y="423" on="1"/>
        <pt x="594" y="710" on="1"/>
        <pt x="731" y="710" on="1"/>
        <pt x="580" y="0" on="1"/>
        <pt x="443" y="0" on="1"/>
        <pt x="507" y="303" on="1"/>
        <pt x="211" y="303" on="1"/>
        <pt x="147" y="0" on="1"/>
        <pt x="10" y="0" on="1"/>
      </contour>
      <contour>
        <pt x="192" y="-196" on="1"/>
        <pt x="219" y="-70" on="1"/>
        <pt x="339" y="-70" on="1"/>
        <pt x="312" y="-196" on="1"/>
      </contour>
    </TTGlyph>
    <TTGlyph name="I" xMin="10" yMin="0" xMax="298" yMax="709">
      <contour>
        <pt x="161" y="709" on="1"/>
        <pt x="298" y="709" on="1"/>
        <pt x="147" y="0" on="1"/>
        <pt x="10" y="0" on="1"/>
      </contour>
    </TTGlyph>
    <TTGlyph name="I.sc" xMin="4" yMin="0" xMax="243" yMax="559">
      <contour>
        <pt x="122" y="559" on="1"/>
        <pt x="243" y="559" on="1"/>
        <pt x="124" y="0" on="1"/>
        <pt x="4" y="0" on="1"/>
      </contour>
    </TTGlyph>
    <TTGlyph name="IJ" xMin="10" yMin="-11" xMax="786" yMax="709">
      <contour>
        <pt x="161" y="709" on="1"/>
        <pt x="298" y="709" on="1"/>
        <pt x="147" y="0" on="1"/>
        <pt x="10" y="0" on="1"/>
      </contour>
      <contour>
        <pt x="379" y="-11" on="1"/>
        <pt x="294" y="-11" on="0"/>
        <pt x="242" y="33" on="1"/>
        <pt x="296" y="145" on="1"/>
        <pt x="306" y="135" on="0"/>
        <pt x="364" y="111" on="0"/>
        <pt x="405" y="111" on="1"/>
        <pt x="444" y="111" on="0"/>
        <pt x="496" y="140" on="0"/>
        <pt x="532" y="200" on="0"/>
        <pt x="558" y="289" on="0"/>
        <pt x="571" y="349" on="1"/>
        <pt x="648" y="709" on="1"/>
        <pt x="786" y="709" on="1"/>
        <pt x="709" y="349" on="1"/>
        <pt x="692" y="268" on="0"/>
        <pt x="648" y="135" on="0"/>
        <pt x="575" y="41" on="0"/>
        <pt x="463" y="-11" on="0"/>
      </contour>
    </TTGlyph>
    <TTGlyph name="Iacute" xMin="10" yMin="0" xMax="370" yMax="916">
      <contour>
        <pt x="161" y="709" on="1"/>
        <pt x="298" y="709" on="1"/>
        <pt x="147" y="0" on="1"/>
        <pt x="10" y="0" on="1"/>
      </contour>
      <contour>
        <pt x="257" y="780" on="1"/>
        <pt x="170" y="797" on="1"/>
        <pt x="246" y="916" on="1"/>
        <pt x="370" y="916" on="1"/>
      </contour>
    </TTGlyph>
    <TTGlyph name="Ibreve" xMin="10" yMin="0" xMax="394" yMax="916">
      <contour>
        <pt x="161" y="709" on="1"/>
        <pt x="298" y="709" on="1"/>
        <pt x="147" y="0" on="1"/>
        <pt x="10" y="0" on="1"/>
      </contour>
      <contour>
        <pt x="250" y="842" on="1"/>
        <pt x="271" y="842" on="0"/>
        <pt x="312" y="884" on="0"/>
        <pt x="322" y="916" on="1"/>
        <pt x="394" y="916" on="1"/>
        <pt x="388" y="887" on="0"/>
        <pt x="358" y="838" on="0"/>
        <pt x="317" y="802" on="0"/>
        <pt x="266" y="782" on="0"/>
        <pt x="238" y="782" on="1"/>
        <pt x="189" y="782" on="0"/>
        <pt x="134" y="838" on="0"/>
        <pt x="134" y="883" on="1"/>
        <pt x="134" y="901" on="0"/>
        <pt x="138" y="916" on="1"/>
        <pt x="210" y="916" on="1"/>
        <pt x="207" y="905" on="0"/>
        <pt x="207" y="896" on="1"/>
        <pt x="207" y="873" on="0"/>
        <pt x="231" y="842" on="0"/>
      </contour>
    </TTGlyph>
    <TTGlyph name="Icircumflex" xMin="10" yMin="0" xMax="402" yMax="916">
      <contour>
        <pt x="161" y="709" on="1"/>
        <pt x="298" y="709" on="1"/>
        <pt x="147" y="0" on="1"/>
        <pt x="10" y="0" on="1"/>
      </contour>
      <contour>
        <pt x="102" y="815" on="1"/>
        <pt x="225" y="916" on="1"/>
        <pt x="322" y="916" on="1"/>
        <pt x="402" y="815" on="1"/>
        <pt x="325" y="783" on="1"/>
        <pt x="258" y="846" on="1"/>
        <pt x="164" y="783" on="1"/>
      </contour>
    </TTGlyph>
    <TTGlyph name="Idblgrave" xMin="10" yMin="0" xMax="378" yMax="918">
      <contour>
        <pt x="161" y="709" on="1"/>
        <pt x="298" y="709" on="1"/>
        <pt x="147" y="0" on="1"/>
        <pt x="10" y="0" on="1"/>
      </contour>
      <contour>
        <pt x="256" y="918" on="1"/>
        <pt x="358" y="918" on="1"/>
        <pt x="378" y="799" on="1"/>
        <pt x="305" y="781" on="1"/>
      </contour>
      <contour>
        <pt x="99" y="918" on="1"/>
        <pt x="203" y="918" on="1"/>
        <pt x="221" y="799" on="1"/>
        <pt x="149" y="781" on="1"/>
      </contour>
    </TTGlyph>
    <TTGlyph name="Idieresis" xMin="10" yMin="0" xMax="420" yMax="910">
      <contour>
        <pt x="161" y="709" on="1"/>
        <pt x="298" y="709" on="1"/>
        <pt x="147" y="0" on="1"/>
        <pt x="10" y="0" on="1"/>
      </contour>
      <contour>
        <pt x="97" y="791" on="1"/>
        <pt x="123" y="910" on="1"/>
        <pt x="234" y="910" on="1"/>
        <pt x="208" y="791" on="1"/>
      </contour>
      <contour>
        <pt x="285" y="791" on="1"/>
        <pt x="310" y="910" on="1"/>
        <pt x="420" y="910" on="1"/>
        <pt x="396" y="791" on="1"/>
      </contour>
    </TTGlyph>
    <TTGlyph name="Idotaccent" xMin="10" yMin="0" xMax="333" yMax="916">
      <contour>
        <pt x="161" y="709" on="1"/>
        <pt x="298" y="709" on="1"/>
        <pt x="147" y="0" on="1"/>
        <pt x="10" y="0" on="1"/>
      </contour>
      <contour>
        <pt x="186" y="790" on="1"/>
        <pt x="213" y="916" on="1"/>
        <pt x="333" y="916" on="1"/>
        <pt x="307" y="790" on="1"/>
      </contour>
    </TTGlyph>
    <TTGlyph name="Idotbelow" xMin="-23" yMin="-196" xMax="298" yMax="709">
      <contour>
        <pt x="161" y="709" on="1"/>
        <pt x="298" y="709" on="1"/>
        <pt x="147" y="0" on="1"/>
        <pt x="10" y="0" on="1"/>
      </contour>
      <contour>
        <pt x="-23" y="-196" on="1"/>
        <pt x="4" y="-70" on="1"/>
        <pt x="124" y="-70" on="1"/>
        <pt x="97" y="-196" on="1"/>
      </contour>
    </TTGlyph>
    <TTGlyph name="Igrave" xMin="10" yMin="0" xMax="309" yMax="917">
      <contour>
        <pt x="161" y="709" on="1"/>
        <pt x="298" y="709" on="1"/>
        <pt x="147" y="0" on="1"/>
        <pt x="10" y="0" on="1"/>
      </contour>
      <contour>
        <pt x="160" y="917" on="1"/>
        <pt x="283" y="917" on="1"/>
        <pt x="309" y="798" on="1"/>
        <pt x="216" y="780" on="1"/>
      </contour>
    </TTGlyph>
    <TTGlyph name="Iinvertedbreve" xMin="10" yMin="0" xMax="376" yMax="916">
      <contour>
        <pt x="161" y="709" on="1"/>
        <pt x="298" y="709" on="1"/>
        <pt x="147" y="0" on="1"/>
        <pt x="10" y="0" on="1"/>
      </contour>
      <contour>
        <pt x="118" y="782" on="1"/>
        <pt x="124" y="811" on="0"/>
        <pt x="153" y="860" on="0"/>
        <pt x="195" y="896" on="0"/>
        <pt x="246" y="916" on="0"/>
        <pt x="273" y="916" on="1"/>
        <pt x="322" y="916" on="0"/>
        <pt x="376" y="856" on="0"/>
        <pt x="376" y="812" on="1"/>
        <pt x="376" y="797" on="0"/>
        <pt x="373" y="782" on="1"/>
        <pt x="302" y="782" on="1"/>
        <pt x="303" y="790" on="0"/>
        <pt x="304" y="804" on="0"/>
        <pt x="304" y="810" on="1"/>
        <pt x="304" y="856" on="0"/>
        <pt x="262" y="856" on="1"/>
        <pt x="204" y="856" on="0"/>
        <pt x="189" y="782" on="1"/>
      </contour>
    </TTGlyph>
    <TTGlyph name="Imacron" xMin="10" yMin="0" xMax="413" yMax="901">
      <contour>
        <pt x="161" y="709" on="1"/>
        <pt x="298" y="709" on="1"/>
        <pt x="147" y="0" on="1"/>
        <pt x="10" y="0" on="1"/>
      </contour>
      <contour>
        <pt x="109" y="818" on="1"/>
        <pt x="127" y="901" on="1"/>
        <pt x="413" y="901" on="1"/>
        <pt x="395" y="818" on="1"/>
      </contour>
    </TTGlyph>
    <TTGlyph name="Iogonek" xMin="-32" yMin="-196" xMax="298" yMax="709">
      <contour>
        <pt x="161" y="709" on="1"/>
        <pt x="298" y="709" on="1"/>
        <pt x="147" y="0" on="1"/>
        <pt x="55" y="-53" on="0"/>
        <pt x="55" y="-91" on="1"/>
        <pt x="55" y="-123" on="0"/>
        <pt x="107" y="-126" on="1"/>
        <pt x="65" y="-196" on="1"/>
        <pt x="15" y="-188" on="0"/>
        <pt x="-32" y="-147" on="0"/>
        <pt x="-32" y="-120" on="1"/>
        <pt x="-32" y="-58" on="0"/>
        <pt x="71" y="0" on="1"/>
        <pt x="10" y="0" on="1"/>
      </contour>
    </TTGlyph>
    <TTGlyph name="Itilde" xMin="10" yMin="0" xMax="457" yMax="916">
      <contour>
        <pt x="161" y="709" on="1"/>
        <pt x="298" y="709" on="1"/>
        <pt x="147" y="0" on="1"/>
        <pt x="10" y="0" on="1"/>
      </contour>
      <contour>
        <pt x="311" y="788" on="1"/>
        <pt x="290" y="788" on="0"/>
        <pt x="260" y="802" on="0"/>
        <pt x="235" y="819" on="0"/>
        <pt x="211" y="833" on="0"/>
        <pt x="195" y="833" on="1"/>
        <pt x="179" y="833" on="0"/>
        <pt x="158" y="819" on="0"/>
        <pt x="146" y="801" on="0"/>
        <pt x="141" y="786" on="0"/>
        <pt x="141" y="785" on="1"/>
        <pt x="67" y="785" on="1"/>
        <pt x="69" y="794" on="0"/>
        <pt x="89" y="837" on="0"/>
        <pt x="125" y="880" on="0"/>
        <pt x="176" y="913" on="0"/>
        <pt x="208" y="913" on="1"/>
        <pt x="230" y="913" on="0"/>
        <pt x="258" y="898" on="0"/>
        <pt x="282" y="881" on="0"/>
        <pt x="306" y="866" on="0"/>
        <pt x="323" y="866" on="1"/>
        <pt x="340" y="866" on="0"/>
        <pt x="363" y="880" on="0"/>
        <pt x="377" y="898" on="0"/>
        <pt x="384" y="914" on="0"/>
        <pt x="384" y="916" on="1"/>
        <pt x="457" y="916" on="1"/>
        <pt x="455" y="909" on="0"/>
        <pt x="435" y="867" on="0"/>
        <pt x="398" y="823" on="0"/>
        <pt x="345" y="788" on="0"/>
      </contour>
    </TTGlyph>
    <TTGlyph name="J" xMin="-43" yMin="-11" xMax="501" yMax="709">
      <contour>
        <pt x="94" y="-11" on="1"/>
        <pt x="9" y="-11" on="0"/>
        <pt x="-43" y="33" on="1"/>
        <pt x="11" y="145" on="1"/>
        <pt x="21" y="135" on="0"/>
        <pt x="79" y="111" on="0"/>
        <pt x="120" y="111" on="1"/>
        <pt x="159" y="111" on="0"/>
        <pt x="211" y="140" on="0"/>
        <pt x="247" y="200" on="0"/>
        <pt x="273" y="289" on="0"/>
        <pt x="286" y="349" on="1"/>
        <pt x="363" y="709" on="1"/>
        <pt x="501" y="709" on="1"/>
        <pt x="424" y="349" on="1"/>
        <pt x="407" y="268" on="0"/>
        <pt x="363" y="135" on="0"/>
        <pt x="290" y="41" on="0"/>
        <pt x="178" y="-11" on="0"/>
      </contour>
    </TTGlyph>
    <TTGlyph name="J.sc" xMin="-42" yMin="-8" xMax="422" yMax="559">
      <contour>
        <pt x="80" y="-8" on="1"/>
        <pt x="3" y="-8" on="0"/>
        <pt x="-42" y="25" on="1"/>
        <pt x="7" y="124" on="1"/>
        <pt x="16" y="116" on="0"/>
        <pt x="67" y="99" on="0"/>
        <pt x="102" y="99" on="1"/>
        <pt x="136" y="99" on="0"/>
        <pt x="181" y="120" on="0"/>
        <pt x="211" y="163" on="0"/>
        <pt x="231" y="230" on="0"/>
        <pt x="241" y="275" on="1"/>
        <pt x="302" y="559" on="1"/>
        <pt x="422" y="559" on="1"/>
        <pt x="362" y="275" on="1"/>
        <pt x="348" y="211" on="0"/>
        <pt x="312" y="106" on="0"/>
        <pt x="250" y="32" on="0"/>
        <pt x="153" y="-8" on="0"/>
      </contour>
    </TTGlyph>
    <TTGlyph name="Jcircumflex" xMin="-43" yMin="-11" xMax="603" yMax="916">
      <contour>
        <pt x="303" y="815" on="1"/>
        <pt x="426" y="916" on="1"/>
        <pt x="523" y="916" on="1"/>
        <pt x="603" y="815" on="1"/>
        <pt x="526" y="783" on="1"/>
        <pt x="459" y="846" on="1"/>
        <pt x="365" y="783" on="1"/>
      </contour>
      <contour>
        <pt x="94" y="-11" on="1"/>
        <pt x="9" y="-11" on="0"/>
        <pt x="-43" y="33" on="1"/>
        <pt x="11" y="145" on="1"/>
        <pt x="21" y="135" on="0"/>
        <pt x="79" y="111" on="0"/>
        <pt x="120" y="111" on="1"/>
        <pt x="159" y="111" on="0"/>
        <pt x="211" y="140" on="0"/>
        <pt x="247" y="200" on="0"/>
        <pt x="273" y="289" on="0"/>
        <pt x="286" y="349" on="1"/>
        <pt x="363" y="709" on="1"/>
        <pt x="501" y="709" on="1"/>
        <pt x="424" y="349" on="1"/>
        <pt x="407" y="268" on="0"/>
        <pt x="363" y="135" on="0"/>
        <pt x="290" y="41" on="0"/>
        <pt x="178" y="-11" on="0"/>
      </contour>
    </TTGlyph>
    <TTGlyph name="K" xMin="10" yMin="0" xMax="725" yMax="710">
      <contour>
        <pt x="161" y="709" on="1"/>
        <pt x="298" y="709" on="1"/>
        <pt x="226" y="372" on="1"/>
        <pt x="571" y="710" on="1"/>
        <pt x="725" y="710" on="1"/>
        <pt x="400" y="395" on="1"/>
        <pt x="590" y="0" on="1"/>
        <pt x="434" y="0" on="1"/>
        <pt x="295" y="307" on="1"/>
        <pt x="192" y="212" on="1"/>
        <pt x="147" y="0" on="1"/>
        <pt x="10" y="0" on="1"/>
      </contour>
    </TTGlyph>
    <TTGlyph name="K.sc" xMin="4" yMin="0" xMax="617" yMax="559">
      <contour>
        <pt x="122" y="559" on="1"/>
        <pt x="243" y="559" on="1"/>
        <pt x="187" y="298" on="1"/>
        <pt x="491" y="559" on="1"/>
        <pt x="617" y="559" on="1"/>
        <pt x="339" y="310" on="1"/>
        <pt x="513" y="0" on="1"/>
        <pt x="385" y="0" on="1"/>
        <pt x="252" y="242" on="1"/>
        <pt x="160" y="168" on="1"/>
        <pt x="124" y="0" on="1"/>
        <pt x="4" y="0" on="1"/>
      </contour>
    </TTGlyph>
    <TTGlyph name="Kcommaaccent" xMin="10" yMin="-213" xMax="725" yMax="710">
      <contour>
        <pt x="200" y="-213" on="1"/>
        <pt x="243" y="-141" on="1"/>
        <pt x="203" y="-141" on="1"/>
        <pt x="224" y="-47" on="1"/>
        <pt x="336" y="-47" on="1"/>
        <pt x="317" y="-141" on="1"/>
        <pt x="261" y="-213" on="1"/>
      </contour>
      <contour>
        <pt x="161" y="709" on="1"/>
        <pt x="298" y="709" on="1"/>
        <pt x="226" y="372" on="1"/>
        <pt x="571" y="710" on="1"/>
        <pt x="725" y="710" on="1"/>
        <pt x="400" y="395" on="1"/>
        <pt x="590" y="0" on="1"/>
        <pt x="434" y="0" on="1"/>
        <pt x="295" y="307" on="1"/>
        <pt x="192" y="212" on="1"/>
        <pt x="147" y="0" on="1"/>
        <pt x="10" y="0" on="1"/>
      </contour>
    </TTGlyph>
    <TTGlyph name="L" xMin="10" yMin="0" xMax="512" yMax="710">
      <contour>
        <pt x="161" y="710" on="1"/>
        <pt x="298" y="710" on="1"/>
        <pt x="173" y="121" on="1"/>
        <pt x="512" y="121" on="1"/>
        <pt x="487" y="0" on="1"/>
        <pt x="10" y="0" on="1"/>
      </contour>
    </TTGlyph>
    <TTGlyph name="L.sc" xMin="4" yMin="0" xMax="414" yMax="559">
      <contour>
        <pt x="122" y="559" on="1"/>
        <pt x="243" y="559" on="1"/>
        <pt x="146" y="106" on="1"/>
        <pt x="414" y="106" on="1"/>
        <pt x="391" y="0" on="1"/>
        <pt x="4" y="0" on="1"/>
      </contour>
    </TTGlyph>
    <TTGlyph name="Lacute" xMin="10" yMin="0" xMax="512" yMax="916">
      <contour>
        <pt x="267" y="780" on="1"/>
        <pt x="180" y="797" on="1"/>
        <pt x="256" y="916" on="1"/>
        <pt x="380" y="916" on="1"/>
      </contour>
      <contour>
        <pt x="161" y="710" on="1"/>
        <pt x="298" y="710" on="1"/>
        <pt x="173" y="121" on="1"/>
        <pt x="512" y="121" on="1"/>
        <pt x="487" y="0" on="1"/>
        <pt x="10" y="0" on="1"/>
      </contour>
    </TTGlyph>
    <TTGlyph name="Lcaron" xMin="10" yMin="0" xMax="543" yMax="730">
      <contour>
        <pt x="343" y="611" on="1"/>
        <pt x="420" y="730" on="1"/>
        <pt x="543" y="730" on="1"/>
        <pt x="424" y="585" on="1"/>
      </contour>
      <contour>
        <pt x="161" y="710" on="1"/>
        <pt x="298" y="710" on="1"/>
        <pt x="173" y="121" on="1"/>
        <pt x="512" y="121" on="1"/>
        <pt x="487" y="0" on="1"/>
        <pt x="10" y="0" on="1"/>
      </contour>
    </TTGlyph>
    <TTGlyph name="Lcommaaccent" xMin="10" yMin="-213" xMax="512" yMax="710">
      <contour>
        <pt x="164" y="-213" on="1"/>
        <pt x="207" y="-141" on="1"/>
        <pt x="167" y="-141" on="1"/>
        <pt x="188" y="-47" on="1"/>
        <pt x="300" y="-47" on="1"/>
        <pt x="281" y="-141" on="1"/>
        <pt x="225" y="-213" on="1"/>
      </contour>
      <contour>
        <pt x="161" y="710" on="1"/>
        <pt x="298" y="710" on="1"/>
        <pt x="173" y="121" on="1"/>
        <pt x="512" y="121" on="1"/>
        <pt x="487" y="0" on="1"/>
        <pt x="10" y="0" on="1"/>
      </contour>
    </TTGlyph>
    <TTGlyph name="Ldot" xMin="10" yMin="0" xMax="512" yMax="710">
      <contour>
        <pt x="161" y="710" on="1"/>
        <pt x="298" y="710" on="1"/>
        <pt x="173" y="121" on="1"/>
        <pt x="512" y="121" on="1"/>
        <pt x="487" y="0" on="1"/>
        <pt x="10" y="0" on="1"/>
      </contour>
      <contour>
        <pt x="336" y="340" on="1"/>
        <pt x="368" y="491" on="1"/>
        <pt x="478" y="491" on="1"/>
        <pt x="446" y="340" on="1"/>
      </contour>
    </TTGlyph>
    <TTGlyph name="Lslash" xMin="3" yMin="0" xMax="521" yMax="710">
      <contour>
        <pt x="3" y="315" on="1"/>
        <pt x="96" y="369" on="1"/>
        <pt x="169" y="710" on="1"/>
        <pt x="306" y="710" on="1"/>
        <pt x="252" y="459" on="1"/>
        <pt x="367" y="525" on="1"/>
        <pt x="384" y="452" on="1"/>
        <pt x="232" y="364" on="1"/>
        <pt x="181" y="121" on="1"/>
        <pt x="521" y="121" on="1"/>
        <pt x="495" y="0" on="1"/>
        <pt x="18" y="0" on="1"/>
        <pt x="76" y="274" on="1"/>
        <pt x="21" y="242" on="1"/>
      </contour>
    </TTGlyph>
    <TTGlyph name="M" xMin="10" yMin="0" xMax="843" yMax="710">
      <contour>
        <pt x="161" y="710" on="1"/>
        <pt x="309" y="710" on="1"/>
        <pt x="416" y="306" on="1"/>
        <pt x="696" y="710" on="1"/>
        <pt x="843" y="710" on="1"/>
        <pt x="692" y="0" on="1"/>
        <pt x="555" y="0" on="1"/>
        <pt x="655" y="470" on="1"/>
        <pt x="414" y="120" on="1"/>
        <pt x="339" y="120" on="1"/>
        <pt x="247" y="470" on="1"/>
        <pt x="147" y="0" on="1"/>
        <pt x="10" y="0" on="1"/>
      </contour>
    </TTGlyph>
    <TTGlyph name="M.sc" xMin="4" yMin="0" xMax="721" yMax="559">
      <contour>
        <pt x="122" y="559" on="1"/>
        <pt x="253" y="559" on="1"/>
        <pt x="358" y="257" on="1"/>
        <pt x="591" y="559" on="1"/>
        <pt x="721" y="559" on="1"/>
        <pt x="602" y="0" on="1"/>
        <pt x="481" y="0" on="1"/>
        <pt x="556" y="349" on="1"/>
        <pt x="355" y="93" on="1"/>
        <pt x="290" y="93" on="1"/>
        <pt x="198" y="349" on="1"/>
        <pt x="124" y="0" on="1"/>
        <pt x="4" y="0" on="1"/>
      </contour>
    </TTGlyph>
    <TTGlyph name="N" xMin="10" yMin="0" xMax="746" yMax="710">
      <contour>
        <pt x="161" y="710" on="1"/>
        <pt x="268" y="710" on="1"/>
        <pt x="510" y="244" on="1"/>
        <pt x="609" y="709" on="1"/>
        <pt x="746" y="709" on="1"/>
        <pt x="595" y="0" on="1"/>
        <pt x="484" y="0" on="1"/>
        <pt x="243" y="455" on="1"/>
        <pt x="147" y="0" on="1"/>
        <pt x="10" y="0" on="1"/>
      </contour>
    </TTGlyph>
    <TTGlyph name="N.sc" xMin="4" yMin="0" xMax="636" yMax="559">
      <contour>
        <pt x="122" y="559" on="1"/>
        <pt x="216" y="559" on="1"/>
        <pt x="443" y="215" on="1"/>
        <pt x="516" y="559" on="1"/>
        <pt x="636" y="559" on="1"/>
        <pt x="517" y="0" on="1"/>
        <pt x="420" y="0" on="1"/>
        <pt x="195" y="335" on="1"/>
        <pt x="124" y="0" on="1"/>
        <pt x="4" y="0" on="1"/>
      </contour>
    </TTGlyph>
    <TTGlyph name="Nacute" xMin="10" yMin="0" xMax="746" yMax="916">
      <contour>
        <pt x="489" y="780" on="1"/>
        <pt x="402" y="797" on="1"/>
        <pt x="478" y="916" on="1"/>
        <pt x="602" y="916" on="1"/>
      </contour>
      <contour>
        <pt x="161" y="710" on="1"/>
        <pt x="268" y="710" on="1"/>
        <pt x="510" y="244" on="1"/>
        <pt x="609" y="709" on="1"/>
        <pt x="746" y="709" on="1"/>
        <pt x="595" y="0" on="1"/>
        <pt x="484" y="0" on="1"/>
        <pt x="243" y="455" on="1"/>
        <pt x="147" y="0" on="1"/>
        <pt x="10" y="0" on="1"/>
      </contour>
    </TTGlyph>
    <TTGlyph name="Ncaron" xMin="10" yMin="0" xMax="746" yMax="916">
      <contour>
        <pt x="327" y="884" on="1"/>
        <pt x="404" y="916" on="1"/>
        <pt x="471" y="853" on="1"/>
        <pt x="565" y="916" on="1"/>
        <pt x="628" y="884" on="1"/>
        <pt x="504" y="783" on="1"/>
        <pt x="407" y="783" on="1"/>
      </contour>
      <contour>
        <pt x="161" y="710" on="1"/>
        <pt x="268" y="710" on="1"/>
        <pt x="510" y="244" on="1"/>
        <pt x="609" y="709" on="1"/>
        <pt x="746" y="709" on="1"/>
        <pt x="595" y="0" on="1"/>
        <pt x="484" y="0" on="1"/>
        <pt x="243" y="455" on="1"/>
        <pt x="147" y="0" on="1"/>
        <pt x="10" y="0" on="1"/>
      </contour>
    </TTGlyph>
    <TTGlyph name="Ncommaaccent" xMin="10" yMin="-213" xMax="746" yMax="710">
      <contour>
        <pt x="218" y="-213" on="1"/>
        <pt x="261" y="-141" on="1"/>
        <pt x="221" y="-141" on="1"/>
        <pt x="242" y="-47" on="1"/>
        <pt x="354" y="-47" on="1"/>
        <pt x="335" y="-141" on="1"/>
        <pt x="279" y="-213" on="1"/>
      </contour>
      <contour>
        <pt x="161" y="710" on="1"/>
        <pt x="268" y="710" on="1"/>
        <pt x="510" y="244" on="1"/>
        <pt x="609" y="709" on="1"/>
        <pt x="746" y="709" on="1"/>
        <pt x="595" y="0" on="1"/>
        <pt x="484" y="0" on="1"/>
        <pt x="243" y="455" on="1"/>
        <pt x="147" y="0" on="1"/>
        <pt x="10" y="0" on="1"/>
      </contour>
    </TTGlyph>
    <TTGlyph name="Ndotaccent" xMin="10" yMin="0" xMax="746" yMax="916">
      <contour>
        <pt x="404" y="790" on="1"/>
        <pt x="431" y="916" on="1"/>
        <pt x="551" y="916" on="1"/>
        <pt x="525" y="790" on="1"/>
      </contour>
      <contour>
        <pt x="161" y="710" on="1"/>
        <pt x="268" y="710" on="1"/>
        <pt x="510" y="244" on="1"/>
        <pt x="609" y="709" on="1"/>
        <pt x="746" y="709" on="1"/>
        <pt x="595" y="0" on="1"/>
        <pt x="484" y="0" on="1"/>
        <pt x="243" y="455" on="1"/>
        <pt x="147" y="0" on="1"/>
        <pt x="10" y="0" on="1"/>
      </contour>
    </TTGlyph>
    <TTGlyph name="Ntilde" xMin="10" yMin="0" xMax="746" yMax="916">
      <contour>
        <pt x="161" y="710" on="1"/>
        <pt x="268" y="710" on="1"/>
        <pt x="510" y="244" on="1"/>
        <pt x="609" y="709" on="1"/>
        <pt x="746" y="709" on="1"/>
        <pt x="595" y="0" on="1"/>
        <pt x="484" y="0" on="1"/>
        <pt x="243" y="455" on="1"/>
        <pt x="147" y="0" on="1"/>
        <pt x="10" y="0" on="1"/>
      </contour>
      <contour>
        <pt x="531" y="788" on="1"/>
        <pt x="510" y="788" on="0"/>
        <pt x="480" y="802" on="0"/>
        <pt x="455" y="819" on="0"/>
        <pt x="431" y="833" on="0"/>
        <pt x="415" y="833" on="1"/>
        <pt x="399" y="833" on="0"/>
        <pt x="378" y="819" on="0"/>
        <pt x="366" y="801" on="0"/>
        <pt x="361" y="786" on="0"/>
        <pt x="361" y="785" on="1"/>
        <pt x="287" y="785" on="1"/>
        <pt x="289" y="794" on="0"/>
        <pt x="309" y="837" on="0"/>
        <pt x="345" y="880" on="0"/>
        <pt x="396" y="913" on="0"/>
        <pt x="428" y="913" on="1"/>
        <pt x="450" y="913" on="0"/>
        <pt x="478" y="898" on="0"/>
        <pt x="502" y="881" on="0"/>
        <pt x="526" y="866" on="0"/>
        <pt x="543" y="866" on="1"/>
        <pt x="560" y="866" on="0"/>
        <pt x="583" y="880" on="0"/>
        <pt x="597" y="898" on="0"/>
        <pt x="604" y="914" on="0"/>
        <pt x="604" y="916" on="1"/>
        <pt x="677" y="916" on="1"/>
        <pt x="675" y="909" on="0"/>
        <pt x="655" y="867" on="0"/>
        <pt x="618" y="823" on="0"/>
        <pt x="565" y="788" on="0"/>
      </contour>
    </TTGlyph>
    <TTGlyph name="O" xMin="37" yMin="-5" xMax="714" yMax="715">
      <contour>
        <pt x="299" y="-5" on="1"/>
        <pt x="236" y="-5" on="0"/>
        <pt x="138" y="44" on="0"/>
        <pt x="71" y="126" on="0"/>
        <pt x="37" y="232" on="0"/>
        <pt x="37" y="290" on="1"/>
        <pt x="37" y="371" on="0"/>
        <pt x="106" y="524" on="0"/>
        <pt x="222" y="643" on="0"/>
        <pt x="373" y="715" on="0"/>
        <pt x="455" y="715" on="1"/>
        <pt x="518" y="715" on="0"/>
        <pt x="615" y="665" on="0"/>
        <pt x="680" y="583" on="0"/>
        <pt x="714" y="475" on="0"/>
        <pt x="714" y="418" on="1"/>
        <pt x="714" y="338" on="0"/>
        <pt x="646" y="185" on="0"/>
        <pt x="531" y="67" on="0"/>
        <pt x="381" y="-5" on="0"/>
      </contour>
      <contour>
        <pt x="326" y="117" on="1"/>
        <pt x="381" y="117" on="0"/>
        <pt x="472" y="171" on="0"/>
        <pt x="538" y="255" on="0"/>
        <pt x="574" y="358" on="0"/>
        <pt x="574" y="408" on="1"/>
        <pt x="574" y="445" on="0"/>
        <pt x="556" y="512" on="0"/>
        <pt x="519" y="562" on="0"/>
        <pt x="463" y="592" on="0"/>
        <pt x="426" y="592" on="1"/>
        <pt x="371" y="592" on="0"/>
        <pt x="279" y="539" on="0"/>
        <pt x="213" y="455" on="0"/>
        <pt x="177" y="352" on="0"/>
        <pt x="177" y="301" on="1"/>
        <pt x="177" y="264" on="0"/>
        <pt x="195" y="198" on="0"/>
        <pt x="233" y="147" on="0"/>
        <pt x="288" y="117" on="0"/>
      </contour>
    </TTGlyph>
    <TTGlyph name="O.sc" xMin="23" yMin="-4" xMax="597" yMax="562">
      <contour>
        <pt x="249" y="-4" on="1"/>
        <pt x="195" y="-4" on="0"/>
        <pt x="111" y="35" on="0"/>
        <pt x="53" y="101" on="0"/>
        <pt x="23" y="186" on="0"/>
        <pt x="23" y="232" on="1"/>
        <pt x="23" y="295" on="0"/>
        <pt x="80" y="414" on="0"/>
        <pt x="177" y="506" on="0"/>
        <pt x="303" y="562" on="0"/>
        <pt x="372" y="562" on="1"/>
        <pt x="426" y="562" on="0"/>
        <pt x="510" y="522" on="0"/>
        <pt x="567" y="456" on="0"/>
        <pt x="597" y="371" on="0"/>
        <pt x="597" y="325" on="1"/>
        <pt x="597" y="262" on="0"/>
        <pt x="540" y="144" on="0"/>
        <pt x="444" y="52" on="0"/>
        <pt x="318" y="-4" on="0"/>
      </contour>
      <contour>
        <pt x="273" y="103" on="1"/>
        <pt x="318" y="103" on="0"/>
        <pt x="392" y="142" on="0"/>
        <pt x="444" y="203" on="0"/>
        <pt x="473" y="278" on="0"/>
        <pt x="473" y="314" on="1"/>
        <pt x="473" y="342" on="0"/>
        <pt x="457" y="393" on="0"/>
        <pt x="425" y="431" on="0"/>
        <pt x="378" y="454" on="0"/>
        <pt x="347" y="454" on="1"/>
        <pt x="302" y="454" on="0"/>
        <pt x="229" y="416" on="0"/>
        <pt x="176" y="356" on="0"/>
        <pt x="147" y="281" on="0"/>
        <pt x="147" y="244" on="1"/>
        <pt x="147" y="216" on="0"/>
        <pt x="163" y="165" on="0"/>
        <pt x="194" y="126" on="0"/>
        <pt x="241" y="103" on="0"/>
      </contour>
    </TTGlyph>
    <TTGlyph name="OE" xMin="37" yMin="-5" xMax="1077" yMax="715">
      <contour>
        <pt x="289" y="-5" on="1"/>
        <pt x="228" y="-5" on="0"/>
        <pt x="134" y="44" on="0"/>
        <pt x="70" y="125" on="0"/>
        <pt x="37" y="231" on="0"/>
        <pt x="37" y="288" on="1"/>
        <pt x="37" y="369" on="0"/>
        <pt x="105" y="523" on="0"/>
        <pt x="218" y="643" on="0"/>
        <pt x="365" y="715" on="0"/>
        <pt x="445" y="715" on="1"/>
        <pt x="504" y="715" on="0"/>
        <pt x="585" y="653" on="0"/>
        <pt x="607" y="606" on="1"/>
        <pt x="629" y="710" on="1"/>
        <pt x="1077" y="710" on="1"/>
        <pt x="1051" y="589" on="1"/>
        <pt x="740" y="589" on="1"/>
        <pt x="705" y="422" on="1"/>
        <pt x="964" y="422" on="1"/>
        <pt x="939" y="301" on="1"/>
        <pt x="679" y="301" on="1"/>
        <pt x="641" y="121" on="1"/>
        <pt x="960" y="121" on="1"/>
        <pt x="934" y="0" on="1"/>
        <pt x="478" y="0" on="1"/>
        <pt x="500" y="105" on="1"/>
        <pt x="458" y="57" on="0"/>
        <pt x="348" y="-5" on="0"/>
      </contour>
      <contour>
        <pt x="316" y="117" on="1"/>
        <pt x="369" y="117" on="0"/>
        <pt x="457" y="171" on="0"/>
        <pt x="520" y="257" on="0"/>
        <pt x="555" y="362" on="0"/>
        <pt x="555" y="412" on="1"/>
        <pt x="555" y="448" on="0"/>
        <pt x="537" y="514" on="0"/>
        <pt x="503" y="563" on="0"/>
        <pt x="451" y="593" on="0"/>
        <pt x="417" y="593" on="1"/>
        <pt x="364" y="593" on="0"/>
        <pt x="276" y="539" on="0"/>
        <pt x="213" y="453" on="0"/>
        <pt x="177" y="349" on="0"/>
        <pt x="177" y="298" on="1"/>
        <pt x="177" y="262" on="0"/>
        <pt x="194" y="196" on="0"/>
        <pt x="229" y="146" on="0"/>
        <pt x="281" y="117" on="0"/>
      </contour>
    </TTGlyph>
    <TTGlyph name="Oacute" xMin="37" yMin="-5" xMax="714" yMax="916">
      <contour>
        <pt x="494" y="780" on="1"/>
        <pt x="407" y="797" on="1"/>
        <pt x="483" y="916" on="1"/>
        <pt x="607" y="916" on="1"/>
      </contour>
      <contour>
        <pt x="299" y="-5" on="1"/>
        <pt x="236" y="-5" on="0"/>
        <pt x="138" y="44" on="0"/>
        <pt x="71" y="126" on="0"/>
        <pt x="37" y="232" on="0"/>
        <pt x="37" y="290" on="1"/>
        <pt x="37" y="371" on="0"/>
        <pt x="106" y="524" on="0"/>
        <pt x="222" y="643" on="0"/>
        <pt x="373" y="715" on="0"/>
        <pt x="455" y="715" on="1"/>
        <pt x="518" y="715" on="0"/>
        <pt x="615" y="665" on="0"/>
        <pt x="680" y="583" on="0"/>
        <pt x="714" y="475" on="0"/>
        <pt x="714" y="418" on="1"/>
        <pt x="714" y="338" on="0"/>
        <pt x="646" y="185" on="0"/>
        <pt x="531" y="67" on="0"/>
        <pt x="381" y="-5" on="0"/>
      </contour>
      <contour>
        <pt x="326" y="117" on="1"/>
        <pt x="381" y="117" on="0"/>
        <pt x="472" y="171" on="0"/>
        <pt x="538" y="255" on="0"/>
        <pt x="574" y="358" on="0"/>
        <pt x="574" y="408" on="1"/>
        <pt x="574" y="445" on="0"/>
        <pt x="556" y="512" on="0"/>
        <pt x="519" y="562" on="0"/>
        <pt x="463" y="592" on="0"/>
        <pt x="426" y="592" on="1"/>
        <pt x="371" y="592" on="0"/>
        <pt x="279" y="539" on="0"/>
        <pt x="213" y="455" on="0"/>
        <pt x="177" y="352" on="0"/>
        <pt x="177" y="301" on="1"/>
        <pt x="177" y="264" on="0"/>
        <pt x="195" y="198" on="0"/>
        <pt x="233" y="147" on="0"/>
        <pt x="288" y="117" on="0"/>
      </contour>
    </TTGlyph>
    <TTGlyph name="Obreve" xMin="37" yMin="-5" xMax="714" yMax="916">
      <contour>
        <pt x="299" y="-5" on="1"/>
        <pt x="236" y="-5" on="0"/>
        <pt x="138" y="44" on="0"/>
        <pt x="71" y="126" on="0"/>
        <pt x="37" y="232" on="0"/>
        <pt x="37" y="290" on="1"/>
        <pt x="37" y="371" on="0"/>
        <pt x="106" y="524" on="0"/>
        <pt x="222" y="643" on="0"/>
        <pt x="373" y="715" on="0"/>
        <pt x="455" y="715" on="1"/>
        <pt x="518" y="715" on="0"/>
        <pt x="615" y="665" on="0"/>
        <pt x="680" y="583" on="0"/>
        <pt x="714" y="475" on="0"/>
        <pt x="714" y="418" on="1"/>
        <pt x="714" y="338" on="0"/>
        <pt x="646" y="185" on="0"/>
        <pt x="531" y="67" on="0"/>
        <pt x="381" y="-5" on="0"/>
      </contour>
      <contour>
        <pt x="326" y="117" on="1"/>
        <pt x="381" y="117" on="0"/>
        <pt x="472" y="171" on="0"/>
        <pt x="538" y="255" on="0"/>
        <pt x="574" y="358" on="0"/>
        <pt x="574" y="408" on="1"/>
        <pt x="574" y="445" on="0"/>
        <pt x="556" y="512" on="0"/>
        <pt x="519" y="562" on="0"/>
        <pt x="463" y="592" on="0"/>
        <pt x="426" y="592" on="1"/>
        <pt x="371" y="592" on="0"/>
        <pt x="279" y="539" on="0"/>
        <pt x="213" y="455" on="0"/>
        <pt x="177" y="352" on="0"/>
        <pt x="177" y="301" on="1"/>
        <pt x="177" y="264" on="0"/>
        <pt x="195" y="198" on="0"/>
        <pt x="233" y="147" on="0"/>
        <pt x="288" y="117" on="0"/>
      </contour>
      <contour>
        <pt x="477" y="842" on="1"/>
        <pt x="498" y="842" on="0"/>
        <pt x="539" y="884" on="0"/>
        <pt x="549" y="916" on="1"/>
        <pt x="621" y="916" on="1"/>
        <pt x="615" y="887" on="0"/>
        <pt x="585" y="838" on="0"/>
        <pt x="544" y="802" on="0"/>
        <pt x="493" y="782" on="0"/>
        <pt x="465" y="782" on="1"/>
        <pt x="416" y="782" on="0"/>
        <pt x="361" y="838" on="0"/>
        <pt x="361" y="883" on="1"/>
        <pt x="361" y="901" on="0"/>
        <pt x="365" y="916" on="1"/>
        <pt x="437" y="916" on="1"/>
        <pt x="434" y="905" on="0"/>
        <pt x="434" y="896" on="1"/>
        <pt x="434" y="873" on="0"/>
        <pt x="458" y="842" on="0"/>
      </contour>
    </TTGlyph>
    <TTGlyph name="Ocircumflex" xMin="37" yMin="-5" xMax="714" yMax="916">
      <contour>
        <pt x="329" y="815" on="1"/>
        <pt x="452" y="916" on="1"/>
        <pt x="549" y="916" on="1"/>
        <pt x="629" y="815" on="1"/>
        <pt x="552" y="783" on="1"/>
        <pt x="485" y="846" on="1"/>
        <pt x="391" y="783" on="1"/>
      </contour>
      <contour>
        <pt x="299" y="-5" on="1"/>
        <pt x="236" y="-5" on="0"/>
        <pt x="138" y="44" on="0"/>
        <pt x="71" y="126" on="0"/>
        <pt x="37" y="232" on="0"/>
        <pt x="37" y="290" on="1"/>
        <pt x="37" y="371" on="0"/>
        <pt x="106" y="524" on="0"/>
        <pt x="222" y="643" on="0"/>
        <pt x="373" y="715" on="0"/>
        <pt x="455" y="715" on="1"/>
        <pt x="518" y="715" on="0"/>
        <pt x="615" y="665" on="0"/>
        <pt x="680" y="583" on="0"/>
        <pt x="714" y="475" on="0"/>
        <pt x="714" y="418" on="1"/>
        <pt x="714" y="338" on="0"/>
        <pt x="646" y="185" on="0"/>
        <pt x="531" y="67" on="0"/>
        <pt x="381" y="-5" on="0"/>
      </contour>
      <contour>
        <pt x="326" y="117" on="1"/>
        <pt x="381" y="117" on="0"/>
        <pt x="472" y="171" on="0"/>
        <pt x="538" y="255" on="0"/>
        <pt x="574" y="358" on="0"/>
        <pt x="574" y="408" on="1"/>
        <pt x="574" y="445" on="0"/>
        <pt x="556" y="512" on="0"/>
        <pt x="519" y="562" on="0"/>
        <pt x="463" y="592" on="0"/>
        <pt x="426" y="592" on="1"/>
        <pt x="371" y="592" on="0"/>
        <pt x="279" y="539" on="0"/>
        <pt x="213" y="455" on="0"/>
        <pt x="177" y="352" on="0"/>
        <pt x="177" y="301" on="1"/>
        <pt x="177" y="264" on="0"/>
        <pt x="195" y="198" on="0"/>
        <pt x="233" y="147" on="0"/>
        <pt x="288" y="117" on="0"/>
      </contour>
    </TTGlyph>
    <TTGlyph name="Odblgrave" xMin="37" yMin="-5" xMax="714" yMax="918">
      <contour>
        <pt x="502" y="918" on="1"/>
        <pt x="604" y="918" on="1"/>
        <pt x="624" y="799" on="1"/>
        <pt x="551" y="781" on="1"/>
      </contour>
      <contour>
        <pt x="345" y="918" on="1"/>
        <pt x="449" y="918" on="1"/>
        <pt x="467" y="799" on="1"/>
        <pt x="395" y="781" on="1"/>
      </contour>
      <contour>
        <pt x="299" y="-5" on="1"/>
        <pt x="236" y="-5" on="0"/>
        <pt x="138" y="44" on="0"/>
        <pt x="71" y="126" on="0"/>
        <pt x="37" y="232" on="0"/>
        <pt x="37" y="290" on="1"/>
        <pt x="37" y="371" on="0"/>
        <pt x="106" y="524" on="0"/>
        <pt x="222" y="643" on="0"/>
        <pt x="373" y="715" on="0"/>
        <pt x="455" y="715" on="1"/>
        <pt x="518" y="715" on="0"/>
        <pt x="615" y="665" on="0"/>
        <pt x="680" y="583" on="0"/>
        <pt x="714" y="475" on="0"/>
        <pt x="714" y="418" on="1"/>
        <pt x="714" y="338" on="0"/>
        <pt x="646" y="185" on="0"/>
        <pt x="531" y="67" on="0"/>
        <pt x="381" y="-5" on="0"/>
      </contour>
      <contour>
        <pt x="326" y="117" on="1"/>
        <pt x="381" y="117" on="0"/>
        <pt x="472" y="171" on="0"/>
        <pt x="538" y="255" on="0"/>
        <pt x="574" y="358" on="0"/>
        <pt x="574" y="408" on="1"/>
        <pt x="574" y="445" on="0"/>
        <pt x="556" y="512" on="0"/>
        <pt x="519" y="562" on="0"/>
        <pt x="463" y="592" on="0"/>
        <pt x="426" y="592" on="1"/>
        <pt x="371" y="592" on="0"/>
        <pt x="279" y="539" on="0"/>
        <pt x="213" y="455" on="0"/>
        <pt x="177" y="352" on="0"/>
        <pt x="177" y="301" on="1"/>
        <pt x="177" y="264" on="0"/>
        <pt x="195" y="198" on="0"/>
        <pt x="233" y="147" on="0"/>
        <pt x="288" y="117" on="0"/>
      </contour>
    </TTGlyph>
    <TTGlyph name="Odieresis" xMin="37" yMin="-5" xMax="714" yMax="910">
      <contour>
        <pt x="321" y="791" on="1"/>
        <pt x="347" y="910" on="1"/>
        <pt x="458" y="910" on="1"/>
        <pt x="432" y="791" on="1"/>
      </contour>
      <contour>
        <pt x="509" y="791" on="1"/>
        <pt x="534" y="910" on="1"/>
        <pt x="644" y="910" on="1"/>
        <pt x="620" y="791" on="1"/>
      </contour>
      <contour>
        <pt x="299" y="-5" on="1"/>
        <pt x="236" y="-5" on="0"/>
        <pt x="138" y="44" on="0"/>
        <pt x="71" y="126" on="0"/>
        <pt x="37" y="232" on="0"/>
        <pt x="37" y="290" on="1"/>
        <pt x="37" y="371" on="0"/>
        <pt x="106" y="524" on="0"/>
        <pt x="222" y="643" on="0"/>
        <pt x="373" y="715" on="0"/>
        <pt x="455" y="715" on="1"/>
        <pt x="518" y="715" on="0"/>
        <pt x="615" y="665" on="0"/>
        <pt x="680" y="583" on="0"/>
        <pt x="714" y="475" on="0"/>
        <pt x="714" y="418" on="1"/>
        <pt x="714" y="338" on="0"/>
        <pt x="646" y="185" on="0"/>
        <pt x="531" y="67" on="0"/>
        <pt x="381" y="-5" on="0"/>
      </contour>
      <contour>
        <pt x="326" y="117" on="1"/>
        <pt x="381" y="117" on="0"/>
        <pt x="472" y="171" on="0"/>
        <pt x="538" y="255" on="0"/>
        <pt x="574" y="358" on="0"/>
        <pt x="574" y="408" on="1"/>
        <pt x="574" y="445" on="0"/>
        <pt x="556" y="512" on="0"/>
        <pt x="519" y="562" on="0"/>
        <pt x="463" y="592" on="0"/>
        <pt x="426" y="592" on="1"/>
        <pt x="371" y="592" on="0"/>
        <pt x="279" y="539" on="0"/>
        <pt x="213" y="455" on="0"/>
        <pt x="177" y="352" on="0"/>
        <pt x="177" y="301" on="1"/>
        <pt x="177" y="264" on="0"/>
        <pt x="195" y="198" on="0"/>
        <pt x="233" y="147" on="0"/>
        <pt x="288" y="117" on="0"/>
      </contour>
    </TTGlyph>
    <TTGlyph name="Odotbelow" xMin="37" yMin="-196" xMax="714" yMax="715">
      <contour>
        <pt x="203" y="-196" on="1"/>
        <pt x="230" y="-70" on="1"/>
        <pt x="350" y="-70" on="1"/>
        <pt x="323" y="-196" on="1"/>
      </contour>
      <contour>
        <pt x="299" y="-5" on="1"/>
        <pt x="236" y="-5" on="0"/>
        <pt x="138" y="44" on="0"/>
        <pt x="71" y="126" on="0"/>
        <pt x="37" y="232" on="0"/>
        <pt x="37" y="290" on="1"/>
        <pt x="37" y="371" on="0"/>
        <pt x="106" y="524" on="0"/>
        <pt x="222" y="643" on="0"/>
        <pt x="373" y="715" on="0"/>
        <pt x="455" y="715" on="1"/>
        <pt x="518" y="715" on="0"/>
        <pt x="615" y="665" on="0"/>
        <pt x="680" y="583" on="0"/>
        <pt x="714" y="475" on="0"/>
        <pt x="714" y="418" on="1"/>
        <pt x="714" y="338" on="0"/>
        <pt x="646" y="185" on="0"/>
        <pt x="531" y="67" on="0"/>
        <pt x="381" y="-5" on="0"/>
      </contour>
      <contour>
        <pt x="326" y="117" on="1"/>
        <pt x="381" y="117" on="0"/>
        <pt x="472" y="171" on="0"/>
        <pt x="538" y="255" on="0"/>
        <pt x="574" y="358" on="0"/>
        <pt x="574" y="408" on="1"/>
        <pt x="574" y="445" on="0"/>
        <pt x="556" y="512" on="0"/>
        <pt x="519" y="562" on="0"/>
        <pt x="463" y="592" on="0"/>
        <pt x="426" y="592" on="1"/>
        <pt x="371" y="592" on="0"/>
        <pt x="279" y="539" on="0"/>
        <pt x="213" y="455" on="0"/>
        <pt x="177" y="352" on="0"/>
        <pt x="177" y="301" on="1"/>
        <pt x="177" y="264" on="0"/>
        <pt x="195" y="198" on="0"/>
        <pt x="233" y="147" on="0"/>
        <pt x="288" y="117" on="0"/>
      </contour>
    </TTGlyph>
    <TTGlyph name="Ograve" xMin="37" yMin="-5" xMax="714" yMax="917">
      <contour>
        <pt x="299" y="-5" on="1"/>
        <pt x="236" y="-5" on="0"/>
        <pt x="138" y="44" on="0"/>
        <pt x="71" y="126" on="0"/>
        <pt x="37" y="232" on="0"/>
        <pt x="37" y="290" on="1"/>
        <pt x="37" y="371" on="0"/>
        <pt x="106" y="524" on="0"/>
        <pt x="222" y="643" on="0"/>
        <pt x="373" y="715" on="0"/>
        <pt x="455" y="715" on="1"/>
        <pt x="518" y="715" on="0"/>
        <pt x="615" y="665" on="0"/>
        <pt x="680" y="583" on="0"/>
        <pt x="714" y="475" on="0"/>
        <pt x="714" y="418" on="1"/>
        <pt x="714" y="338" on="0"/>
        <pt x="646" y="185" on="0"/>
        <pt x="531" y="67" on="0"/>
        <pt x="381" y="-5" on="0"/>
      </contour>
      <contour>
        <pt x="326" y="117" on="1"/>
        <pt x="381" y="117" on="0"/>
        <pt x="472" y="171" on="0"/>
        <pt x="538" y="255" on="0"/>
        <pt x="574" y="358" on="0"/>
        <pt x="574" y="408" on="1"/>
        <pt x="574" y="445" on="0"/>
        <pt x="556" y="512" on="0"/>
        <pt x="519" y="562" on="0"/>
        <pt x="463" y="592" on="0"/>
        <pt x="426" y="592" on="1"/>
        <pt x="371" y="592" on="0"/>
        <pt x="279" y="539" on="0"/>
        <pt x="213" y="455" on="0"/>
        <pt x="177" y="352" on="0"/>
        <pt x="177" y="301" on="1"/>
        <pt x="177" y="264" on="0"/>
        <pt x="195" y="198" on="0"/>
        <pt x="233" y="147" on="0"/>
        <pt x="288" y="117" on="0"/>
      </contour>
      <contour>
        <pt x="394" y="917" on="1"/>
        <pt x="517" y="917" on="1"/>
        <pt x="543" y="798" on="1"/>
        <pt x="450" y="780" on="1"/>
      </contour>
    </TTGlyph>
    <TTGlyph name="Ohungarumlaut" xMin="37" yMin="-5" xMax="714" yMax="906">
      <contour>
        <pt x="401" y="771" on="1"/>
        <pt x="334" y="787" on="1"/>
        <pt x="404" y="906" on="1"/>
        <pt x="507" y="906" on="1"/>
      </contour>
      <contour>
        <pt x="557" y="771" on="1"/>
        <pt x="491" y="787" on="1"/>
        <pt x="560" y="906" on="1"/>
        <pt x="663" y="906" on="1"/>
      </contour>
      <contour>
        <pt x="299" y="-5" on="1"/>
        <pt x="236" y="-5" on="0"/>
        <pt x="138" y="44" on="0"/>
        <pt x="71" y="126" on="0"/>
        <pt x="37" y="232" on="0"/>
        <pt x="37" y="290" on="1"/>
        <pt x="37" y="371" on="0"/>
        <pt x="106" y="524" on="0"/>
        <pt x="222" y="643" on="0"/>
        <pt x="373" y="715" on="0"/>
        <pt x="455" y="715" on="1"/>
        <pt x="518" y="715" on="0"/>
        <pt x="615" y="665" on="0"/>
        <pt x="680" y="583" on="0"/>
        <pt x="714" y="475" on="0"/>
        <pt x="714" y="418" on="1"/>
        <pt x="714" y="338" on="0"/>
        <pt x="646" y="185" on="0"/>
        <pt x="531" y="67" on="0"/>
        <pt x="381" y="-5" on="0"/>
      </contour>
      <contour>
        <pt x="326" y="117" on="1"/>
        <pt x="381" y="117" on="0"/>
        <pt x="472" y="171" on="0"/>
        <pt x="538" y="255" on="0"/>
        <pt x="574" y="358" on="0"/>
        <pt x="574" y="408" on="1"/>
        <pt x="574" y="445" on="0"/>
        <pt x="556" y="512" on="0"/>
        <pt x="519" y="562" on="0"/>
        <pt x="463" y="592" on="0"/>
        <pt x="426" y="592" on="1"/>
        <pt x="371" y="592" on="0"/>
        <pt x="279" y="539" on="0"/>
        <pt x="213" y="455" on="0"/>
        <pt x="177" y="352" on="0"/>
        <pt x="177" y="301" on="1"/>
        <pt x="177" y="264" on="0"/>
        <pt x="195" y="198" on="0"/>
        <pt x="233" y="147" on="0"/>
        <pt x="288" y="117" on="0"/>
      </contour>
    </TTGlyph>
    <TTGlyph name="Oinvertedbreve" xMin="37" yMin="-5" xMax="714" yMax="916">
      <contour>
        <pt x="349" y="782" on="1"/>
        <pt x="355" y="811" on="0"/>
        <pt x="384" y="860" on="0"/>
        <pt x="426" y="896" on="0"/>
        <pt x="477" y="916" on="0"/>
        <pt x="504" y="916" on="1"/>
        <pt x="553" y="916" on="0"/>
        <pt x="607" y="856" on="0"/>
        <pt x="607" y="812" on="1"/>
        <pt x="607" y="797" on="0"/>
        <pt x="604" y="782" on="1"/>
        <pt x="533" y="782" on="1"/>
        <pt x="534" y="790" on="0"/>
        <pt x="535" y="804" on="0"/>
        <pt x="535" y="810" on="1"/>
        <pt x="535" y="856" on="0"/>
        <pt x="493" y="856" on="1"/>
        <pt x="435" y="856" on="0"/>
        <pt x="420" y="782" on="1"/>
      </contour>
      <contour>
        <pt x="299" y="-5" on="1"/>
        <pt x="236" y="-5" on="0"/>
        <pt x="138" y="44" on="0"/>
        <pt x="71" y="126" on="0"/>
        <pt x="37" y="232" on="0"/>
        <pt x="37" y="290" on="1"/>
        <pt x="37" y="371" on="0"/>
        <pt x="106" y="524" on="0"/>
        <pt x="222" y="643" on="0"/>
        <pt x="373" y="715" on="0"/>
        <pt x="455" y="715" on="1"/>
        <pt x="518" y="715" on="0"/>
        <pt x="615" y="665" on="0"/>
        <pt x="680" y="583" on="0"/>
        <pt x="714" y="475" on="0"/>
        <pt x="714" y="418" on="1"/>
        <pt x="714" y="338" on="0"/>
        <pt x="646" y="185" on="0"/>
        <pt x="531" y="67" on="0"/>
        <pt x="381" y="-5" on="0"/>
      </contour>
      <contour>
        <pt x="326" y="117" on="1"/>
        <pt x="381" y="117" on="0"/>
        <pt x="472" y="171" on="0"/>
        <pt x="538" y="255" on="0"/>
        <pt x="574" y="358" on="0"/>
        <pt x="574" y="408" on="1"/>
        <pt x="574" y="445" on="0"/>
        <pt x="556" y="512" on="0"/>
        <pt x="519" y="562" on="0"/>
        <pt x="463" y="592" on="0"/>
        <pt x="426" y="592" on="1"/>
        <pt x="371" y="592" on="0"/>
        <pt x="279" y="539" on="0"/>
        <pt x="213" y="455" on="0"/>
        <pt x="177" y="352" on="0"/>
        <pt x="177" y="301" on="1"/>
        <pt x="177" y="264" on="0"/>
        <pt x="195" y="198" on="0"/>
        <pt x="233" y="147" on="0"/>
        <pt x="288" y="117" on="0"/>
      </contour>
    </TTGlyph>
    <TTGlyph name="Omacron" xMin="37" yMin="-5" xMax="714" yMax="901">
      <contour>
        <pt x="334" y="818" on="1"/>
        <pt x="352" y="901" on="1"/>
        <pt x="638" y="901" on="1"/>
        <pt x="620" y="818" on="1"/>
      </contour>
      <contour>
        <pt x="299" y="-5" on="1"/>
        <pt x="236" y="-5" on="0"/>
        <pt x="138" y="44" on="0"/>
        <pt x="71" y="126" on="0"/>
        <pt x="37" y="232" on="0"/>
        <pt x="37" y="290" on="1"/>
        <pt x="37" y="371" on="0"/>
        <pt x="106" y="524" on="0"/>
        <pt x="222" y="643" on="0"/>
        <pt x="373" y="715" on="0"/>
        <pt x="455" y="715" on="1"/>
        <pt x="518" y="715" on="0"/>
        <pt x="615" y="665" on="0"/>
        <pt x="680" y="583" on="0"/>
        <pt x="714" y="475" on="0"/>
        <pt x="714" y="418" on="1"/>
        <pt x="714" y="338" on="0"/>
        <pt x="646" y="185" on="0"/>
        <pt x="531" y="67" on="0"/>
        <pt x="381" y="-5" on="0"/>
      </contour>
      <contour>
        <pt x="326" y="117" on="1"/>
        <pt x="381" y="117" on="0"/>
        <pt x="472" y="171" on="0"/>
        <pt x="538" y="255" on="0"/>
        <pt x="574" y="358" on="0"/>
        <pt x="574" y="408" on="1"/>
        <pt x="574" y="445" on="0"/>
        <pt x="556" y="512" on="0"/>
        <pt x="519" y="562" on="0"/>
        <pt x="463" y="592" on="0"/>
        <pt x="426" y="592" on="1"/>
        <pt x="371" y="592" on="0"/>
        <pt x="279" y="539" on="0"/>
        <pt x="213" y="455" on="0"/>
        <pt x="177" y="352" on="0"/>
        <pt x="177" y="301" on="1"/>
        <pt x="177" y="264" on="0"/>
        <pt x="195" y="198" on="0"/>
        <pt x="233" y="147" on="0"/>
        <pt x="288" y="117" on="0"/>
      </contour>
    </TTGlyph>
    <TTGlyph name="Omega" xMin="44" yMin="0" xMax="743" yMax="715">
      <contour>
        <pt x="44" y="102" on="1"/>
        <pt x="210" y="102" on="1"/>
        <pt x="138" y="143" on="0"/>
        <pt x="54" y="282" on="0"/>
        <pt x="54" y="370" on="1"/>
        <pt x="54" y="438" on="0"/>
        <pt x="106" y="563" on="0"/>
        <pt x="197" y="658" on="0"/>
        <pt x="321" y="715" on="0"/>
        <pt x="394" y="715" on="1"/>
        <pt x="467" y="715" on="0"/>
        <pt x="591" y="658" on="0"/>
        <pt x="682" y="563" on="0"/>
        <pt x="733" y="438" on="0"/>
        <pt x="733" y="370" on="1"/>
        <pt x="733" y="282" on="0"/>
        <pt x="650" y="143" on="0"/>
        <pt x="578" y="102" on="1"/>
        <pt x="743" y="102" on="1"/>
        <pt x="743" y="0" on="1"/>
        <pt x="436" y="0" on="1"/>
        <pt x="436" y="102" on="1"/>
        <pt x="473" y="115" on="0"/>
        <pt x="533" y="171" on="0"/>
        <pt x="575" y="243" on="0"/>
        <pt x="597" y="328" on="0"/>
        <pt x="597" y="370" on="1"/>
        <pt x="597" y="411" on="0"/>
        <pt x="569" y="491" on="0"/>
        <pt x="516" y="554" on="0"/>
        <pt x="441" y="592" on="0"/>
        <pt x="394" y="592" on="1"/>
        <pt x="347" y="592" on="0"/>
        <pt x="271" y="554" on="0"/>
        <pt x="218" y="491" on="0"/>
        <pt x="190" y="411" on="0"/>
        <pt x="190" y="370" on="1"/>
        <pt x="190" y="328" on="0"/>
        <pt x="213" y="243" on="0"/>
        <pt x="255" y="171" on="0"/>
        <pt x="314" y="115" on="0"/>
        <pt x="351" y="102" on="1"/>
        <pt x="351" y="0" on="1"/>
        <pt x="44" y="0" on="1"/>
      </contour>
    </TTGlyph>
    <TTGlyph name="Oogonek" xMin="37" yMin="-196" xMax="714" yMax="715">
      <contour>
        <pt x="264" y="-196" on="1"/>
        <pt x="214" y="-188" on="0"/>
        <pt x="167" y="-147" on="0"/>
        <pt x="167" y="-120" on="1"/>
        <pt x="167" y="-59" on="0"/>
        <pt x="265" y="-3" on="1"/>
        <pt x="209" y="3" on="0"/>
        <pt x="124" y="56" on="0"/>
        <pt x="67" y="136" on="0"/>
        <pt x="37" y="236" on="0"/>
        <pt x="37" y="290" on="1"/>
        <pt x="37" y="371" on="0"/>
        <pt x="106" y="524" on="0"/>
        <pt x="222" y="643" on="0"/>
        <pt x="373" y="715" on="0"/>
        <pt x="455" y="715" on="1"/>
        <pt x="518" y="715" on="0"/>
        <pt x="615" y="665" on="0"/>
        <pt x="680" y="583" on="0"/>
        <pt x="714" y="475" on="0"/>
        <pt x="714" y="418" on="1"/>
        <pt x="714" y="343" on="0"/>
        <pt x="654" y="200" on="0"/>
        <pt x="552" y="85" on="0"/>
        <pt x="417" y="7" on="0"/>
        <pt x="342" y="-2" on="1"/>
        <pt x="254" y="-53" on="0"/>
        <pt x="254" y="-91" on="1"/>
        <pt x="254" y="-123" on="0"/>
        <pt x="306" y="-126" on="1"/>
      </contour>
      <contour>
        <pt x="326" y="117" on="1"/>
        <pt x="381" y="117" on="0"/>
        <pt x="472" y="171" on="0"/>
        <pt x="538" y="255" on="0"/>
        <pt x="574" y="358" on="0"/>
        <pt x="574" y="408" on="1"/>
        <pt x="574" y="445" on="0"/>
        <pt x="556" y="512" on="0"/>
        <pt x="519" y="562" on="0"/>
        <pt x="463" y="592" on="0"/>
        <pt x="426" y="592" on="1"/>
        <pt x="371" y="592" on="0"/>
        <pt x="279" y="539" on="0"/>
        <pt x="213" y="455" on="0"/>
        <pt x="177" y="352" on="0"/>
        <pt x="177" y="301" on="1"/>
        <pt x="177" y="264" on="0"/>
        <pt x="195" y="198" on="0"/>
        <pt x="233" y="147" on="0"/>
        <pt x="288" y="117" on="0"/>
      </contour>
    </TTGlyph>
    <TTGlyph name="Oslash" xMin="-9" yMin="-5" xMax="763" yMax="715">
      <contour>
        <pt x="763" y="710" on="1"/>
        <pt x="665" y="599" on="1"/>
        <pt x="689" y="560" on="0"/>
        <pt x="714" y="467" on="0"/>
        <pt x="714" y="418" on="1"/>
        <pt x="714" y="338" on="0"/>
        <pt x="646" y="185" on="0"/>
        <pt x="531" y="67" on="0"/>
        <pt x="381" y="-5" on="0"/>
        <pt x="299" y="-5" on="1"/>
        <pt x="260" y="-5" on="0"/>
        <pt x="194" y="14" on="0"/>
        <pt x="166" y="31" on="1"/>
        <pt x="139" y="0" on="1"/>
        <pt x="-9" y="0" on="1"/>
        <pt x="87" y="109" on="1"/>
        <pt x="62" y="147" on="0"/>
        <pt x="37" y="240" on="0"/>
        <pt x="37" y="290" on="1"/>
        <pt x="37" y="371" on="0"/>
        <pt x="106" y="524" on="0"/>
        <pt x="222" y="643" on="0"/>
        <pt x="373" y="715" on="0"/>
        <pt x="455" y="715" on="1"/>
        <pt x="493" y="715" on="0"/>
        <pt x="560" y="695" on="0"/>
        <pt x="587" y="678" on="1"/>
        <pt x="615" y="710" on="1"/>
      </contour>
      <contour>
        <pt x="177" y="301" on="1"/>
        <pt x="177" y="281" on="0"/>
        <pt x="182" y="241" on="0"/>
        <pt x="188" y="224" on="1"/>
        <pt x="496" y="574" on="1"/>
        <pt x="481" y="582" on="0"/>
        <pt x="446" y="592" on="0"/>
        <pt x="426" y="592" on="1"/>
        <pt x="371" y="592" on="0"/>
        <pt x="279" y="539" on="0"/>
        <pt x="213" y="455" on="0"/>
        <pt x="177" y="352" on="0"/>
      </contour>
      <contour>
        <pt x="326" y="117" on="1"/>
        <pt x="381" y="117" on="0"/>
        <pt x="472" y="171" on="0"/>
        <pt x="538" y="255" on="0"/>
        <pt x="574" y="358" on="0"/>
        <pt x="574" y="408" on="1"/>
        <pt x="574" y="447" on="0"/>
        <pt x="563" y="483" on="1"/>
        <pt x="256" y="134" on="1"/>
        <pt x="287" y="117" on="0"/>
      </contour>
    </TTGlyph>
    <TTGlyph name="Oslashacute" xMin="-11" yMin="-5" xMax="761" yMax="916">
      <contour>
        <pt x="761" y="710" on="1"/>
        <pt x="664" y="600" on="1"/>
        <pt x="689" y="561" on="0"/>
        <pt x="714" y="468" on="0"/>
        <pt x="714" y="418" on="1"/>
        <pt x="714" y="338" on="0"/>
        <pt x="646" y="185" on="0"/>
        <pt x="531" y="67" on="0"/>
        <pt x="381" y="-5" on="0"/>
        <pt x="299" y="-5" on="1"/>
        <pt x="260" y="-5" on="0"/>
        <pt x="193" y="14" on="0"/>
        <pt x="165" y="31" on="1"/>
        <pt x="137" y="0" on="1"/>
        <pt x="-11" y="0" on="1"/>
        <pt x="86" y="110" on="1"/>
        <pt x="61" y="148" on="0"/>
        <pt x="37" y="240" on="0"/>
        <pt x="37" y="290" on="1"/>
        <pt x="37" y="371" on="0"/>
        <pt x="106" y="524" on="0"/>
        <pt x="222" y="643" on="0"/>
        <pt x="373" y="715" on="0"/>
        <pt x="455" y="715" on="1"/>
        <pt x="493" y="715" on="0"/>
        <pt x="558" y="696" on="0"/>
        <pt x="586" y="679" on="1"/>
        <pt x="613" y="710" on="1"/>
      </contour>
      <contour>
        <pt x="326" y="117" on="1"/>
        <pt x="381" y="117" on="0"/>
        <pt x="472" y="171" on="0"/>
        <pt x="538" y="255" on="0"/>
        <pt x="574" y="358" on="0"/>
        <pt x="574" y="408" on="1"/>
        <pt x="574" y="448" on="0"/>
        <pt x="563" y="484" on="1"/>
        <pt x="255" y="134" on="1"/>
        <pt x="286" y="117" on="0"/>
      </contour>
      <contour>
        <pt x="177" y="301" on="1"/>
        <pt x="177" y="259" on="0"/>
        <pt x="187" y="226" on="1"/>
        <pt x="494" y="575" on="1"/>
        <pt x="480" y="583" on="0"/>
        <pt x="446" y="592" on="0"/>
        <pt x="426" y="592" on="1"/>
        <pt x="371" y="592" on="0"/>
        <pt x="279" y="539" on="0"/>
        <pt x="213" y="455" on="0"/>
        <pt x="177" y="352" on="0"/>
      </contour>
      <contour>
        <pt x="498" y="780" on="1"/>
        <pt x="411" y="797" on="1"/>
        <pt x="487" y="916" on="1"/>
        <pt x="611" y="916" on="1"/>
      </contour>
    </TTGlyph>
    <TTGlyph name="Otilde" xMin="37" yMin="-5" xMax="714" yMax="916">
      <contour>
        <pt x="299" y="-5" on="1"/>
        <pt x="236" y="-5" on="0"/>
        <pt x="138" y="44" on="0"/>
        <pt x="71" y="126" on="0"/>
        <pt x="37" y="232" on="0"/>
        <pt x="37" y="290" on="1"/>
        <pt x="37" y="371" on="0"/>
        <pt x="106" y="524" on="0"/>
        <pt x="222" y="643" on="0"/>
        <pt x="373" y="715" on="0"/>
        <pt x="455" y="715" on="1"/>
        <pt x="518" y="715" on="0"/>
        <pt x="615" y="665" on="0"/>
        <pt x="680" y="583" on="0"/>
        <pt x="714" y="475" on="0"/>
        <pt x="714" y="418" on="1"/>
        <pt x="714" y="338" on="0"/>
        <pt x="646" y="185" on="0"/>
        <pt x="531" y="67" on="0"/>
        <pt x="381" y="-5" on="0"/>
      </contour>
      <contour>
        <pt x="326" y="117" on="1"/>
        <pt x="381" y="117" on="0"/>
        <pt x="472" y="171" on="0"/>
        <pt x="538" y="255" on="0"/>
        <pt x="574" y="358" on="0"/>
        <pt x="574" y="408" on="1"/>
        <pt x="574" y="445" on="0"/>
        <pt x="556" y="512" on="0"/>
        <pt x="519" y="562" on="0"/>
        <pt x="463" y="592" on="0"/>
        <pt x="426" y="592" on="1"/>
        <pt x="371" y="592" on="0"/>
        <pt x="279" y="539" on="0"/>
        <pt x="213" y="455" on="0"/>
        <pt x="177" y="352" on="0"/>
        <pt x="177" y="301" on="1"/>
        <pt x="177" y="264" on="0"/>
        <pt x="195" y="198" on="0"/>
        <pt x="233" y="147" on="0"/>
        <pt x="288" y="117" on="0"/>
      </contour>
      <contour>
        <pt x="534" y="788" on="1"/>
        <pt x="513" y="788" on="0"/>
        <pt x="483" y="802" on="0"/>
        <pt x="458" y="819" on="0"/>
        <pt x="434" y="833" on="0"/>
        <pt x="418" y="833" on="1"/>
        <pt x="402" y="833" on="0"/>
        <pt x="381" y="819" on="0"/>
        <pt x="369" y="801" on="0"/>
        <pt x="364" y="786" on="0"/>
        <pt x="364" y="785" on="1"/>
        <pt x="290" y="785" on="1"/>
        <pt x="292" y="794" on="0"/>
        <pt x="312" y="837" on="0"/>
        <pt x="348" y="880" on="0"/>
        <pt x="399" y="913" on="0"/>
        <pt x="431" y="913" on="1"/>
        <pt x="453" y="913" on="0"/>
        <pt x="481" y="898" on="0"/>
        <pt x="505" y="881" on="0"/>
        <pt x="529" y="866" on="0"/>
        <pt x="546" y="866" on="1"/>
        <pt x="563" y="866" on="0"/>
        <pt x="586" y="880" on="0"/>
        <pt x="600" y="898" on="0"/>
        <pt x="607" y="914" on="0"/>
        <pt x="607" y="916" on="1"/>
        <pt x="680" y="916" on="1"/>
        <pt x="678" y="909" on="0"/>
        <pt x="658" y="867" on="0"/>
        <pt x="621" y="823" on="0"/>
        <pt x="568" y="788" on="0"/>
      </contour>
    </TTGlyph>
    <TTGlyph name="P" xMin="10" yMin="0" xMax="618" yMax="710">
      <contour>
        <pt x="161" y="710" on="1"/>
        <pt x="447" y="710" on="1"/>
        <pt x="487" y="710" on="0"/>
        <pt x="551" y="677" on="0"/>
        <pt x="595" y="622" on="0"/>
        <pt x="618" y="551" on="0"/>
        <pt x="618" y="514" on="1"/>
        <pt x="618" y="464" on="0"/>
        <pt x="576" y="365" on="0"/>
        <pt x="503" y="287" on="0"/>
        <pt x="406" y="238" on="0"/>
        <pt x="352" y="238" on="1"/>
        <pt x="197" y="238" on="1"/>
        <pt x="147" y="0" on="1"/>
        <pt x="10" y="0" on="1"/>
      </contour>
      <contour>
        <pt x="368" y="359" on="1"/>
        <pt x="389" y="359" on="0"/>
        <pt x="428" y="381" on="0"/>
        <pt x="459" y="420" on="0"/>
        <pt x="477" y="472" on="0"/>
        <pt x="477" y="503" on="1"/>
        <pt x="477" y="544" on="0"/>
        <pt x="439" y="589" on="0"/>
        <pt x="412" y="589" on="1"/>
        <pt x="272" y="589" on="1"/>
        <pt x="223" y="359" on="1"/>
      </contour>
    </TTGlyph>
    <TTGlyph name="P.sc" xMin="4" yMin="0" xMax="527" yMax="559">
      <contour>
        <pt x="122" y="559" on="1"/>
        <pt x="373" y="559" on="1"/>
        <pt x="409" y="559" on="0"/>
        <pt x="467" y="532" on="0"/>
        <pt x="506" y="488" on="0"/>
        <pt x="527" y="430" on="0"/>
        <pt x="527" y="400" on="1"/>
        <pt x="527" y="360" on="0"/>
        <pt x="491" y="282" on="0"/>
        <pt x="429" y="221" on="0"/>
        <pt x="345" y="183" on="0"/>
        <pt x="298" y="183" on="1"/>
        <pt x="163" y="183" on="1"/>
        <pt x="124" y="0" on="1"/>
        <pt x="4" y="0" on="1"/>
      </contour>
      <contour>
        <pt x="313" y="289" on="1"/>
        <pt x="331" y="289" on="0"/>
        <pt x="363" y="303" on="0"/>
        <pt x="388" y="328" on="0"/>
        <pt x="403" y="365" on="0"/>
        <pt x="403" y="388" on="1"/>
        <pt x="403" y="420" on="0"/>
        <pt x="368" y="453" on="0"/>
        <pt x="343" y="453" on="1"/>
        <pt x="220" y="453" on="1"/>
        <pt x="185" y="289" on="1"/>
      </contour>
    </TTGlyph>
    <TTGlyph name="Q" xMin="36" yMin="-5" xMax="714" yMax="715">
      <contour>
        <pt x="478" y="42" on="1"/>
        <pt x="436" y="19" on="0"/>
        <pt x="346" y="-5" on="0"/>
        <pt x="298" y="-5" on="1"/>
        <pt x="235" y="-5" on="0"/>
        <pt x="137" y="44" on="0"/>
        <pt x="71" y="126" on="0"/>
        <pt x="36" y="232" on="0"/>
        <pt x="36" y="290" on="1"/>
        <pt x="36" y="371" on="0"/>
        <pt x="105" y="524" on="0"/>
        <pt x="221" y="643" on="0"/>
        <pt x="372" y="715" on="0"/>
        <pt x="454" y="715" on="1"/>
        <pt x="517" y="715" on="0"/>
        <pt x="614" y="665" on="0"/>
        <pt x="680" y="583" on="0"/>
        <pt x="714" y="475" on="0"/>
        <pt x="714" y="418" on="1"/>
        <pt x="714" y="330" on="0"/>
        <pt x="634" y="166" on="0"/>
        <pt x="567" y="106" on="1"/>
        <pt x="637" y="0" on="1"/>
        <pt x="506" y="0" on="1"/>
      </contour>
      <contour>
        <pt x="326" y="117" on="1"/>
        <pt x="350" y="117" on="0"/>
        <pt x="395" y="128" on="0"/>
        <pt x="416" y="138" on="1"/>
        <pt x="335" y="263" on="1"/>
        <pt x="465" y="263" on="1"/>
        <pt x="501" y="207" on="1"/>
        <pt x="536" y="250" on="0"/>
        <pt x="574" y="356" on="0"/>
        <pt x="574" y="408" on="1"/>
        <pt x="574" y="445" on="0"/>
        <pt x="555" y="512" on="0"/>
        <pt x="518" y="563" on="0"/>
        <pt x="463" y="593" on="0"/>
        <pt x="426" y="593" on="1"/>
        <pt x="371" y="593" on="0"/>
        <pt x="279" y="540" on="0"/>
        <pt x="213" y="456" on="0"/>
        <pt x="177" y="352" on="0"/>
        <pt x="177" y="301" on="1"/>
        <pt x="177" y="264" on="0"/>
        <pt x="195" y="198" on="0"/>
        <pt x="233" y="147" on="0"/>
        <pt x="288" y="117" on="0"/>
      </contour>
    </TTGlyph>
    <TTGlyph name="Q.sc" xMin="22" yMin="-4" xMax="596" yMax="563">
      <contour>
        <pt x="405" y="36" on="1"/>
        <pt x="369" y="17" on="0"/>
        <pt x="290" y="-4" on="0"/>
        <pt x="248" y="-4" on="1"/>
        <pt x="194" y="-4" on="0"/>
        <pt x="110" y="35" on="0"/>
        <pt x="52" y="101" on="0"/>
        <pt x="22" y="186" on="0"/>
        <pt x="22" y="232" on="1"/>
        <pt x="22" y="295" on="0"/>
        <pt x="80" y="414" on="0"/>
        <pt x="176" y="507" on="0"/>
        <pt x="302" y="563" on="0"/>
        <pt x="371" y="563" on="1"/>
        <pt x="425" y="563" on="0"/>
        <pt x="509" y="523" on="0"/>
        <pt x="566" y="457" on="0"/>
        <pt x="596" y="371" on="0"/>
        <pt x="596" y="325" on="1"/>
        <pt x="596" y="259" on="0"/>
        <pt x="534" y="136" on="0"/>
        <pt x="482" y="89" on="1"/>
        <pt x="546" y="0" on="1"/>
        <pt x="431" y="0" on="1"/>
      </contour>
      <contour>
        <pt x="273" y="104" on="1"/>
        <pt x="313" y="104" on="0"/>
        <pt x="346" y="119" on="1"/>
        <pt x="277" y="215" on="1"/>
        <pt x="392" y="215" on="1"/>
        <pt x="420" y="176" on="1"/>
        <pt x="445" y="206" on="0"/>
        <pt x="473" y="279" on="0"/>
        <pt x="473" y="315" on="1"/>
        <pt x="473" y="343" on="0"/>
        <pt x="457" y="393" on="0"/>
        <pt x="425" y="432" on="0"/>
        <pt x="378" y="455" on="0"/>
        <pt x="347" y="455" on="1"/>
        <pt x="302" y="455" on="0"/>
        <pt x="228" y="417" on="0"/>
        <pt x="175" y="356" on="0"/>
        <pt x="146" y="281" on="0"/>
        <pt x="146" y="244" on="1"/>
        <pt x="146" y="216" on="0"/>
        <pt x="162" y="166" on="0"/>
        <pt x="193" y="127" on="0"/>
        <pt x="241" y="104" on="0"/>
      </contour>
    </TTGlyph>
    <TTGlyph name="R" xMin="10" yMin="0" xMax="632" yMax="710">
      <contour>
        <pt x="10" y="0" on="1"/>
        <pt x="161" y="710" on="1"/>
        <pt x="461" y="710" on="1"/>
        <pt x="501" y="710" on="0"/>
        <pt x="565" y="677" on="0"/>
        <pt x="609" y="622" on="0"/>
        <pt x="632" y="551" on="0"/>
        <pt x="632" y="514" on="1"/>
        <pt x="632" y="475" on="0"/>
        <pt x="606" y="400" on="0"/>
        <pt x="561" y="334" on="0"/>
        <pt x="500" y="282" on="0"/>
        <pt x="464" y="267" on="1"/>
        <pt x="560" y="0" on="1"/>
        <pt x="404" y="0" on="1"/>
        <pt x="320" y="238" on="1"/>
        <pt x="197" y="238" on="1"/>
        <pt x="147" y="0" on="1"/>
      </contour>
      <contour>
        <pt x="382" y="359" on="1"/>
        <pt x="402" y="359" on="0"/>
        <pt x="441" y="382" on="0"/>
        <pt x="471" y="421" on="0"/>
        <pt x="490" y="472" on="0"/>
        <pt x="490" y="500" on="1"/>
        <pt x="490" y="538" on="0"/>
        <pt x="453" y="589" on="0"/>
        <pt x="426" y="589" on="1"/>
        <pt x="272" y="589" on="1"/>
        <pt x="223" y="359" on="1"/>
      </contour>
    </TTGlyph>
    <TTGlyph name="R.sc" xMin="4" yMin="0" xMax="539" yMax="559">
      <contour>
        <pt x="122" y="559" on="1"/>
        <pt x="385" y="559" on="1"/>
        <pt x="421" y="559" on="0"/>
        <pt x="479" y="532" on="0"/>
        <pt x="518" y="488" on="0"/>
        <pt x="539" y="430" on="0"/>
        <pt x="539" y="400" on="1"/>
        <pt x="539" y="370" on="0"/>
        <pt x="518" y="312" on="0"/>
        <pt x="480" y="262" on="0"/>
        <pt x="428" y="221" on="0"/>
        <pt x="397" y="209" on="1"/>
        <pt x="491" y="0" on="1"/>
        <pt x="354" y="0" on="1"/>
        <pt x="270" y="183" on="1"/>
        <pt x="163" y="183" on="1"/>
        <pt x="124" y="0" on="1"/>
        <pt x="4" y="0" on="1"/>
      </contour>
      <contour>
        <pt x="325" y="289" on="1"/>
        <pt x="342" y="289" on="0"/>
        <pt x="375" y="304" on="0"/>
        <pt x="400" y="331" on="0"/>
        <pt x="415" y="367" on="0"/>
        <pt x="415" y="387" on="1"/>
        <pt x="415" y="416" on="0"/>
        <pt x="381" y="453" on="0"/>
        <pt x="355" y="453" on="1"/>
        <pt x="220" y="453" on="1"/>
        <pt x="185" y="289" on="1"/>
      </contour>
    </TTGlyph>
    <TTGlyph name="Racute" xMin="10" yMin="0" xMax="632" yMax="918">
      <contour>
        <pt x="436" y="782" on="1"/>
        <pt x="349" y="799" on="1"/>
        <pt x="425" y="918" on="1"/>
        <pt x="549" y="918" on="1"/>
      </contour>
      <contour>
        <pt x="10" y="0" on="1"/>
        <pt x="161" y="710" on="1"/>
        <pt x="461" y="710" on="1"/>
        <pt x="501" y="710" on="0"/>
        <pt x="565" y="677" on="0"/>
        <pt x="609" y="622" on="0"/>
        <pt x="632" y="551" on="0"/>
        <pt x="632" y="514" on="1"/>
        <pt x="632" y="475" on="0"/>
        <pt x="606" y="400" on="0"/>
        <pt x="561" y="334" on="0"/>
        <pt x="500" y="282" on="0"/>
        <pt x="464" y="267" on="1"/>
        <pt x="560" y="0" on="1"/>
        <pt x="404" y="0" on="1"/>
        <pt x="320" y="238" on="1"/>
        <pt x="197" y="238" on="1"/>
        <pt x="147" y="0" on="1"/>
      </contour>
      <contour>
        <pt x="382" y="359" on="1"/>
        <pt x="402" y="359" on="0"/>
        <pt x="441" y="382" on="0"/>
        <pt x="471" y="421" on="0"/>
        <pt x="490" y="472" on="0"/>
        <pt x="490" y="500" on="1"/>
        <pt x="490" y="538" on="0"/>
        <pt x="453" y="589" on="0"/>
        <pt x="426" y="589" on="1"/>
        <pt x="272" y="589" on="1"/>
        <pt x="223" y="359" on="1"/>
      </contour>
    </TTGlyph>
    <TTGlyph name="Rcaron" xMin="10" yMin="0" xMax="632" yMax="918">
      <contour>
        <pt x="282" y="886" on="1"/>
        <pt x="359" y="918" on="1"/>
        <pt x="426" y="855" on="1"/>
        <pt x="520" y="918" on="1"/>
        <pt x="583" y="886" on="1"/>
        <pt x="459" y="785" on="1"/>
        <pt x="362" y="785" on="1"/>
      </contour>
      <contour>
        <pt x="10" y="0" on="1"/>
        <pt x="161" y="710" on="1"/>
        <pt x="461" y="710" on="1"/>
        <pt x="501" y="710" on="0"/>
        <pt x="565" y="677" on="0"/>
        <pt x="609" y="622" on="0"/>
        <pt x="632" y="551" on="0"/>
        <pt x="632" y="514" on="1"/>
        <pt x="632" y="475" on="0"/>
        <pt x="606" y="400" on="0"/>
        <pt x="561" y="334" on="0"/>
        <pt x="500" y="282" on="0"/>
        <pt x="464" y="267" on="1"/>
        <pt x="560" y="0" on="1"/>
        <pt x="404" y="0" on="1"/>
        <pt x="320" y="238" on="1"/>
        <pt x="197" y="238" on="1"/>
        <pt x="147" y="0" on="1"/>
      </contour>
      <contour>
        <pt x="382" y="359" on="1"/>
        <pt x="402" y="359" on="0"/>
        <pt x="441" y="382" on="0"/>
        <pt x="471" y="421" on="0"/>
        <pt x="490" y="472" on="0"/>
        <pt x="490" y="500" on="1"/>
        <pt x="490" y="538" on="0"/>
        <pt x="453" y="589" on="0"/>
        <pt x="426" y="589" on="1"/>
        <pt x="272" y="589" on="1"/>
        <pt x="223" y="359" on="1"/>
      </contour>
    </TTGlyph>
    <TTGlyph name="Rcommaaccent" xMin="10" yMin="-213" xMax="632" yMax="710">
      <contour>
        <pt x="170" y="-213" on="1"/>
        <pt x="213" y="-141" on="1"/>
        <pt x="173" y="-141" on="1"/>
        <pt x="194" y="-47" on="1"/>
        <pt x="306" y="-47" on="1"/>
        <pt x="287" y="-141" on="1"/>
        <pt x="231" y="-213" on="1"/>
      </contour>
      <contour>
        <pt x="10" y="0" on="1"/>
        <pt x="161" y="710" on="1"/>
        <pt x="461" y="710" on="1"/>
        <pt x="501" y="710" on="0"/>
        <pt x="565" y="677" on="0"/>
        <pt x="609" y="622" on="0"/>
        <pt x="632" y="551" on="0"/>
        <pt x="632" y="514" on="1"/>
        <pt x="632" y="475" on="0"/>
        <pt x="606" y="400" on="0"/>
        <pt x="561" y="334" on="0"/>
        <pt x="500" y="282" on="0"/>
        <pt x="464" y="267" on="1"/>
        <pt x="560" y="0" on="1"/>
        <pt x="404" y="0" on="1"/>
        <pt x="320" y="238" on="1"/>
        <pt x="197" y="238" on="1"/>
        <pt x="147" y="0" on="1"/>
      </contour>
      <contour>
        <pt x="382" y="359" on="1"/>
        <pt x="402" y="359" on="0"/>
        <pt x="441" y="382" on="0"/>
        <pt x="471" y="421" on="0"/>
        <pt x="490" y="472" on="0"/>
        <pt x="490" y="500" on="1"/>
        <pt x="490" y="538" on="0"/>
        <pt x="453" y="589" on="0"/>
        <pt x="426" y="589" on="1"/>
        <pt x="272" y="589" on="1"/>
        <pt x="223" y="359" on="1"/>
      </contour>
    </TTGlyph>
    <TTGlyph name="Rdblgrave" xMin="10" yMin="0" xMax="632" yMax="918">
      <contour>
        <pt x="419" y="918" on="1"/>
        <pt x="521" y="918" on="1"/>
        <pt x="541" y="799" on="1"/>
        <pt x="468" y="781" on="1"/>
      </contour>
      <contour>
        <pt x="262" y="918" on="1"/>
        <pt x="366" y="918" on="1"/>
        <pt x="384" y="799" on="1"/>
        <pt x="312" y="781" on="1"/>
      </contour>
      <contour>
        <pt x="10" y="0" on="1"/>
        <pt x="161" y="710" on="1"/>
        <pt x="461" y="710" on="1"/>
        <pt x="501" y="710" on="0"/>
        <pt x="565" y="677" on="0"/>
        <pt x="609" y="622" on="0"/>
        <pt x="632" y="551" on="0"/>
        <pt x="632" y="514" on="1"/>
        <pt x="632" y="475" on="0"/>
        <pt x="606" y="400" on="0"/>
        <pt x="561" y="334" on="0"/>
        <pt x="500" y="282" on="0"/>
        <pt x="464" y="267" on="1"/>
        <pt x="560" y="0" on="1"/>
        <pt x="404" y="0" on="1"/>
        <pt x="320" y="238" on="1"/>
        <pt x="197" y="238" on="1"/>
        <pt x="147" y="0" on="1"/>
      </contour>
      <contour>
        <pt x="382" y="359" on="1"/>
        <pt x="402" y="359" on="0"/>
        <pt x="441" y="382" on="0"/>
        <pt x="471" y="421" on="0"/>
        <pt x="490" y="472" on="0"/>
        <pt x="490" y="500" on="1"/>
        <pt x="490" y="538" on="0"/>
        <pt x="453" y="589" on="0"/>
        <pt x="426" y="589" on="1"/>
        <pt x="272" y="589" on="1"/>
        <pt x="223" y="359" on="1"/>
      </contour>
    </TTGlyph>
    <TTGlyph name="Rdotbelow" xMin="10" yMin="-196" xMax="632" yMax="710">
      <contour>
        <pt x="10" y="0" on="1"/>
        <pt x="161" y="710" on="1"/>
        <pt x="461" y="710" on="1"/>
        <pt x="501" y="710" on="0"/>
        <pt x="565" y="677" on="0"/>
        <pt x="609" y="622" on="0"/>
        <pt x="632" y="551" on="0"/>
        <pt x="632" y="514" on="1"/>
        <pt x="632" y="475" on="0"/>
        <pt x="606" y="400" on="0"/>
        <pt x="561" y="334" on="0"/>
        <pt x="500" y="282" on="0"/>
        <pt x="464" y="267" on="1"/>
        <pt x="560" y="0" on="1"/>
        <pt x="404" y="0" on="1"/>
        <pt x="320" y="238" on="1"/>
        <pt x="197" y="238" on="1"/>
        <pt x="147" y="0" on="1"/>
      </contour>
      <contour>
        <pt x="382" y="359" on="1"/>
        <pt x="402" y="359" on="0"/>
        <pt x="441" y="382" on="0"/>
        <pt x="471" y="421" on="0"/>
        <pt x="490" y="472" on="0"/>
        <pt x="490" y="500" on="1"/>
        <pt x="490" y="538" on="0"/>
        <pt x="453" y="589" on="0"/>
        <pt x="426" y="589" on="1"/>
        <pt x="272" y="589" on="1"/>
        <pt x="223" y="359" on="1"/>
      </contour>
      <contour>
        <pt x="158" y="-196" on="1"/>
        <pt x="185" y="-70" on="1"/>
        <pt x="305" y="-70" on="1"/>
        <pt x="278" y="-196" on="1"/>
      </contour>
    </TTGlyph>
    <TTGlyph name="Rinvertedbreve" xMin="10" yMin="0" xMax="632" yMax="916">
      <contour>
        <pt x="288" y="782" on="1"/>
        <pt x="294" y="811" on="0"/>
        <pt x="323" y="860" on="0"/>
        <pt x="365" y="896" on="0"/>
        <pt x="416" y="916" on="0"/>
        <pt x="443" y="916" on="1"/>
        <pt x="492" y="916" on="0"/>
        <pt x="546" y="856" on="0"/>
        <pt x="546" y="812" on="1"/>
        <pt x="546" y="797" on="0"/>
        <pt x="543" y="782" on="1"/>
        <pt x="472" y="782" on="1"/>
        <pt x="473" y="790" on="0"/>
        <pt x="474" y="804" on="0"/>
        <pt x="474" y="810" on="1"/>
        <pt x="474" y="856" on="0"/>
        <pt x="432" y="856" on="1"/>
        <pt x="374" y="856" on="0"/>
        <pt x="359" y="782" on="1"/>
      </contour>
      <contour>
        <pt x="10" y="0" on="1"/>
        <pt x="161" y="710" on="1"/>
        <pt x="461" y="710" on="1"/>
        <pt x="501" y="710" on="0"/>
        <pt x="565" y="677" on="0"/>
        <pt x="609" y="622" on="0"/>
        <pt x="632" y="551" on="0"/>
        <pt x="632" y="514" on="1"/>
        <pt x="632" y="475" on="0"/>
        <pt x="606" y="400" on="0"/>
        <pt x="561" y="334" on="0"/>
        <pt x="500" y="282" on="0"/>
        <pt x="464" y="267" on="1"/>
        <pt x="560" y="0" on="1"/>
        <pt x="404" y="0" on="1"/>
        <pt x="320" y="238" on="1"/>
        <pt x="197" y="238" on="1"/>
        <pt x="147" y="0" on="1"/>
      </contour>
      <contour>
        <pt x="382" y="359" on="1"/>
        <pt x="402" y="359" on="0"/>
        <pt x="441" y="382" on="0"/>
        <pt x="471" y="421" on="0"/>
        <pt x="490" y="472" on="0"/>
        <pt x="490" y="500" on="1"/>
        <pt x="490" y="538" on="0"/>
        <pt x="453" y="589" on="0"/>
        <pt x="426" y="589" on="1"/>
        <pt x="272" y="589" on="1"/>
        <pt x="223" y="359" on="1"/>
      </contour>
    </TTGlyph>
    <TTGlyph name="S" xMin="-21" yMin="-8" xMax="608" yMax="715">
      <contour>
        <pt x="243" y="-8" on="1"/>
        <pt x="168" y="-8" on="0"/>
        <pt x="29" y="40" on="0"/>
        <pt x="-21" y="84" on="1"/>
        <pt x="65" y="203" on="1"/>
        <pt x="70" y="194" on="0"/>
        <pt x="107" y="165" on="0"/>
        <pt x="162" y="136" on="0"/>
        <pt x="233" y="116" on="0"/>
        <pt x="272" y="116" on="1"/>
        <pt x="332" y="116" on="0"/>
        <pt x="391" y="163" on="0"/>
        <pt x="391" y="202" on="1"/>
        <pt x="391" y="221" on="0"/>
        <pt x="368" y="249" on="0"/>
        <pt x="328" y="271" on="0"/>
        <pt x="273" y="290" on="0"/>
        <pt x="240" y="300" on="1"/>
        <pt x="165" y="323" on="0"/>
        <pt x="87" y="392" on="0"/>
        <pt x="87" y="453" on="1"/>
        <pt x="87" y="515" on="0"/>
        <pt x="137" y="612" on="0"/>
        <pt x="220" y="680" on="0"/>
        <pt x="329" y="715" on="0"/>
        <pt x="388" y="715" on="1"/>
        <pt x="459" y="715" on="0"/>
        <pt x="570" y="668" on="0"/>
        <pt x="608" y="636" on="1"/>
        <pt x="523" y="524" on="1"/>
        <pt x="519" y="531" on="0"/>
        <pt x="489" y="555" on="0"/>
        <pt x="444" y="578" on="0"/>
        <pt x="388" y="594" on="0"/>
        <pt x="358" y="594" on="1"/>
        <pt x="298" y="594" on="0"/>
        <pt x="238" y="542" on="0"/>
        <pt x="238" y="499" on="1"/>
        <pt x="238" y="482" on="0"/>
        <pt x="255" y="457" on="0"/>
        <pt x="289" y="438" on="0"/>
        <pt x="337" y="422" on="0"/>
        <pt x="369" y="413" on="1"/>
        <pt x="409" y="402" on="0"/>
        <pt x="474" y="374" on="0"/>
        <pt x="520" y="335" on="0"/>
        <pt x="545" y="281" on="0"/>
        <pt x="545" y="244" on="1"/>
        <pt x="545" y="177" on="0"/>
        <pt x="493" y="81" on="0"/>
        <pt x="409" y="20" on="0"/>
        <pt x="300" y="-8" on="0"/>
      </contour>
    </TTGlyph>
    <TTGlyph name="S.sc" xMin="-24" yMin="-7" xMax="505" yMax="563">
      <contour>
        <pt x="203" y="-7" on="1"/>
        <pt x="139" y="-7" on="0"/>
        <pt x="19" y="31" on="0"/>
        <pt x="-24" y="64" on="1"/>
        <pt x="51" y="169" on="1"/>
        <pt x="58" y="159" on="0"/>
        <pt x="90" y="135" on="0"/>
        <pt x="137" y="115" on="0"/>
        <pt x="196" y="102" on="0"/>
        <pt x="229" y="102" on="1"/>
        <pt x="274" y="102" on="0"/>
        <pt x="322" y="132" on="0"/>
        <pt x="322" y="160" on="1"/>
        <pt x="322" y="174" on="0"/>
        <pt x="303" y="193" on="0"/>
        <pt x="269" y="208" on="0"/>
        <pt x="222" y="222" on="0"/>
        <pt x="194" y="231" on="1"/>
        <pt x="129" y="251" on="0"/>
        <pt x="64" y="307" on="0"/>
        <pt x="64" y="357" on="1"/>
        <pt x="64" y="406" on="0"/>
        <pt x="106" y="483" on="0"/>
        <pt x="176" y="535" on="0"/>
        <pt x="267" y="563" on="0"/>
        <pt x="316" y="563" on="1"/>
        <pt x="376" y="563" on="0"/>
        <pt x="473" y="525" on="0"/>
        <pt x="505" y="501" on="1"/>
        <pt x="432" y="402" on="1"/>
        <pt x="426" y="409" on="0"/>
        <pt x="400" y="428" on="0"/>
        <pt x="362" y="444" on="0"/>
        <pt x="315" y="456" on="0"/>
        <pt x="290" y="456" on="1"/>
        <pt x="242" y="456" on="0"/>
        <pt x="195" y="423" on="0"/>
        <pt x="195" y="394" on="1"/>
        <pt x="195" y="369" on="0"/>
        <pt x="253" y="345" on="0"/>
        <pt x="307" y="330" on="1"/>
        <pt x="341" y="320" on="0"/>
        <pt x="397" y="297" on="0"/>
        <pt x="437" y="266" on="0"/>
        <pt x="458" y="223" on="0"/>
        <pt x="458" y="193" on="1"/>
        <pt x="458" y="139" on="0"/>
        <pt x="414" y="63" on="0"/>
        <pt x="343" y="15" on="0"/>
        <pt x="251" y="-7" on="0"/>
      </contour>
    </TTGlyph>
    <TTGlyph name="Sacute" xMin="-21" yMin="-8" xMax="608" yMax="930">
      <contour>
        <pt x="431" y="794" on="1"/>
        <pt x="344" y="811" on="1"/>
        <pt x="420" y="930" on="1"/>
        <pt x="544" y="930" on="1"/>
      </contour>
      <contour>
        <pt x="243" y="-8" on="1"/>
        <pt x="168" y="-8" on="0"/>
        <pt x="29" y="40" on="0"/>
        <pt x="-21" y="84" on="1"/>
        <pt x="65" y="203" on="1"/>
        <pt x="70" y="194" on="0"/>
        <pt x="107" y="165" on="0"/>
        <pt x="162" y="136" on="0"/>
        <pt x="233" y="116" on="0"/>
        <pt x="272" y="116" on="1"/>
        <pt x="332" y="116" on="0"/>
        <pt x="391" y="163" on="0"/>
        <pt x="391" y="202" on="1"/>
        <pt x="391" y="221" on="0"/>
        <pt x="368" y="249" on="0"/>
        <pt x="328" y="271" on="0"/>
        <pt x="273" y="290" on="0"/>
        <pt x="240" y="300" on="1"/>
        <pt x="165" y="323" on="0"/>
        <pt x="87" y="392" on="0"/>
        <pt x="87" y="453" on="1"/>
        <pt x="87" y="515" on="0"/>
        <pt x="137" y="612" on="0"/>
        <pt x="220" y="680" on="0"/>
        <pt x="329" y="715" on="0"/>
        <pt x="388" y="715" on="1"/>
        <pt x="459" y="715" on="0"/>
        <pt x="570" y="668" on="0"/>
        <pt x="608" y="636" on="1"/>
        <pt x="523" y="524" on="1"/>
        <pt x="519" y="531" on="0"/>
        <pt x="489" y="555" on="0"/>
        <pt x="444" y="578" on="0"/>
        <pt x="388" y="594" on="0"/>
        <pt x="358" y="594" on="1"/>
        <pt x="298" y="594" on="0"/>
        <pt x="238" y="542" on="0"/>
        <pt x="238" y="499" on="1"/>
        <pt x="238" y="482" on="0"/>
        <pt x="255" y="457" on="0"/>
        <pt x="289" y="438" on="0"/>
        <pt x="337" y="422" on="0"/>
        <pt x="369" y="413" on="1"/>
        <pt x="409" y="402" on="0"/>
        <pt x="474" y="374" on="0"/>
        <pt x="520" y="335" on="0"/>
        <pt x="545" y="281" on="0"/>
        <pt x="545" y="244" on="1"/>
        <pt x="545" y="177" on="0"/>
        <pt x="493" y="81" on="0"/>
        <pt x="409" y="20" on="0"/>
        <pt x="300" y="-8" on="0"/>
      </contour>
    </TTGlyph>
    <TTGlyph name="Scaron" xMin="-21" yMin="-8" xMax="608" yMax="930">
      <contour>
        <pt x="273" y="898" on="1"/>
        <pt x="350" y="930" on="1"/>
        <pt x="417" y="867" on="1"/>
        <pt x="511" y="930" on="1"/>
        <pt x="574" y="898" on="1"/>
        <pt x="450" y="797" on="1"/>
        <pt x="353" y="797" on="1"/>
      </contour>
      <contour>
        <pt x="243" y="-8" on="1"/>
        <pt x="168" y="-8" on="0"/>
        <pt x="29" y="40" on="0"/>
        <pt x="-21" y="84" on="1"/>
        <pt x="65" y="203" on="1"/>
        <pt x="70" y="194" on="0"/>
        <pt x="107" y="165" on="0"/>
        <pt x="162" y="136" on="0"/>
        <pt x="233" y="116" on="0"/>
        <pt x="272" y="116" on="1"/>
        <pt x="332" y="116" on="0"/>
        <pt x="391" y="163" on="0"/>
        <pt x="391" y="202" on="1"/>
        <pt x="391" y="221" on="0"/>
        <pt x="368" y="249" on="0"/>
        <pt x="328" y="271" on="0"/>
        <pt x="273" y="290" on="0"/>
        <pt x="240" y="300" on="1"/>
        <pt x="165" y="323" on="0"/>
        <pt x="87" y="392" on="0"/>
        <pt x="87" y="453" on="1"/>
        <pt x="87" y="515" on="0"/>
        <pt x="137" y="612" on="0"/>
        <pt x="220" y="680" on="0"/>
        <pt x="329" y="715" on="0"/>
        <pt x="388" y="715" on="1"/>
        <pt x="459" y="715" on="0"/>
        <pt x="570" y="668" on="0"/>
        <pt x="608" y="636" on="1"/>
        <pt x="523" y="524" on="1"/>
        <pt x="519" y="531" on="0"/>
        <pt x="489" y="555" on="0"/>
        <pt x="444" y="578" on="0"/>
        <pt x="388" y="594" on="0"/>
        <pt x="358" y="594" on="1"/>
        <pt x="298" y="594" on="0"/>
        <pt x="238" y="542" on="0"/>
        <pt x="238" y="499" on="1"/>
        <pt x="238" y="482" on="0"/>
        <pt x="255" y="457" on="0"/>
        <pt x="289" y="438" on="0"/>
        <pt x="337" y="422" on="0"/>
        <pt x="369" y="413" on="1"/>
        <pt x="409" y="402" on="0"/>
        <pt x="474" y="374" on="0"/>
        <pt x="520" y="335" on="0"/>
        <pt x="545" y="281" on="0"/>
        <pt x="545" y="244" on="1"/>
        <pt x="545" y="177" on="0"/>
        <pt x="493" y="81" on="0"/>
        <pt x="409" y="20" on="0"/>
        <pt x="300" y="-8" on="0"/>
      </contour>
    </TTGlyph>
    <TTGlyph name="Schwa" xMin="22" yMin="-5" xMax="704" yMax="715">
      <contour>
        <pt x="288" y="-5" on="1"/>
        <pt x="223" y="-5" on="0"/>
        <pt x="124" y="43" on="0"/>
        <pt x="56" y="124" on="0"/>
        <pt x="22" y="227" on="0"/>
        <pt x="22" y="283" on="1"/>
        <pt x="22" y="325" on="0"/>
        <pt x="38" y="384" on="0"/>
        <pt x="46" y="401" on="1"/>
        <pt x="554" y="401" on="1"/>
        <pt x="555" y="409" on="0"/>
        <pt x="556" y="424" on="0"/>
        <pt x="556" y="432" on="1"/>
        <pt x="556" y="507" on="0"/>
        <pt x="476" y="592" on="0"/>
        <pt x="414" y="592" on="1"/>
        <pt x="388" y="592" on="0"/>
        <pt x="335" y="576" on="0"/>
        <pt x="287" y="548" on="0"/>
        <pt x="248" y="507" on="0"/>
        <pt x="236" y="483" on="1"/>
        <pt x="106" y="530" on="1"/>
        <pt x="134" y="571" on="0"/>
        <pt x="208" y="639" on="0"/>
        <pt x="295" y="688" on="0"/>
        <pt x="392" y="715" on="0"/>
        <pt x="443" y="715" on="1"/>
        <pt x="506" y="715" on="0"/>
        <pt x="603" y="667" on="0"/>
        <pt x="670" y="587" on="0"/>
        <pt x="704" y="482" on="0"/>
        <pt x="704" y="425" on="1"/>
        <pt x="704" y="345" on="0"/>
        <pt x="639" y="191" on="0"/>
        <pt x="527" y="69" on="0"/>
        <pt x="375" y="-5" on="0"/>
      </contour>
      <contour>
        <pt x="316" y="116" on="1"/>
        <pt x="352" y="116" on="0"/>
        <pt x="418" y="142" on="0"/>
        <pt x="475" y="189" on="0"/>
        <pt x="518" y="254" on="0"/>
        <pt x="530" y="293" on="1"/>
        <pt x="166" y="293" on="1"/>
        <pt x="162" y="276" on="0"/>
        <pt x="162" y="255" on="1"/>
        <pt x="162" y="225" on="0"/>
        <pt x="184" y="174" on="0"/>
        <pt x="224" y="137" on="0"/>
        <pt x="281" y="116" on="0"/>
      </contour>
    </TTGlyph>
    <TTGlyph name="Scircumflex" xMin="-21" yMin="-8" xMax="608" yMax="930">
      <contour>
        <pt x="267" y="829" on="1"/>
        <pt x="390" y="930" on="1"/>
        <pt x="487" y="930" on="1"/>
        <pt x="567" y="829" on="1"/>
        <pt x="490" y="797" on="1"/>
        <pt x="423" y="860" on="1"/>
        <pt x="329" y="797" on="1"/>
      </contour>
      <contour>
        <pt x="243" y="-8" on="1"/>
        <pt x="168" y="-8" on="0"/>
        <pt x="29" y="40" on="0"/>
        <pt x="-21" y="84" on="1"/>
        <pt x="65" y="203" on="1"/>
        <pt x="70" y="194" on="0"/>
        <pt x="107" y="165" on="0"/>
        <pt x="162" y="136" on="0"/>
        <pt x="233" y="116" on="0"/>
        <pt x="272" y="116" on="1"/>
        <pt x="332" y="116" on="0"/>
        <pt x="391" y="163" on="0"/>
        <pt x="391" y="202" on="1"/>
        <pt x="391" y="221" on="0"/>
        <pt x="368" y="249" on="0"/>
        <pt x="328" y="271" on="0"/>
        <pt x="273" y="290" on="0"/>
        <pt x="240" y="300" on="1"/>
        <pt x="165" y="323" on="0"/>
        <pt x="87" y="392" on="0"/>
        <pt x="87" y="453" on="1"/>
        <pt x="87" y="515" on="0"/>
        <pt x="137" y="612" on="0"/>
        <pt x="220" y="680" on="0"/>
        <pt x="329" y="715" on="0"/>
        <pt x="388" y="715" on="1"/>
        <pt x="459" y="715" on="0"/>
        <pt x="570" y="668" on="0"/>
        <pt x="608" y="636" on="1"/>
        <pt x="523" y="524" on="1"/>
        <pt x="519" y="531" on="0"/>
        <pt x="489" y="555" on="0"/>
        <pt x="444" y="578" on="0"/>
        <pt x="388" y="594" on="0"/>
        <pt x="358" y="594" on="1"/>
        <pt x="298" y="594" on="0"/>
        <pt x="238" y="542" on="0"/>
        <pt x="238" y="499" on="1"/>
        <pt x="238" y="482" on="0"/>
        <pt x="255" y="457" on="0"/>
        <pt x="289" y="438" on="0"/>
        <pt x="337" y="422" on="0"/>
        <pt x="369" y="413" on="1"/>
        <pt x="409" y="402" on="0"/>
        <pt x="474" y="374" on="0"/>
        <pt x="520" y="335" on="0"/>
        <pt x="545" y="281" on="0"/>
        <pt x="545" y="244" on="1"/>
        <pt x="545" y="177" on="0"/>
        <pt x="493" y="81" on="0"/>
        <pt x="409" y="20" on="0"/>
        <pt x="300" y="-8" on="0"/>
      </contour>
    </TTGlyph>
    <TTGlyph name="Sdotbelow" xMin="-21" yMin="-196" xMax="608" yMax="715">
      <contour>
        <pt x="243" y="-8" on="1"/>
        <pt x="168" y="-8" on="0"/>
        <pt x="29" y="40" on="0"/>
        <pt x="-21" y="84" on="1"/>
        <pt x="65" y="203" on="1"/>
        <pt x="70" y="194" on="0"/>
        <pt x="107" y="165" on="0"/>
        <pt x="162" y="136" on="0"/>
        <pt x="233" y="116" on="0"/>
        <pt x="272" y="116" on="1"/>
        <pt x="332" y="116" on="0"/>
        <pt x="391" y="163" on="0"/>
        <pt x="391" y="202" on="1"/>
        <pt x="391" y="221" on="0"/>
        <pt x="368" y="249" on="0"/>
        <pt x="328" y="271" on="0"/>
        <pt x="273" y="290" on="0"/>
        <pt x="240" y="300" on="1"/>
        <pt x="165" y="323" on="0"/>
        <pt x="87" y="392" on="0"/>
        <pt x="87" y="453" on="1"/>
        <pt x="87" y="515" on="0"/>
        <pt x="137" y="612" on="0"/>
        <pt x="220" y="680" on="0"/>
        <pt x="329" y="715" on="0"/>
        <pt x="388" y="715" on="1"/>
        <pt x="459" y="715" on="0"/>
        <pt x="570" y="668" on="0"/>
        <pt x="608" y="636" on="1"/>
        <pt x="523" y="524" on="1"/>
        <pt x="519" y="531" on="0"/>
        <pt x="489" y="555" on="0"/>
        <pt x="444" y="578" on="0"/>
        <pt x="388" y="594" on="0"/>
        <pt x="358" y="594" on="1"/>
        <pt x="298" y="594" on="0"/>
        <pt x="238" y="542" on="0"/>
        <pt x="238" y="499" on="1"/>
        <pt x="238" y="482" on="0"/>
        <pt x="255" y="457" on="0"/>
        <pt x="289" y="438" on="0"/>
        <pt x="337" y="422" on="0"/>
        <pt x="369" y="413" on="1"/>
        <pt x="409" y="402" on="0"/>
        <pt x="474" y="374" on="0"/>
        <pt x="520" y="335" on="0"/>
        <pt x="545" y="281" on="0"/>
        <pt x="545" y="244" on="1"/>
        <pt x="545" y="177" on="0"/>
        <pt x="493" y="81" on="0"/>
        <pt x="409" y="20" on="0"/>
        <pt x="300" y="-8" on="0"/>
      </contour>
      <contour>
        <pt x="140" y="-196" on="1"/>
        <pt x="167" y="-70" on="1"/>
        <pt x="287" y="-70" on="1"/>
        <pt x="260" y="-196" on="1"/>
      </contour>
    </TTGlyph>
    <TTGlyph name="T" xMin="76" yMin="0" xMax="664" yMax="710">
      <contour>
        <pt x="289" y="589" on="1"/>
        <pt x="76" y="589" on="1"/>
        <pt x="101" y="710" on="1"/>
        <pt x="664" y="710" on="1"/>
        <pt x="638" y="589" on="1"/>
        <pt x="426" y="589" on="1"/>
        <pt x="301" y="0" on="1"/>
        <pt x="163" y="0" on="1"/>
      </contour>
    </TTGlyph>
    <TTGlyph name="T.sc" xMin="50" yMin="0" xMax="565" yMax="559">
      <contour>
        <pt x="237" y="453" on="1"/>
        <pt x="50" y="453" on="1"/>
        <pt x="72" y="559" on="1"/>
        <pt x="565" y="559" on="1"/>
        <pt x="543" y="453" on="1"/>
        <pt x="358" y="453" on="1"/>
        <pt x="261" y="0" on="1"/>
        <pt x="140" y="0" on="1"/>
      </contour>
    </TTGlyph>
    <TTGlyph name="Tbar" xMin="65" yMin="0" xMax="676" yMax="710">
      <contour>
        <pt x="79" y="379" on="1"/>
        <pt x="256" y="379" on="1"/>
        <pt x="301" y="589" on="1"/>
        <pt x="88" y="589" on="1"/>
        <pt x="113" y="710" on="1"/>
        <pt x="676" y="710" on="1"/>
        <pt x="651" y="589" on="1"/>
        <pt x="438" y="589" on="1"/>
        <pt x="393" y="379" on="1"/>
        <pt x="571" y="379" on="1"/>
        <pt x="557" y="313" on="1"/>
        <pt x="379" y="313" on="1"/>
        <pt x="313" y="0" on="1"/>
        <pt x="176" y="0" on="1"/>
        <pt x="242" y="313" on="1"/>
        <pt x="65" y="313" on="1"/>
      </contour>
    </TTGlyph>
    <TTGlyph name="Tcaron" xMin="76" yMin="0" xMax="664" yMax="916">
      <contour>
        <pt x="263" y="884" on="1"/>
        <pt x="340" y="916" on="1"/>
        <pt x="407" y="853" on="1"/>
        <pt x="501" y="916" on="1"/>
        <pt x="564" y="884" on="1"/>
        <pt x="440" y="783" on="1"/>
        <pt x="343" y="783" on="1"/>
      </contour>
      <contour>
        <pt x="289" y="589" on="1"/>
        <pt x="76" y="589" on="1"/>
        <pt x="101" y="710" on="1"/>
        <pt x="664" y="710" on="1"/>
        <pt x="638" y="589" on="1"/>
        <pt x="426" y="589" on="1"/>
        <pt x="301" y="0" on="1"/>
        <pt x="163" y="0" on="1"/>
      </contour>
    </TTGlyph>
    <TTGlyph name="Tdotbelow" xMin="76" yMin="-196" xMax="664" yMax="710">
      <contour>
        <pt x="130" y="-196" on="1"/>
        <pt x="157" y="-70" on="1"/>
        <pt x="277" y="-70" on="1"/>
        <pt x="250" y="-196" on="1"/>
      </contour>
      <contour>
        <pt x="289" y="589" on="1"/>
        <pt x="76" y="589" on="1"/>
        <pt x="101" y="710" on="1"/>
        <pt x="664" y="710" on="1"/>
        <pt x="638" y="589" on="1"/>
        <pt x="426" y="589" on="1"/>
        <pt x="301" y="0" on="1"/>
        <pt x="163" y="0" on="1"/>
      </contour>
    </TTGlyph>
    <TTGlyph name="Thorn" xMin="10" yMin="0" xMax="575" yMax="710">
      <contour>
        <pt x="161" y="710" on="1"/>
        <pt x="298" y="710" on="1"/>
        <pt x="271" y="582" on="1"/>
        <pt x="403" y="582" on="1"/>
        <pt x="444" y="582" on="0"/>
        <pt x="508" y="549" on="0"/>
        <pt x="552" y="494" on="0"/>
        <pt x="575" y="423" on="0"/>
        <pt x="575" y="386" on="1"/>
        <pt x="575" y="336" on="0"/>
        <pt x="533" y="237" on="0"/>
        <pt x="460" y="159" on="0"/>
        <pt x="363" y="110" on="0"/>
        <pt x="309" y="110" on="1"/>
        <pt x="170" y="110" on="1"/>
        <pt x="147" y="0" on="1"/>
        <pt x="10" y="0" on="1"/>
      </contour>
      <contour>
        <pt x="328" y="231" on="1"/>
        <pt x="349" y="231" on="0"/>
        <pt x="388" y="255" on="0"/>
        <pt x="418" y="294" on="0"/>
        <pt x="436" y="345" on="0"/>
        <pt x="436" y="372" on="1"/>
        <pt x="436" y="411" on="0"/>
        <pt x="399" y="461" on="0"/>
        <pt x="371" y="461" on="1"/>
        <pt x="245" y="461" on="1"/>
        <pt x="196" y="231" on="1"/>
      </contour>
    </TTGlyph>
    <TTGlyph name="U" xMin="61" yMin="-5" xMax="743" yMax="710">
      <contour>
        <pt x="295" y="-5" on="1"/>
        <pt x="231" y="-5" on="0"/>
        <pt x="142" y="32" on="0"/>
        <pt x="86" y="97" on="0"/>
        <pt x="61" y="184" on="0"/>
        <pt x="61" y="235" on="1"/>
        <pt x="61" y="290" on="0"/>
        <pt x="74" y="348" on="1"/>
        <pt x="151" y="710" on="1"/>
        <pt x="288" y="710" on="1"/>
        <pt x="211" y="348" on="1"/>
        <pt x="206" y="325" on="0"/>
        <pt x="201" y="280" on="0"/>
        <pt x="201" y="259" on="1"/>
        <pt x="201" y="229" on="0"/>
        <pt x="213" y="177" on="0"/>
        <pt x="242" y="139" on="0"/>
        <pt x="287" y="117" on="0"/>
        <pt x="320" y="117" on="1"/>
        <pt x="365" y="117" on="0"/>
        <pt x="435" y="157" on="0"/>
        <pt x="486" y="221" on="0"/>
        <pt x="520" y="304" on="0"/>
        <pt x="529" y="348" on="1"/>
        <pt x="606" y="710" on="1"/>
        <pt x="743" y="710" on="1"/>
        <pt x="666" y="348" on="1"/>
        <pt x="651" y="275" on="0"/>
        <pt x="589" y="147" on="0"/>
        <pt x="497" y="51" on="0"/>
        <pt x="373" y="-5" on="0"/>
      </contour>
    </TTGlyph>
    <TTGlyph name="U.sc" xMin="44" yMin="-4" xMax="624" yMax="559">
      <contour>
        <pt x="249" y="-4" on="1"/>
        <pt x="193" y="-4" on="0"/>
        <pt x="115" y="26" on="0"/>
        <pt x="66" y="78" on="0"/>
        <pt x="44" y="150" on="0"/>
        <pt x="44" y="191" on="1"/>
        <pt x="44" y="231" on="0"/>
        <pt x="53" y="273" on="1"/>
        <pt x="113" y="559" on="1"/>
        <pt x="234" y="559" on="1"/>
        <pt x="174" y="273" on="1"/>
        <pt x="171" y="258" on="0"/>
        <pt x="167" y="229" on="0"/>
        <pt x="167" y="215" on="1"/>
        <pt x="167" y="168" on="0"/>
        <pt x="214" y="103" on="0"/>
        <pt x="272" y="103" on="1"/>
        <pt x="311" y="103" on="0"/>
        <pt x="369" y="132" on="0"/>
        <pt x="410" y="180" on="0"/>
        <pt x="436" y="241" on="0"/>
        <pt x="443" y="273" on="1"/>
        <pt x="503" y="559" on="1"/>
        <pt x="624" y="559" on="1"/>
        <pt x="564" y="273" on="1"/>
        <pt x="552" y="215" on="0"/>
        <pt x="501" y="114" on="0"/>
        <pt x="423" y="39" on="0"/>
        <pt x="316" y="-4" on="0"/>
      </contour>
    </TTGlyph>
    <TTGlyph name="Uacute" xMin="61" yMin="-5" xMax="743" yMax="916">
      <contour>
        <pt x="481" y="780" on="1"/>
        <pt x="394" y="797" on="1"/>
        <pt x="470" y="916" on="1"/>
        <pt x="594" y="916" on="1"/>
      </contour>
      <contour>
        <pt x="295" y="-5" on="1"/>
        <pt x="231" y="-5" on="0"/>
        <pt x="142" y="32" on="0"/>
        <pt x="86" y="97" on="0"/>
        <pt x="61" y="184" on="0"/>
        <pt x="61" y="235" on="1"/>
        <pt x="61" y="290" on="0"/>
        <pt x="74" y="348" on="1"/>
        <pt x="151" y="710" on="1"/>
        <pt x="288" y="710" on="1"/>
        <pt x="211" y="348" on="1"/>
        <pt x="206" y="325" on="0"/>
        <pt x="201" y="280" on="0"/>
        <pt x="201" y="259" on="1"/>
        <pt x="201" y="229" on="0"/>
        <pt x="213" y="177" on="0"/>
        <pt x="242" y="139" on="0"/>
        <pt x="287" y="117" on="0"/>
        <pt x="320" y="117" on="1"/>
        <pt x="365" y="117" on="0"/>
        <pt x="435" y="157" on="0"/>
        <pt x="486" y="221" on="0"/>
        <pt x="520" y="304" on="0"/>
        <pt x="529" y="348" on="1"/>
        <pt x="606" y="710" on="1"/>
        <pt x="743" y="710" on="1"/>
        <pt x="666" y="348" on="1"/>
        <pt x="651" y="275" on="0"/>
        <pt x="589" y="147" on="0"/>
        <pt x="497" y="51" on="0"/>
        <pt x="373" y="-5" on="0"/>
      </contour>
    </TTGlyph>
    <TTGlyph name="Ubreve" xMin="61" yMin="-5" xMax="743" yMax="916">
      <contour>
        <pt x="295" y="-5" on="1"/>
        <pt x="231" y="-5" on="0"/>
        <pt x="142" y="32" on="0"/>
        <pt x="86" y="97" on="0"/>
        <pt x="61" y="184" on="0"/>
        <pt x="61" y="235" on="1"/>
        <pt x="61" y="290" on="0"/>
        <pt x="74" y="348" on="1"/>
        <pt x="151" y="710" on="1"/>
        <pt x="288" y="710" on="1"/>
        <pt x="211" y="348" on="1"/>
        <pt x="206" y="325" on="0"/>
        <pt x="201" y="280" on="0"/>
        <pt x="201" y="259" on="1"/>
        <pt x="201" y="229" on="0"/>
        <pt x="213" y="177" on="0"/>
        <pt x="242" y="139" on="0"/>
        <pt x="287" y="117" on="0"/>
        <pt x="320" y="117" on="1"/>
        <pt x="365" y="117" on="0"/>
        <pt x="435" y="157" on="0"/>
        <pt x="486" y="221" on="0"/>
        <pt x="520" y="304" on="0"/>
        <pt x="529" y="348" on="1"/>
        <pt x="606" y="710" on="1"/>
        <pt x="743" y="710" on="1"/>
        <pt x="666" y="348" on="1"/>
        <pt x="651" y="275" on="0"/>
        <pt x="589" y="147" on="0"/>
        <pt x="497" y="51" on="0"/>
        <pt x="373" y="-5" on="0"/>
      </contour>
      <contour>
        <pt x="459" y="842" on="1"/>
        <pt x="480" y="842" on="0"/>
        <pt x="521" y="884" on="0"/>
        <pt x="531" y="916" on="1"/>
        <pt x="603" y="916" on="1"/>
        <pt x="597" y="887" on="0"/>
        <pt x="567" y="838" on="0"/>
        <pt x="526" y="802" on="0"/>
        <pt x="475" y="782" on="0"/>
        <pt x="447" y="782" on="1"/>
        <pt x="398" y="782" on="0"/>
        <pt x="343" y="838" on="0"/>
        <pt x="343" y="883" on="1"/>
        <pt x="343" y="901" on="0"/>
        <pt x="347" y="916" on="1"/>
        <pt x="419" y="916" on="1"/>
        <pt x="416" y="905" on="0"/>
        <pt x="416" y="896" on="1"/>
        <pt x="416" y="873" on="0"/>
        <pt x="440" y="842" on="0"/>
      </contour>
    </TTGlyph>
    <TTGlyph name="Ucircumflex" xMin="61" yMin="-5" xMax="743" yMax="916">
      <contour>
        <pt x="315" y="815" on="1"/>
        <pt x="438" y="916" on="1"/>
        <pt x="535" y="916" on="1"/>
        <pt x="615" y="815" on="1"/>
        <pt x="538" y="783" on="1"/>
        <pt x="471" y="846" on="1"/>
        <pt x="377" y="783" on="1"/>
      </contour>
      <contour>
        <pt x="295" y="-5" on="1"/>
        <pt x="231" y="-5" on="0"/>
        <pt x="142" y="32" on="0"/>
        <pt x="86" y="97" on="0"/>
        <pt x="61" y="184" on="0"/>
        <pt x="61" y="235" on="1"/>
        <pt x="61" y="290" on="0"/>
        <pt x="74" y="348" on="1"/>
        <pt x="151" y="710" on="1"/>
        <pt x="288" y="710" on="1"/>
        <pt x="211" y="348" on="1"/>
        <pt x="206" y="325" on="0"/>
        <pt x="201" y="280" on="0"/>
        <pt x="201" y="259" on="1"/>
        <pt x="201" y="229" on="0"/>
        <pt x="213" y="177" on="0"/>
        <pt x="242" y="139" on="0"/>
        <pt x="287" y="117" on="0"/>
        <pt x="320" y="117" on="1"/>
        <pt x="365" y="117" on="0"/>
        <pt x="435" y="157" on="0"/>
        <pt x="486" y="221" on="0"/>
        <pt x="520" y="304" on="0"/>
        <pt x="529" y="348" on="1"/>
        <pt x="606" y="710" on="1"/>
        <pt x="743" y="710" on="1"/>
        <pt x="666" y="348" on="1"/>
        <pt x="651" y="275" on="0"/>
        <pt x="589" y="147" on="0"/>
        <pt x="497" y="51" on="0"/>
        <pt x="373" y="-5" on="0"/>
      </contour>
    </TTGlyph>
    <TTGlyph name="Udblgrave" xMin="61" yMin="-5" xMax="743" yMax="918">
      <contour>
        <pt x="473" y="918" on="1"/>
        <pt x="575" y="918" on="1"/>
        <pt x="595" y="799" on="1"/>
        <pt x="522" y="781" on="1"/>
      </contour>
      <contour>
        <pt x="316" y="918" on="1"/>
        <pt x="420" y="918" on="1"/>
        <pt x="438" y="799" on="1"/>
        <pt x="366" y="781" on="1"/>
      </contour>
      <contour>
        <pt x="295" y="-5" on="1"/>
        <pt x="231" y="-5" on="0"/>
        <pt x="142" y="32" on="0"/>
        <pt x="86" y="97" on="0"/>
        <pt x="61" y="184" on="0"/>
        <pt x="61" y="235" on="1"/>
        <pt x="61" y="290" on="0"/>
        <pt x="74" y="348" on="1"/>
        <pt x="151" y="710" on="1"/>
        <pt x="288" y="710" on="1"/>
        <pt x="211" y="348" on="1"/>
        <pt x="206" y="325" on="0"/>
        <pt x="201" y="280" on="0"/>
        <pt x="201" y="259" on="1"/>
        <pt x="201" y="229" on="0"/>
        <pt x="213" y="177" on="0"/>
        <pt x="242" y="139" on="0"/>
        <pt x="287" y="117" on="0"/>
        <pt x="320" y="117" on="1"/>
        <pt x="365" y="117" on="0"/>
        <pt x="435" y="157" on="0"/>
        <pt x="486" y="221" on="0"/>
        <pt x="520" y="304" on="0"/>
        <pt x="529" y="348" on="1"/>
        <pt x="606" y="710" on="1"/>
        <pt x="743" y="710" on="1"/>
        <pt x="666" y="348" on="1"/>
        <pt x="651" y="275" on="0"/>
        <pt x="589" y="147" on="0"/>
        <pt x="497" y="51" on="0"/>
        <pt x="373" y="-5" on="0"/>
      </contour>
    </TTGlyph>
    <TTGlyph name="Udieresis" xMin="61" yMin="-5" xMax="743" yMax="910">
      <contour>
        <pt x="309" y="791" on="1"/>
        <pt x="335" y="910" on="1"/>
        <pt x="446" y="910" on="1"/>
        <pt x="420" y="791" on="1"/>
      </contour>
      <contour>
        <pt x="497" y="791" on="1"/>
        <pt x="522" y="910" on="1"/>
        <pt x="632" y="910" on="1"/>
        <pt x="608" y="791" on="1"/>
      </contour>
      <contour>
        <pt x="295" y="-5" on="1"/>
        <pt x="231" y="-5" on="0"/>
        <pt x="142" y="32" on="0"/>
        <pt x="86" y="97" on="0"/>
        <pt x="61" y="184" on="0"/>
        <pt x="61" y="235" on="1"/>
        <pt x="61" y="290" on="0"/>
        <pt x="74" y="348" on="1"/>
        <pt x="151" y="710" on="1"/>
        <pt x="288" y="710" on="1"/>
        <pt x="211" y="348" on="1"/>
        <pt x="206" y="325" on="0"/>
        <pt x="201" y="280" on="0"/>
        <pt x="201" y="259" on="1"/>
        <pt x="201" y="229" on="0"/>
        <pt x="213" y="177" on="0"/>
        <pt x="242" y="139" on="0"/>
        <pt x="287" y="117" on="0"/>
        <pt x="320" y="117" on="1"/>
        <pt x="365" y="117" on="0"/>
        <pt x="435" y="157" on="0"/>
        <pt x="486" y="221" on="0"/>
        <pt x="520" y="304" on="0"/>
        <pt x="529" y="348" on="1"/>
        <pt x="606" y="710" on="1"/>
        <pt x="743" y="710" on="1"/>
        <pt x="666" y="348" on="1"/>
        <pt x="651" y="275" on="0"/>
        <pt x="589" y="147" on="0"/>
        <pt x="497" y="51" on="0"/>
        <pt x="373" y="-5" on="0"/>
      </contour>
    </TTGlyph>
    <TTGlyph name="Udotbelow" xMin="61" yMin="-196" xMax="743" yMax="710">
      <contour>
        <pt x="295" y="-5" on="1"/>
        <pt x="231" y="-5" on="0"/>
        <pt x="142" y="32" on="0"/>
        <pt x="86" y="97" on="0"/>
        <pt x="61" y="184" on="0"/>
        <pt x="61" y="235" on="1"/>
        <pt x="61" y="290" on="0"/>
        <pt x="74" y="348" on="1"/>
        <pt x="151" y="710" on="1"/>
        <pt x="288" y="710" on="1"/>
        <pt x="211" y="348" on="1"/>
        <pt x="206" y="325" on="0"/>
        <pt x="201" y="280" on="0"/>
        <pt x="201" y="259" on="1"/>
        <pt x="201" y="229" on="0"/>
        <pt x="213" y="177" on="0"/>
        <pt x="242" y="139" on="0"/>
        <pt x="287" y="117" on="0"/>
        <pt x="320" y="117" on="1"/>
        <pt x="365" y="117" on="0"/>
        <pt x="435" y="157" on="0"/>
        <pt x="486" y="221" on="0"/>
        <pt x="520" y="304" on="0"/>
        <pt x="529" y="348" on="1"/>
        <pt x="606" y="710" on="1"/>
        <pt x="743" y="710" on="1"/>
        <pt x="666" y="348" on="1"/>
        <pt x="651" y="275" on="0"/>
        <pt x="589" y="147" on="0"/>
        <pt x="497" y="51" on="0"/>
        <pt x="373" y="-5" on="0"/>
      </contour>
      <contour>
        <pt x="190" y="-196" on="1"/>
        <pt x="217" y="-70" on="1"/>
        <pt x="337" y="-70" on="1"/>
        <pt x="310" y="-196" on="1"/>
      </contour>
    </TTGlyph>
    <TTGlyph name="Ugrave" xMin="61" yMin="-5" xMax="743" yMax="917">
      <contour>
        <pt x="295" y="-5" on="1"/>
        <pt x="231" y="-5" on="0"/>
        <pt x="142" y="32" on="0"/>
        <pt x="86" y="97" on="0"/>
        <pt x="61" y="184" on="0"/>
        <pt x="61" y="235" on="1"/>
        <pt x="61" y="290" on="0"/>
        <pt x="74" y="348" on="1"/>
        <pt x="151" y="710" on="1"/>
        <pt x="288" y="710" on="1"/>
        <pt x="211" y="348" on="1"/>
        <pt x="206" y="325" on="0"/>
        <pt x="201" y="280" on="0"/>
        <pt x="201" y="259" on="1"/>
        <pt x="201" y="229" on="0"/>
        <pt x="213" y="177" on="0"/>
        <pt x="242" y="139" on="0"/>
        <pt x="287" y="117" on="0"/>
        <pt x="320" y="117" on="1"/>
        <pt x="365" y="117" on="0"/>
        <pt x="435" y="157" on="0"/>
        <pt x="486" y="221" on="0"/>
        <pt x="520" y="304" on="0"/>
        <pt x="529" y="348" on="1"/>
        <pt x="606" y="710" on="1"/>
        <pt x="743" y="710" on="1"/>
        <pt x="666" y="348" on="1"/>
        <pt x="651" y="275" on="0"/>
        <pt x="589" y="147" on="0"/>
        <pt x="497" y="51" on="0"/>
        <pt x="373" y="-5" on="0"/>
      </contour>
      <contour>
        <pt x="378" y="917" on="1"/>
        <pt x="501" y="917" on="1"/>
        <pt x="527" y="798" on="1"/>
        <pt x="434" y="780" on="1"/>
      </contour>
    </TTGlyph>
    <TTGlyph name="Uhungarumlaut" xMin="61" yMin="-5" xMax="743" yMax="917">
      <contour>
        <pt x="295" y="-5" on="1"/>
        <pt x="231" y="-5" on="0"/>
        <pt x="142" y="32" on="0"/>
        <pt x="86" y="97" on="0"/>
        <pt x="61" y="184" on="0"/>
        <pt x="61" y="235" on="1"/>
        <pt x="61" y="290" on="0"/>
        <pt x="74" y="348" on="1"/>
        <pt x="151" y="710" on="1"/>
        <pt x="288" y="710" on="1"/>
        <pt x="211" y="348" on="1"/>
        <pt x="206" y="325" on="0"/>
        <pt x="201" y="280" on="0"/>
        <pt x="201" y="259" on="1"/>
        <pt x="201" y="229" on="0"/>
        <pt x="213" y="177" on="0"/>
        <pt x="242" y="139" on="0"/>
        <pt x="287" y="117" on="0"/>
        <pt x="320" y="117" on="1"/>
        <pt x="365" y="117" on="0"/>
        <pt x="435" y="157" on="0"/>
        <pt x="486" y="221" on="0"/>
        <pt x="520" y="304" on="0"/>
        <pt x="529" y="348" on="1"/>
        <pt x="606" y="710" on="1"/>
        <pt x="743" y="710" on="1"/>
        <pt x="666" y="348" on="1"/>
        <pt x="651" y="275" on="0"/>
        <pt x="589" y="147" on="0"/>
        <pt x="497" y="51" on="0"/>
        <pt x="373" y="-5" on="0"/>
      </contour>
      <contour>
        <pt x="382" y="782" on="1"/>
        <pt x="315" y="798" on="1"/>
        <pt x="385" y="917" on="1"/>
        <pt x="488" y="917" on="1"/>
      </contour>
      <contour>
        <pt x="538" y="782" on="1"/>
        <pt x="472" y="798" on="1"/>
        <pt x="541" y="917" on="1"/>
        <pt x="644" y="917" on="1"/>
      </contour>
    </TTGlyph>
    <TTGlyph name="Uinvertedbreve" xMin="61" yMin="-5" xMax="743" yMax="916">
      <contour>
        <pt x="337" y="782" on="1"/>
        <pt x="343" y="811" on="0"/>
        <pt x="372" y="860" on="0"/>
        <pt x="414" y="896" on="0"/>
        <pt x="465" y="916" on="0"/>
        <pt x="492" y="916" on="1"/>
        <pt x="541" y="916" on="0"/>
        <pt x="595" y="856" on="0"/>
        <pt x="595" y="812" on="1"/>
        <pt x="595" y="797" on="0"/>
        <pt x="592" y="782" on="1"/>
        <pt x="521" y="782" on="1"/>
        <pt x="522" y="790" on="0"/>
        <pt x="523" y="804" on="0"/>
        <pt x="523" y="810" on="1"/>
        <pt x="523" y="856" on="0"/>
        <pt x="481" y="856" on="1"/>
        <pt x="423" y="856" on="0"/>
        <pt x="408" y="782" on="1"/>
      </contour>
      <contour>
        <pt x="295" y="-5" on="1"/>
        <pt x="231" y="-5" on="0"/>
        <pt x="142" y="32" on="0"/>
        <pt x="86" y="97" on="0"/>
        <pt x="61" y="184" on="0"/>
        <pt x="61" y="235" on="1"/>
        <pt x="61" y="290" on="0"/>
        <pt x="74" y="348" on="1"/>
        <pt x="151" y="710" on="1"/>
        <pt x="288" y="710" on="1"/>
        <pt x="211" y="348" on="1"/>
        <pt x="206" y="325" on="0"/>
        <pt x="201" y="280" on="0"/>
        <pt x="201" y="259" on="1"/>
        <pt x="201" y="229" on="0"/>
        <pt x="213" y="177" on="0"/>
        <pt x="242" y="139" on="0"/>
        <pt x="287" y="117" on="0"/>
        <pt x="320" y="117" on="1"/>
        <pt x="365" y="117" on="0"/>
        <pt x="435" y="157" on="0"/>
        <pt x="486" y="221" on="0"/>
        <pt x="520" y="304" on="0"/>
        <pt x="529" y="348" on="1"/>
        <pt x="606" y="710" on="1"/>
        <pt x="743" y="710" on="1"/>
        <pt x="666" y="348" on="1"/>
        <pt x="651" y="275" on="0"/>
        <pt x="589" y="147" on="0"/>
        <pt x="497" y="51" on="0"/>
        <pt x="373" y="-5" on="0"/>
      </contour>
    </TTGlyph>
    <TTGlyph name="Umacron" xMin="61" yMin="-5" xMax="743" yMax="901">
      <contour>
        <pt x="295" y="-5" on="1"/>
        <pt x="231" y="-5" on="0"/>
        <pt x="142" y="32" on="0"/>
        <pt x="86" y="97" on="0"/>
        <pt x="61" y="184" on="0"/>
        <pt x="61" y="235" on="1"/>
        <pt x="61" y="290" on="0"/>
        <pt x="74" y="348" on="1"/>
        <pt x="151" y="710" on="1"/>
        <pt x="288" y="710" on="1"/>
        <pt x="211" y="348" on="1"/>
        <pt x="206" y="325" on="0"/>
        <pt x="201" y="280" on="0"/>
        <pt x="201" y="259" on="1"/>
        <pt x="201" y="229" on="0"/>
        <pt x="213" y="177" on="0"/>
        <pt x="242" y="139" on="0"/>
        <pt x="287" y="117" on="0"/>
        <pt x="320" y="117" on="1"/>
        <pt x="365" y="117" on="0"/>
        <pt x="435" y="157" on="0"/>
        <pt x="486" y="221" on="0"/>
        <pt x="520" y="304" on="0"/>
        <pt x="529" y="348" on="1"/>
        <pt x="606" y="710" on="1"/>
        <pt x="743" y="710" on="1"/>
        <pt x="666" y="348" on="1"/>
        <pt x="651" y="275" on="0"/>
        <pt x="589" y="147" on="0"/>
        <pt x="497" y="51" on="0"/>
        <pt x="373" y="-5" on="0"/>
      </contour>
      <contour>
        <pt x="321" y="818" on="1"/>
        <pt x="339" y="901" on="1"/>
        <pt x="625" y="901" on="1"/>
        <pt x="607" y="818" on="1"/>
      </contour>
    </TTGlyph>
    <TTGlyph name="Uogonek" xMin="61" yMin="-196" xMax="743" yMax="710">
      <contour>
        <pt x="260" y="-196" on="1"/>
        <pt x="210" y="-188" on="0"/>
        <pt x="163" y="-147" on="0"/>
        <pt x="163" y="-120" on="1"/>
        <pt x="163" y="-60" on="0"/>
        <pt x="260" y="-3" on="1"/>
        <pt x="206" y="2" on="0"/>
        <pt x="130" y="42" on="0"/>
        <pt x="83" y="105" on="0"/>
        <pt x="61" y="188" on="0"/>
        <pt x="61" y="235" on="1"/>
        <pt x="61" y="290" on="0"/>
        <pt x="74" y="348" on="1"/>
        <pt x="151" y="710" on="1"/>
        <pt x="288" y="710" on="1"/>
        <pt x="211" y="348" on="1"/>
        <pt x="206" y="325" on="0"/>
        <pt x="201" y="280" on="0"/>
        <pt x="201" y="259" on="1"/>
        <pt x="201" y="229" on="0"/>
        <pt x="213" y="177" on="0"/>
        <pt x="242" y="139" on="0"/>
        <pt x="287" y="117" on="0"/>
        <pt x="320" y="117" on="1"/>
        <pt x="365" y="117" on="0"/>
        <pt x="435" y="157" on="0"/>
        <pt x="486" y="221" on="0"/>
        <pt x="520" y="304" on="0"/>
        <pt x="529" y="348" on="1"/>
        <pt x="606" y="710" on="1"/>
        <pt x="743" y="710" on="1"/>
        <pt x="666" y="348" on="1"/>
        <pt x="652" y="280" on="0"/>
        <pt x="597" y="159" on="0"/>
        <pt x="514" y="65" on="0"/>
        <pt x="405" y="4" on="0"/>
        <pt x="337" y="-3" on="1"/>
        <pt x="292" y="-29" on="0"/>
        <pt x="250" y="-71" on="0"/>
        <pt x="250" y="-91" on="1"/>
        <pt x="250" y="-123" on="0"/>
        <pt x="302" y="-126" on="1"/>
        <pt x="260" y="-196" on="1"/>
      </contour>
    </TTGlyph>
    <TTGlyph name="Uring" xMin="61" yMin="-5" xMax="743" yMax="916">
      <contour>
        <pt x="374" y="824" on="1"/>
        <pt x="374" y="868" on="0"/>
        <pt x="438" y="916" on="0"/>
        <pt x="487" y="916" on="1"/>
        <pt x="525" y="916" on="0"/>
        <pt x="567" y="883" on="0"/>
        <pt x="567" y="854" on="1"/>
        <pt x="567" y="811" on="0"/>
        <pt x="504" y="762" on="0"/>
        <pt x="454" y="762" on="1"/>
        <pt x="417" y="762" on="0"/>
        <pt x="374" y="795" on="0"/>
      </contour>
      <contour>
        <pt x="478" y="875" on="1"/>
        <pt x="459" y="875" on="0"/>
        <pt x="432" y="851" on="0"/>
        <pt x="432" y="833" on="1"/>
        <pt x="432" y="820" on="0"/>
        <pt x="449" y="803" on="0"/>
        <pt x="463" y="803" on="1"/>
        <pt x="480" y="803" on="0"/>
        <pt x="510" y="827" on="0"/>
        <pt x="510" y="845" on="1"/>
        <pt x="510" y="859" on="0"/>
        <pt x="492" y="875" on="0"/>
      </contour>
      <contour>
        <pt x="295" y="-5" on="1"/>
        <pt x="231" y="-5" on="0"/>
        <pt x="142" y="32" on="0"/>
        <pt x="86" y="97" on="0"/>
        <pt x="61" y="184" on="0"/>
        <pt x="61" y="235" on="1"/>
        <pt x="61" y="290" on="0"/>
        <pt x="74" y="348" on="1"/>
        <pt x="151" y="710" on="1"/>
        <pt x="288" y="710" on="1"/>
        <pt x="211" y="348" on="1"/>
        <pt x="206" y="325" on="0"/>
        <pt x="201" y="280" on="0"/>
        <pt x="201" y="259" on="1"/>
        <pt x="201" y="229" on="0"/>
        <pt x="213" y="177" on="0"/>
        <pt x="242" y="139" on="0"/>
        <pt x="287" y="117" on="0"/>
        <pt x="320" y="117" on="1"/>
        <pt x="365" y="117" on="0"/>
        <pt x="435" y="157" on="0"/>
        <pt x="486" y="221" on="0"/>
        <pt x="520" y="304" on="0"/>
        <pt x="529" y="348" on="1"/>
        <pt x="606" y="710" on="1"/>
        <pt x="743" y="710" on="1"/>
        <pt x="666" y="348" on="1"/>
        <pt x="651" y="275" on="0"/>
        <pt x="589" y="147" on="0"/>
        <pt x="497" y="51" on="0"/>
        <pt x="373" y="-5" on="0"/>
      </contour>
    </TTGlyph>
    <TTGlyph name="Utilde" xMin="61" yMin="-5" xMax="743" yMax="916">
      <contour>
        <pt x="295" y="-5" on="1"/>
        <pt x="231" y="-5" on="0"/>
        <pt x="142" y="32" on="0"/>
        <pt x="86" y="97" on="0"/>
        <pt x="61" y="184" on="0"/>
        <pt x="61" y="235" on="1"/>
        <pt x="61" y="290" on="0"/>
        <pt x="74" y="348" on="1"/>
        <pt x="151" y="710" on="1"/>
        <pt x="288" y="710" on="1"/>
        <pt x="211" y="348" on="1"/>
        <pt x="206" y="325" on="0"/>
        <pt x="201" y="280" on="0"/>
        <pt x="201" y="259" on="1"/>
        <pt x="201" y="229" on="0"/>
        <pt x="213" y="177" on="0"/>
        <pt x="242" y="139" on="0"/>
        <pt x="287" y="117" on="0"/>
        <pt x="320" y="117" on="1"/>
        <pt x="365" y="117" on="0"/>
        <pt x="435" y="157" on="0"/>
        <pt x="486" y="221" on="0"/>
        <pt x="520" y="304" on="0"/>
        <pt x="529" y="348" on="1"/>
        <pt x="606" y="710" on="1"/>
        <pt x="743" y="710" on="1"/>
        <pt x="666" y="348" on="1"/>
        <pt x="651" y="275" on="0"/>
        <pt x="589" y="147" on="0"/>
        <pt x="497" y="51" on="0"/>
        <pt x="373" y="-5" on="0"/>
      </contour>
      <contour>
        <pt x="519" y="788" on="1"/>
        <pt x="498" y="788" on="0"/>
        <pt x="468" y="802" on="0"/>
        <pt x="443" y="819" on="0"/>
        <pt x="419" y="833" on="0"/>
        <pt x="403" y="833" on="1"/>
        <pt x="387" y="833" on="0"/>
        <pt x="366" y="819" on="0"/>
        <pt x="354" y="801" on="0"/>
        <pt x="349" y="786" on="0"/>
        <pt x="349" y="785" on="1"/>
        <pt x="275" y="785" on="1"/>
        <pt x="277" y="794" on="0"/>
        <pt x="297" y="837" on="0"/>
        <pt x="333" y="880" on="0"/>
        <pt x="384" y="913" on="0"/>
        <pt x="416" y="913" on="1"/>
        <pt x="438" y="913" on="0"/>
        <pt x="466" y="898" on="0"/>
        <pt x="490" y="881" on="0"/>
        <pt x="514" y="866" on="0"/>
        <pt x="531" y="866" on="1"/>
        <pt x="548" y="866" on="0"/>
        <pt x="571" y="880" on="0"/>
        <pt x="585" y="898" on="0"/>
        <pt x="592" y="914" on="0"/>
        <pt x="592" y="916" on="1"/>
        <pt x="665" y="916" on="1"/>
        <pt x="663" y="909" on="0"/>
        <pt x="643" y="867" on="0"/>
        <pt x="606" y="823" on="0"/>
        <pt x="553" y="788" on="0"/>
      </contour>
    </TTGlyph>
    <TTGlyph name="V" xMin="86" yMin="0" xMax="726" yMax="710">
      <contour>
        <pt x="86" y="710" on="1"/>
        <pt x="231" y="710" on="1"/>
        <pt x="293" y="173" on="1"/>
        <pt x="581" y="710" on="1"/>
        <pt x="726" y="710" on="1"/>
        <pt x="314" y="0" on="1"/>
        <pt x="198" y="0" on="1"/>
      </contour>
    </TTGlyph>
    <TTGlyph name="V.sc" xMin="56" yMin="0" xMax="618" yMax="559">
      <contour>
        <pt x="56" y="559" on="1"/>
        <pt x="184" y="559" on="1"/>
        <pt x="256" y="170" on="1"/>
        <pt x="490" y="559" on="1"/>
        <pt x="618" y="559" on="1"/>
        <pt x="270" y="0" on="1"/>
        <pt x="168" y="0" on="1"/>
      </contour>
    </TTGlyph>
</ttFont>
